<?xml version="1.0" standalone="no"?>
<!DOCTYPE svg PUBLIC "-//W3C//DTD SVG 1.1//EN" "http://www.w3.org/Graphics/SVG/1.1/DTD/svg11.dtd" >
<svg xmlns="http://www.w3.org/2000/svg" xmlns:xlink="http://www.w3.org/1999/xlink" version="1.1">
<metadata>
Created by FontForge 20170731 at Sun Jan 24 17:51:25 2021
 By Aleksey,,,
Copyright (c) 2019 by Eugene Tantsurin. All rights reserved.
</metadata>
<defs>
<font id="OktaNeue-BlackItalic" horiz-adv-x="0" >
  <font-face 
    font-family="Okta Neue Black"
    font-weight="900"
    font-style="italic"
    font-stretch="normal"
    units-per-em="2048"
    panose-1="0 0 10 0 0 0 0 0 0 0"
    ascent="1536"
    descent="-512"
    x-height="1014"
    cap-height="1434"
    bbox="-1534 -909 2448.41 2353"
    underline-thickness="102"
    underline-position="-307"
    slope="-9"
    unicode-range="U+0020-FB4B"
  />
<missing-glyph horiz-adv-x="2455" 
d="M1262 -195q-188 0 -357.5 72t-290 194.5t-191.5 291t-71 354.5t71 354.5t191.5 290.5t290 194t357.5 72t356.5 -72t289 -194t191 -290.5t70.5 -354.5t-70.5 -354.5t-191 -291t-289 -194.5t-356.5 -72zM1260 25q186 0 340.5 90t243.5 249t89 353t-89 353t-243.5 249
t-340.5 90q-185 0 -339 -90t-243.5 -249t-89.5 -353t89.5 -353t243.5 -249t339 -90zM1014 307l-164 164l246 248l-248 246l166 165l248 -245l247 245l164 -165l-246 -246l246 -248l-164 -164l-247 246z" />
    <glyph glyph-name="f_f" unicode="ff" horiz-adv-x="1689" 
d="M1540 1237q-226 0 -262 -221v-2h344l-45 -285h-344l-115 -729h-330l115 729h-323l-115 -729h-332l115 729h-168l41 285h172q21 130 69.5 228t108.5 155.5t139 93t150.5 47.5t152.5 12q74 0 161.5 -20.5t148.5 -59.5q143 80 344 80q57 0 138.5 -17t139.5 -38l-90 -317
q-126 59 -215 59zM625 1014h323q17 109 58 203q-65 20 -117 20q-49 0 -88.5 -9.5t-76.5 -33t-63 -68.5t-36 -110v-2z" />
    <glyph glyph-name="f_f_i" unicode="ffi" horiz-adv-x="1943" 
d="M1933 1014l-159 -1014h-332l114 729h-323l-115 -729h-330l115 729h-328l-114 -729h-330l115 729h-170l45 285h170q86 536 620 536q74 0 161 -20.5t149 -61.5q135 82 346 82q71 0 163.5 -17.5t147.5 -37.5l-90 -317q-126 59 -248 59q-48 0 -87 -9.5t-76.5 -32.5t-63 -68
t-35.5 -111v-2h655zM621 1016v-2h327q15 100 60 196q-66 27 -123 27q-229 0 -264 -221z" />
    <glyph glyph-name="f_i" unicode="fi" horiz-adv-x="1286" 
d="M623 1014h655l-160 -1014h-332l115 729h-323l-115 -729h-332l115 729h-170l45 285h170q17 108 55.5 195t91.5 144t113.5 97t130.5 61t132.5 30t129.5 9q165 0 330 -59l-90 -313q-112 55 -264 55q-49 0 -93.5 -9.5t-88 -32.5t-74.5 -67.5t-41 -107.5v-2z" />
    <glyph glyph-name="f_l" unicode="fl" horiz-adv-x="1447" 
d="M1311 297q44 -4 88 6l-47 -285q-104 -22 -176 -22q-175 0 -264 101t-62 278l139 868q-48 10 -94 10q-45 0 -86 -11.5t-79 -36t-64.5 -68.5t-36.5 -103l-4 -20h192l-45 -285h-192l-115 -729h-332l117 729h-174l45 285h174l2 16q20 124 70 219.5t113 151t144.5 90.5
t154.5 47t153 12q142 0 245.5 -47.5t163.5 -116.5l-149 -948q-11 -72 23.5 -105t95.5 -36z" />
    <glyph glyph-name=".notdef" horiz-adv-x="2455" 
d="M1262 -195q-188 0 -357.5 72t-290 194.5t-191.5 291t-71 354.5t71 354.5t191.5 290.5t290 194t357.5 72t356.5 -72t289 -194t191 -290.5t70.5 -354.5t-70.5 -354.5t-191 -291t-289 -194.5t-356.5 -72zM1260 25q186 0 340.5 90t243.5 249t89 353t-89 353t-243.5 249
t-340.5 90q-185 0 -339 -90t-243.5 -249t-89.5 -353t89.5 -353t243.5 -249t339 -90zM1014 307l-164 164l246 248l-248 246l166 165l248 -245l247 245l164 -165l-246 -246l246 -248l-164 -164l-247 246z" />
    <glyph glyph-name=".null" 
 />
    <glyph glyph-name="nonmarkingreturn" horiz-adv-x="682" 
 />
    <glyph glyph-name="space" unicode=" " horiz-adv-x="620" 
 />
    <glyph glyph-name="exclam" unicode="!" horiz-adv-x="491" 
d="M63 467l156 967h348l-155 -967h-349zM162 -25q-76 0 -122 54t-34 131q11 71 74.5 124.5t138.5 53.5q74 0 120.5 -53.5t35.5 -124.5q-10 -77 -74 -131t-139 -54z" />
    <glyph glyph-name="quotedbl" unicode="&#x22;" horiz-adv-x="757" 
d="M152 926l57 508h285l-113 -508h-229zM502 926l57 508h285l-111 -508h-231z" />
    <glyph glyph-name="numbersign" unicode="#" horiz-adv-x="1800" 
d="M139 -174l129 305h-266l139 320h267l100 239h-272l145 326h268l133 313h320l-133 -313h268l133 313h320l-134 -313h263l-144 -324h-258l-102 -239h266l-141 -322h-262l-131 -305h-320l131 305h-270l-129 -305h-320zM727 451l268 2l103 239l-271 -2z" />
    <glyph glyph-name="dollar" unicode="$" horiz-adv-x="1302" 
d="M889 815q61 -21 106.5 -42.5t92 -55.5t74 -73.5t39.5 -97t1 -126.5q-19 -124 -99.5 -220t-199 -150.5t-260.5 -67.5l-20 -125h-134l21 125q-184 15 -301.5 114t-149.5 252l344 90q27 -134 154 -157l49 313q-37 11 -45 14q-59 17 -102 33.5t-102 51t-94.5 74.5
t-55.5 105.5t-8 143.5q20 122 99.5 219t194.5 152t248 65l21 125h133l-21 -127q168 -18 272 -111.5t126 -236.5l-328 -90q-15 119 -115 149l-49 -313q58 -12 109 -33zM526 1014q-8 -56 24.5 -85.5t100.5 -49.5l45 284q-67 -15 -114 -56.5t-56 -92.5zM864 428q8 52 -25 79.5
t-106 51.5l-43 -278q72 11 118.5 48t55.5 99z" />
    <glyph glyph-name="percent" unicode="%" horiz-adv-x="1759" 
d="M317 -41l936 1516h252l-936 -1516h-252zM469 711q-149 0 -225 102.5t-51 259.5q24 158 128.5 259.5t260.5 101.5q148 0 224.5 -102.5t51.5 -258.5q-25 -160 -130 -261t-259 -101zM504 932q60 0 99 39t48 102q9 64 -17.5 102.5t-86.5 38.5t-99.5 -39t-48.5 -102t18 -102
t87 -39zM1243 0q-149 0 -224.5 102t-51.5 260q26 159 130 260t259 101q148 0 225.5 -103t52.5 -258q-25 -159 -130.5 -260.5t-260.5 -101.5zM1278 221q60 0 100 39t49 102q8 64 -18.5 103t-85.5 39q-60 0 -99 -39.5t-48 -102.5q-11 -63 15.5 -102t86.5 -39z" />
    <glyph glyph-name="ampersand" unicode="&#x26;" horiz-adv-x="1435" 
d="M459 -78q-99 0 -185 27t-149 77t-93 128.5t-14 173.5q11 73 43 136.5t83.5 117t108 96.5t132.5 88q-136 199 -109 358q10 68 47 131t95 113t143.5 80.5t183.5 30.5q93 0 166.5 -30.5t116.5 -80t61.5 -110.5t8.5 -125q-19 -118 -97.5 -215.5t-220.5 -196.5l148 -197
q46 58 76 123l354 -2q-105 -221 -244 -379l197 -266h-361l-51 66q-197 -144 -440 -144zM645 918q77 61 112.5 105.5t41.5 86.5q8 48 -14.5 79.5t-79.5 31.5q-49 0 -88.5 -33.5t-45.5 -79.5q-7 -39 12 -81.5t62 -108.5zM522 229q114 0 201 76l-188 248q-48 -34 -75.5 -56.5
t-53 -57t-31.5 -70.5q-9 -60 33 -100t114 -40z" />
    <glyph glyph-name="quotesingle" unicode="'" horiz-adv-x="407" 
d="M152 926l57 508h285l-113 -508h-229z" />
    <glyph glyph-name="parenleft" unicode="(" horiz-adv-x="557" 
d="M90 -190q-79 378 2 895q81 511 285 919h336q-203 -407 -285 -922q-81 -516 -2 -892h-336z" />
    <glyph glyph-name="parenright" unicode=")" horiz-adv-x="561" 
d="M-90 -190q200 385 280 892q81 513 7 922h335q37 -202 36.5 -440t-38.5 -479q-79 -500 -284 -895h-336z" />
    <glyph glyph-name="asterisk" unicode="*" horiz-adv-x="743" 
d="M336 825l-125 80l135 160l-192 -14l24 157l193 -14l-84 160l149 80l53 -177l113 175l125 -78l-135 -162l194 18l-24 -157l-184 10l75 -156l-149 -80l-53 172z" />
    <glyph glyph-name="plus" unicode="+" horiz-adv-x="976" 
d="M307 287l43 262h-262l45 285h262l43 262h289l-43 -262h262l-45 -285h-262l-43 -262h-289z" />
    <glyph glyph-name="comma" unicode="," horiz-adv-x="468" 
d="M-117 -350l174 483h308l-195 -483h-287z" />
    <glyph glyph-name="hyphen" unicode="-" horiz-adv-x="892" 
d="M45 408l49 301h768l-47 -301h-770z" />
    <glyph glyph-name="period" unicode="." horiz-adv-x="491" 
d="M164 -25q-77 0 -123.5 53.5t-34.5 131.5q12 71 75.5 124.5t137.5 53.5q75 0 121.5 -53.5t34.5 -124.5q-12 -77 -74.5 -131t-136.5 -54z" />
    <glyph glyph-name="slash" unicode="/" horiz-adv-x="929" 
d="M-45 -164l827 1864h275l-828 -1864h-274z" />
    <glyph glyph-name="zero" unicode="0" horiz-adv-x="1323" 
d="M584 0q-176 0 -298 90.5t-171 253.5t-15 373q34 214 127 374t243 251.5t339 91.5q175 0 295.5 -90.5t168 -253.5t13.5 -373q-34 -214 -125.5 -374t-240 -251.5t-336.5 -91.5zM635 328q125 0 204 103t109 286q30 182 -18 285.5t-174 103.5t-207 -103.5t-111 -285.5
t19 -285.5t178 -103.5z" />
    <glyph glyph-name="one" unicode="1" horiz-adv-x="733" 
d="M160 0l162 1030q-89 -55 -224 -55l47 301q196 0 240 158h348l-225 -1434h-348z" />
    <glyph glyph-name="two" unicode="2" horiz-adv-x="1144" 
d="M-39 0l43 266l473 359q92 70 141 109.5t97 86.5t69.5 86t28.5 82q12 74 -27.5 118t-111.5 44q-69 0 -128 -45.5t-81 -126.5l-324 41q64 210 222 327t368 117q218 0 334.5 -120t83.5 -332q-13 -78 -48 -149.5t-93 -138t-124 -125t-157 -126.5l-229 -178h546l-45 -293z" />
    <glyph glyph-name="three" unicode="3" horiz-adv-x="1171" 
d="M485 -29q-207 0 -335.5 114.5t-133.5 295.5l351 45q3 -68 49 -110t119 -42q76 0 136.5 42.5t71.5 117.5q12 78 -34.5 130t-159.5 52h-51l39 240h41q106 0 162 46.5t67 107.5q10 71 -25.5 112t-101.5 41q-64 0 -113 -34t-69 -93l-330 41q46 170 193.5 278.5t363.5 108.5
q212 0 334 -120.5t94 -292.5q-18 -112 -89 -188.5t-175 -108.5q103 -29 163.5 -122t41.5 -216q-32 -200 -188 -322.5t-421 -122.5z" />
    <glyph glyph-name="four" unicode="4" horiz-adv-x="1239" 
d="M627 0l43 281h-662l43 276l441 877h358l-444 -877h309l78 498h331l-77 -498h170l-43 -276h-173l-43 -281h-331z" />
    <glyph glyph-name="five" unicode="5" horiz-adv-x="1146" 
d="M500 -31q-204 0 -337 105.5t-147 271.5l328 88q3 -67 53.5 -112.5t122.5 -45.5q94 0 152.5 49.5t70.5 129.5q15 84 -34 137t-131 53q-59 0 -110 -28t-81 -76l-278 137l167 756h844l-49 -304h-559l-55 -247q100 49 223 49q92 0 172.5 -33.5t137 -93.5t82.5 -149.5
t11 -194.5q-31 -218 -188.5 -355t-394.5 -137z" />
    <glyph glyph-name="six" unicode="6" horiz-adv-x="1146" 
d="M485 -31q-231 0 -355 143.5t-87 366.5q16 105 80 240.5t152.5 265.5t181.5 245t180 204h389q-318 -338 -473 -578q72 35 154 35q128 1 223.5 -53.5t139.5 -153.5t24 -223q-36 -219 -202.5 -355.5t-406.5 -136.5zM539 276q87 0 153 59t70 144q6 72 -42 118t-126 46
q-89 0 -154 -56.5t-69 -144.5q-6 -72 42 -119t126 -47z" />
    <glyph glyph-name="seven" unicode="7" horiz-adv-x="1075" 
d="M84 0l672 1130h-631l49 304h997l-49 -304l-665 -1130h-373z" />
    <glyph glyph-name="eight" unicode="8" horiz-adv-x="1193" 
d="M518 -29q-152 0 -268.5 61.5t-170.5 162t-36 215.5q19 124 106.5 214.5t208.5 129.5q-93 37 -142 117.5t-32 185.5q27 172 180.5 289.5t380.5 117.5q108 0 197 -33.5t144 -89.5t79.5 -130t12.5 -154q-17 -109 -88 -188t-179 -115q109 -35 169.5 -127.5t39.5 -216.5
q-15 -91 -61 -170t-120 -139.5t-182.5 -95t-238.5 -34.5zM653 868q70 0 121.5 40.5t61.5 107.5q9 65 -29.5 106t-108.5 41t-121.5 -41t-62.5 -106q-10 -67 28.5 -107.5t110.5 -40.5zM557 274q78 0 138 45.5t73 124.5q12 75 -33 119.5t-125 44.5q-79 0 -138 -44.5t-71 -119.5
q-13 -79 33 -124.5t123 -45.5z" />
    <glyph glyph-name="nine" unicode="9" horiz-adv-x="1142" 
d="M231 0q274 281 431 530q-77 -36 -162 -36q-198 0 -307.5 127.5t-77.5 320.5q34 217 202 354.5t402 137.5q151 0 260.5 -63.5t158.5 -179.5t25 -265q-62 -390 -551 -926h-381zM610 760q83 0 148.5 51t77.5 129q12 81 -35 133.5t-131 52.5t-148 -52.5t-76 -133.5
q-12 -79 35 -129.5t129 -50.5z" />
    <glyph glyph-name="colon" unicode=":" horiz-adv-x="464" 
d="M268 723q-71 0 -114 49.5t-31 122.5q11 65 69.5 114.5t126.5 49.5q70 0 113.5 -49.5t32.5 -114.5q-12 -73 -69.5 -122.5t-127.5 -49.5zM150 -14q-71 0 -113.5 50t-30.5 122q9 66 68 115t129 49q69 0 111.5 -49t33.5 -115q-12 -72 -70.5 -122t-127.5 -50z" />
    <glyph glyph-name="semicolon" unicode=";" horiz-adv-x="495" 
d="M299 723q-71 0 -113 49.5t-32 122.5q11 65 69.5 114.5t126.5 49.5q70 0 113.5 -49.5t32.5 -114.5q-10 -72 -68.5 -122t-128.5 -50zM-115 -350l172 483h308l-195 -483h-285z" />
    <glyph glyph-name="less" unicode="&#x3c;" horiz-adv-x="899" 
d="M754 252l-641 307l34 232l742 311l-43 -268l-422 -166l371 -164z" />
    <glyph glyph-name="equal" unicode="=" horiz-adv-x="1157" 
d="M129 754l35 217h977l-35 -217h-977zM76 414l33 219h976l-32 -219h-977z" />
    <glyph glyph-name="greater" unicode="&#x3e;" horiz-adv-x="897" 
d="M63 252l41 270l424 166l-370 162l41 252l641 -307l-35 -230z" />
    <glyph glyph-name="question" unicode="?" horiz-adv-x="1253" 
d="M395 442q14 85 46 151t72 106t86 70.5t91 53.5t82.5 46.5t64 57.5t33.5 79q10 62 -30 104.5t-125 42.5q-69 0 -123 -37t-82 -100l-311 96q73 154 224.5 249t348.5 95q143 0 254.5 -53.5t169 -155.5t37.5 -231q-11 -69 -42 -126.5t-72.5 -97t-90 -73.5t-96 -64t-87.5 -60
t-68.5 -69t-35.5 -84h-346zM494 -25q-77 0 -123.5 53.5t-34.5 131.5q12 71 75.5 124.5t137.5 53.5q75 0 121.5 -53.5t34.5 -124.5q-10 -77 -73 -131t-138 -54z" />
    <glyph glyph-name="at" unicode="@" horiz-adv-x="1847" 
d="M1022 1290q176 0 327.5 -63.5t255 -173.5t150.5 -268.5t21 -338.5q-41 -255 -183 -401q-52 -52 -130 -77t-155.5 -18.5t-145 54.5t-95.5 131q-129 -98 -285 -98q-165 0 -258.5 119t-68.5 290q25 182 149 296t293 114q116 0 219 -80l10 72h244l-74 -520q-6 -47 6.5 -77.5
t34.5 -40t46 -7.5t42 16q76 61 101 227q38 271 -110.5 438t-426.5 167q-176 0 -324 -75.5t-243.5 -213.5t-120.5 -316q-37 -270 104.5 -436t411.5 -166q137 0 277 64l80 -219q-190 -86 -390 -86q-242 0 -421 113t-260.5 305.5t-51.5 424.5q19 138 76 266t147 232.5t204 182
t254 120.5t290 43zM850 246q79 0 142 58t75 142t-33.5 142.5t-124.5 58.5q-82 0 -144 -58.5t-73 -142.5q-11 -85 33.5 -142.5t124.5 -57.5z" />
    <glyph glyph-name="A" unicode="A" horiz-adv-x="1527" 
d="M-72 0l799 1434h360l355 -1434h-365l-47 215h-596l-115 -215h-391zM594 528h373l-109 506h-6z" />
    <glyph glyph-name="B" unicode="B" horiz-adv-x="1302" 
d="M1292 1024q-28 -185 -180 -289q72 -55 106.5 -139t20.5 -188q-32 -195 -181 -301.5t-378 -106.5h-631l227 1434h584q221 0 341.5 -111t90.5 -299zM958 995q10 68 -27.5 107t-109.5 39h-248l-45 -291h248q73 0 122.5 38.5t59.5 106.5zM905 438q10 69 -29.5 109.5
t-111.5 40.5h-277l-45 -295h277q74 0 125.5 39t60.5 106z" />
    <glyph glyph-name="C" unicode="C" horiz-adv-x="1501" 
d="M717 -20q-143 0 -269 58.5t-211 156.5t-124 235.5t-15 286.5q25 153 100.5 288.5t186.5 234.5t258 156.5t307 57.5q198 0 357.5 -105.5t224.5 -277.5l-336 -158q-36 88 -116 140.5t-187 52.5q-161 0 -289 -113.5t-153 -275.5q-26 -162 66 -275.5t253 -113.5
q109 0 207 53.5t160 144.5l286 -157q-127 -186 -297.5 -287.5t-408.5 -101.5z" />
    <glyph glyph-name="D" unicode="D" horiz-adv-x="1501" 
d="M49 0l227 1434l574 2q106 0 205 -29.5t183.5 -89.5t143 -144t82 -201.5t2.5 -252.5q-27 -171 -100.5 -308t-180.5 -226.5t-242 -137t-288 -47.5h-606zM451 336h229q172 0 291.5 95t150.5 288q15 98 -4.5 173t-68 119.5t-115 66.5t-150.5 22l-213 -2z" />
    <glyph glyph-name="E" unicode="E" horiz-adv-x="1230" 
d="M51 0l225 1434h1037l-49 -306h-689l-40 -260h673l-45 -297h-674l-43 -266h691l-50 -305h-1036z" />
    <glyph glyph-name="F" unicode="F" horiz-adv-x="1239" 
d="M51 0l225 1434h1033l-47 -306h-691l-41 -278h666l-49 -301h-666l-86 -549h-344z" />
    <glyph glyph-name="G" unicode="G" horiz-adv-x="1558" 
d="M1530 782l-37 -252l-12 -77q-97 -226 -300 -349.5t-462 -123.5q-152 0 -279.5 58t-210.5 157t-119 235.5t-12 286.5q33 203 151.5 371t303.5 267t399 99q212 0 356.5 -97.5t209.5 -266.5l-334 -164q-84 186 -289 186q-165 0 -294.5 -114.5t-154.5 -280.5
q-26 -177 67 -294.5t259 -117.5q215 0 350 150l11 75h-271l37 252h631z" />
    <glyph glyph-name="H" unicode="H" horiz-adv-x="1554" 
d="M51 0l225 1434h349l-88 -557h598l86 557h350l-225 -1434h-351l88 549h-598l-86 -549h-348z" />
    <glyph glyph-name="I" unicode="I" horiz-adv-x="606" 
d="M51 0l225 1434h349l-226 -1434h-348z" />
    <glyph glyph-name="J" unicode="J" horiz-adv-x="1159" 
d="M317 -20q-183 0 -321 83l211 295q65 -43 164 -43q77 0 140.5 28.5t106 77.5t69 110.5t36.5 132.5l123 770h348l-133 -838q-45 -295 -242.5 -455.5t-501.5 -160.5z" />
    <glyph glyph-name="K" unicode="K" horiz-adv-x="1462" 
d="M51 0l225 1434h349l-88 -553h149l467 553h449l-633 -713l409 -721h-397l-317 553h-179l-86 -553h-348z" />
    <glyph glyph-name="L" unicode="L" horiz-adv-x="1185" 
d="M51 0l225 1434h345l-177 -1117h686l-49 -317h-1030z" />
    <glyph glyph-name="M" unicode="M" horiz-adv-x="1908" 
d="M51 0l225 1434h375l320 -791l549 791h405l-225 -1434h-348l133 844l-443 -613h-262l-250 611l-131 -842h-348z" />
    <glyph glyph-name="N" unicode="N" horiz-adv-x="1562" 
d="M51 0l225 1434h363l453 -908l139 908h348l-225 -1434h-363l-452 907l-140 -907h-348z" />
    <glyph glyph-name="O" unicode="O" horiz-adv-x="1603" 
d="M717 -20q-97 0 -187 26.5t-163 74t-132 115t-93.5 149t-48 176t4.5 196.5q25 152 100 287t185.5 234.5t258 157.5t308.5 58q97 0 187 -26.5t163 -74t132 -115t93.5 -149t48 -176t-4.5 -196.5q-25 -153 -97 -287t-180.5 -234.5t-257 -158t-317.5 -57.5zM770 319
q164 0 293.5 115t157.5 283q26 168 -67 282.5t-257 114.5q-165 0 -294 -114.5t-157 -282.5t65.5 -283t258.5 -115z" />
    <glyph glyph-name="P" unicode="P" horiz-adv-x="1294" 
d="M51 0l225 1434h617q96 0 179.5 -32.5t144 -92t88 -152t10.5 -203.5q-36 -225 -194.5 -352t-379.5 -127h-272l-74 -475h-344zM516 770h250q86 0 144.5 51t70.5 133q12 83 -30.5 135t-127.5 52h-250z" />
    <glyph glyph-name="Q" unicode="Q" horiz-adv-x="1611" 
d="M1567 717q-44 -279 -235.5 -480.5t-473.5 -246.5q218 -39 576 8l-52 -320q-404 30 -714 171t-463 376q-72 101 -101 227.5t-6 264.5q25 152 100.5 287t186.5 234.5t258 157.5t307 58q141 0 266 -58.5t210.5 -156.5t125 -235.5t15.5 -286.5zM1217 717q26 162 -68 275.5
t-256 113.5q-159 0 -288 -113.5t-154 -275.5q-26 -162 66 -275.5t253 -113.5q162 0 291.5 113.5t155.5 275.5z" />
    <glyph glyph-name="R" unicode="R" horiz-adv-x="1329" 
d="M1335 956q-24 -155 -108 -266t-213 -166l205 -524h-371l-164 477h-213l-76 -477h-344l225 1434h631q96 0 180 -31.5t146.5 -90t91 -151t10.5 -205.5zM573 1130l-57 -358h266q79 0 137 50t70 128q12 79 -29 129.5t-120 50.5h-267z" />
    <glyph glyph-name="S" unicode="S" horiz-adv-x="1204" 
d="M526 -20q-202 0 -338.5 100t-162.5 268l348 94q10 -70 65.5 -110.5t139.5 -40.5t139 35.5t63 93.5q6 32 -8.5 56.5t-47.5 41t-70 28.5t-89 26q-35 9 -53 14q-64 18 -114 38.5t-106.5 57.5t-91 81.5t-52 113.5t-3.5 151q28 185 195.5 307.5t400.5 122.5q195 0 315 -95.5
t144 -262.5l-328 -90q-29 143 -176 143q-82 0 -136 -39.5t-62 -95.5q-4 -26 6.5 -48t28 -36.5t51.5 -29.5t62.5 -24t74.5 -23q5 -1 8 -2l7.5 -2.5t8.5 -2.5q71 -20 116.5 -36t111 -51.5t101.5 -77.5t56.5 -111t6.5 -154q-31 -201 -198 -320.5t-413 -119.5z" />
    <glyph glyph-name="T" unicode="T" horiz-adv-x="1306" 
d="M399 0l181 1130h-457l47 304h1255l-47 -304h-454l-179 -1130h-346z" />
    <glyph glyph-name="U" unicode="U" horiz-adv-x="1501" 
d="M670 -20q-131 0 -242 47.5t-184.5 128.5t-106 195t-12.5 241l133 842h348l-121 -775q-14 -69 -5 -131.5t33.5 -109.5t78.5 -75t131 -28q145 0 232.5 97.5t109.5 246.5l123 775h348l-133 -842q-44 -287 -240.5 -449.5t-492.5 -162.5z" />
    <glyph glyph-name="V" unicode="V" horiz-adv-x="1454" 
d="M442 0l-286 1434h360l189 -1024l495 1024h393l-739 -1434h-412z" />
    <glyph glyph-name="W" unicode="W" horiz-adv-x="2181" 
d="M369 0l-209 1434h352l115 -955l434 955h305l174 -953l391 953h381l-649 -1434h-342l-170 901l-422 -901h-360z" />
    <glyph glyph-name="X" unicode="X" horiz-adv-x="1402" 
d="M-53 0l553 717l-310 717h394l192 -473l307 473h424l-532 -715l325 -719h-389l-215 457l-317 -457h-432z" />
    <glyph glyph-name="Y" unicode="Y" horiz-adv-x="1380" 
d="M438 0l86 567l-368 867h376l207 -535l348 535h433l-648 -867l-86 -567h-348z" />
    <glyph glyph-name="Z" unicode="Z" horiz-adv-x="1218" 
d="M-2 0l49 297l741 825h-612l47 312h1061l-49 -297l-741 -826h641l-48 -311h-1089z" />
    <glyph glyph-name="bracketleft" unicode="[" horiz-adv-x="608" 
d="M-49 -190l287 1814h526l-41 -268h-213l-203 -1278h211l-41 -268h-526z" />
    <glyph glyph-name="backslash" unicode="\" horiz-adv-x="1519" 
d="M1352 -164h-275l-827 1864h274z" />
    <glyph glyph-name="bracketright" unicode="]" horiz-adv-x="606" 
d="M-88 -190l41 268h209l203 1278h-207l41 268h522l-287 -1814h-522z" />
    <glyph glyph-name="asciicircum" unicode="^" horiz-adv-x="972" 
d="M139 999l426 639h197l227 -639h-250l-114 328l-215 -328h-271z" />
    <glyph glyph-name="underscore" unicode="_" horiz-adv-x="1255" 
d="M-27 -260l43 260h1065l-43 -260h-1065z" />
    <glyph glyph-name="grave" unicode="`" horiz-adv-x="417" 
d="M309 1182l-155 299h260l110 -299h-215z" />
    <glyph glyph-name="a" unicode="a" horiz-adv-x="1292" 
d="M451 -18q-127 0 -223.5 68.5t-140.5 190t-21 267.5q36 226 189.5 375t358.5 149q191 0 289 -141l19 123h331l-159 -1014h-332l18 115q-127 -133 -329 -133zM575 266q98 0 174 68t93 174q19 103 -36 172.5t-153 69.5q-95 0 -170 -69t-94 -173q-17 -103 37 -172.5
t149 -69.5z" />
    <glyph glyph-name="b" unicode="b" horiz-adv-x="1294" 
d="M680 -18q-194 0 -291 139l-18 -121h-332l244 1536h331l-102 -643q145 139 324 139q128 0 226 -68t144 -189t23 -267q-35 -231 -182 -378.5t-367 -147.5zM639 266q95 0 168 69t88 173q17 104 -34 173t-146 69q-96 0 -172.5 -69.5t-91.5 -172.5q-17 -104 37 -173t151 -69z
" />
    <glyph glyph-name="c" unicode="c" horiz-adv-x="1073" 
d="M524 -29q-108 0 -202 42.5t-157 114t-92 171.5t-12 209q17 111 73.5 211t139.5 173t193 116t229 43q133 0 240.5 -60.5t167.5 -163.5l-289 -190q-22 48 -66 75.5t-102 28.5q-96 1 -170.5 -65.5t-91.5 -169.5q-15 -100 36 -165.5t146 -66.5q59 -2 116.5 27t90.5 78
l227 -189q-92 -101 -218 -160t-259 -59z" />
    <glyph glyph-name="d" unicode="d" horiz-adv-x="1292" 
d="M455 -18q-129 0 -226.5 68.5t-141.5 189.5t-21 268q37 226 191 375t357 149q188 0 289 -141l103 645h331l-243 -1536h-332l20 121q-136 -139 -327 -139zM578 266q96 0 172.5 69.5t91.5 172.5q19 103 -36 172.5t-151 69.5q-97 0 -172 -69t-92 -173t37 -173t150 -69z" />
    <glyph glyph-name="e" unicode="e" horiz-adv-x="1206" 
d="M694 1051q215 0 339.5 -148t107.5 -389q-2 -37 -17 -98h-762q12 -83 70 -129.5t137 -46.5q71 0 136 26.5t110 71.5l195 -168q-90 -96 -216 -147.5t-266 -49.5q-109 1 -202.5 44.5t-156 117.5t-89.5 178.5t-8 221.5q15 100 67 192.5t130.5 164.5t189.5 115.5t235 43.5z
M397 625h459q-16 86 -72 129t-131 43q-78 0 -147.5 -43.5t-108.5 -128.5z" />
    <glyph glyph-name="f" unicode="f" horiz-adv-x="888" 
d="M168 0l115 729h-207l45 285h207l16 100q32 212 159 324t333 112q93 0 198 -30l-47 -299q-55 22 -110 22q-79 0 -136.5 -42t-70.5 -126l-11 -61h275l-45 -285h-275l-114 -729h-332z" />
    <glyph glyph-name="g" unicode="g" horiz-adv-x="1294" 
d="M444 -512q-165 0 -298.5 65t-194.5 171l250 188q100 -135 264 -135q47 0 94.5 16.5t91.5 49t77 87.5t44 125l10 62q-132 -135 -321 -135q-100 0 -182.5 40.5t-135 110t-73.5 167.5t-4 208q37 228 194 376t365 148q91 0 163 -36.5t117 -102.5l19 121h331l-149 -936
q-19 -122 -65.5 -221.5t-110.5 -167t-144 -113.5t-165.5 -67t-176.5 -21zM571 266q100 0 178 69t93 173q19 103 -36 172.5t-151 69.5q-97 0 -172 -69t-92 -173q-15 -104 37 -173t143 -69z" />
    <glyph glyph-name="h" unicode="h" horiz-adv-x="1275" 
d="M39 0l244 1536h329l-100 -631q124 121 303 121q189 0 297 -138t72 -360l-84 -528h-332l80 502q19 118 -23 182t-135 64q-91 0 -154.5 -64.5t-84.5 -173.5l-82 -510h-330z" />
    <glyph glyph-name="i" unicode="i" horiz-adv-x="540" 
d="M375 1155q-74 0 -120 53t-34 129q12 71 74 122.5t137 51.5q74 0 119 -52t33 -122q-12 -76 -73.5 -129t-135.5 -53zM25 0l161 1014h330l-162 -1014h-329z" />
    <glyph glyph-name="j" unicode="j" horiz-adv-x="575" 
d="M408 1155q-66 0 -110 44t-44 110q0 78 64.5 140t146.5 62q67 0 111.5 -43.5t44.5 -105.5q0 -84 -65.5 -145.5t-147.5 -61.5zM-88 -510q-76 0 -170 23l47 297q43 -15 82 -15q160 0 182 158l170 1061h330l-180 -1135q-61 -389 -461 -389z" />
    <glyph glyph-name="k" unicode="k" horiz-adv-x="1259" 
d="M41 0l242 1536h327l-137 -858h123l311 336h412l-483 -494l333 -520h-385l-221 367h-137l-57 -367h-328z" />
    <glyph glyph-name="l" unicode="l" horiz-adv-x="698" 
d="M424 -8q-183 0 -269.5 99t-56.5 284l185 1161h331l-176 -1098q-9 -71 25.5 -109t107.5 -38q44 0 76 14l-47 -287q-102 -26 -176 -26z" />
    <glyph glyph-name="m" unicode="m" horiz-adv-x="2000" 
d="M37 0l162 1014h331l-18 -113q138 131 319 131q190 0 304 -168q162 168 401 168q205 0 308 -133t65 -371l-84 -528h-334l80 500q19 118 -22.5 187t-133.5 69q-91 0 -156.5 -71t-82.5 -185l-80 -500h-332l80 500q17 118 -24.5 187t-131.5 69t-155.5 -74t-83.5 -186
l-80 -496h-332z" />
    <glyph glyph-name="n" unicode="n" horiz-adv-x="1275" 
d="M37 0l162 1014h331l-18 -113q134 131 305 131q91 0 166.5 -35t126.5 -99t71.5 -160t2.5 -210l-84 -528h-332l78 500q19 120 -22.5 187t-133.5 67q-94 0 -159.5 -70.5t-84.5 -187.5l-77 -496h-332z" />
    <glyph glyph-name="o" unicode="o" horiz-adv-x="1236" 
d="M532 -29q-105 0 -198 40.5t-157.5 110.5t-94.5 171.5t-12 214.5q38 240 217 391.5t418 151.5q155 0 270 -75.5t164.5 -199.5t27.5 -268q-38 -239 -214 -388t-421 -149zM580 272q92 -1 166.5 66.5t91.5 167.5q15 102 -38 168.5t-145 66.5q-92 2 -166.5 -65.5t-89.5 -169.5
q-15 -99 37.5 -166.5t143.5 -67.5z" />
    <glyph glyph-name="p" unicode="p" horiz-adv-x="1294" 
d="M-43 -512l242 1526h333l-20 -121q146 139 324 139q130 0 228 -68.5t143 -189.5t22 -268q-35 -229 -183.5 -376.5t-365.5 -147.5q-190 0 -291 137l-100 -631h-332zM639 266q96 0 168.5 68.5t87.5 173.5q17 103 -34 172.5t-146 69.5q-96 0 -172.5 -70t-91.5 -174
q-17 -104 37 -172t151 -68z" />
    <glyph glyph-name="q" unicode="q" horiz-adv-x="1294" 
d="M682 -512l100 631q-137 -137 -327 -137q-197 0 -310.5 151t-78.5 373q37 226 190.5 376t355.5 150q187 0 293 -139l19 121h331l-241 -1526h-332zM580 266q95 0 171 69t91 171q19 105 -36 174.5t-151 69.5q-97 0 -172 -69t-92 -175q-17 -102 38 -171t151 -69z" />
    <glyph glyph-name="r" unicode="r" horiz-adv-x="874" 
d="M39 0l160 1014h331l-20 -127q139 148 412 145l-56 -346q-62 41 -147 41q-105 0 -182 -77.5t-97 -205.5l-69 -444h-332z" />
    <glyph glyph-name="s" unicode="s" horiz-adv-x="1046" 
d="M434 -39q-158 0 -279 83.5t-143 211.5l297 88q14 -57 59 -89t117 -32q62 0 105.5 26t50.5 70q5 28 -17 43t-65 21t-91 9.5t-108 14.5t-104 31q-169 79 -137 262q26 148 164.5 246t314.5 98q162 0 263 -76.5t120 -203.5l-291 -78q-3 54 -37 84.5t-90 30.5q-55 0 -95.5 -27
t-45.5 -65q-4 -32 19 -50.5t67.5 -26t93 -12t107.5 -14t100 -26.5q179 -77 149 -265q-26 -164 -166.5 -259t-357.5 -95z" />
    <glyph glyph-name="t" unicode="t" horiz-adv-x="929" 
d="M563 -4q-187 0 -280.5 107t-63.5 278l55 348h-206l47 285h204l48 295h325l-47 -295h279l-45 -285h-277l-47 -291q-12 -78 27.5 -122t119.5 -44q52 0 113 23l-43 -264q-106 -35 -209 -35z" />
    <glyph glyph-name="u" unicode="u" horiz-adv-x="1275" 
d="M451 -12q-87 0 -160 33.5t-124.5 95.5t-72.5 157.5t-2 210.5l84 529h332l-80 -492q-20 -121 22.5 -188.5t135.5 -67.5q96 0 159 69t82 189l80 490h332l-162 -1014h-327l20 119h-4q-124 -131 -315 -131z" />
    <glyph glyph-name="v" unicode="v" horiz-adv-x="1181" 
d="M328 0l-242 1014h328l137 -684l340 684h364l-563 -1014h-364z" />
    <glyph glyph-name="w" unicode="w" horiz-adv-x="1863" 
d="M291 0l-197 1014h328l90 -649l315 649h344l113 -649l279 649h364l-508 -1014h-332l-131 633l-319 -633h-346z" />
    <glyph glyph-name="x" unicode="x" horiz-adv-x="1163" 
d="M-70 0l449 516l-289 498h385l135 -277l215 277h408l-445 -498l285 -516h-385l-133 297l-221 -297h-404z" />
    <glyph glyph-name="y" unicode="y" horiz-adv-x="1179" 
d="M-63 -512l53 324q123 0 200 33.5t125 113.5l33 57l-262 998h328l139 -680l332 680h368l-643 -1157q-79 -140 -179.5 -222.5t-217.5 -114.5t-276 -32z" />
    <glyph glyph-name="z" unicode="z" horiz-adv-x="1110" 
d="M-10 0l47 303l579 428h-485l45 283h940l-45 -289l-582 -442h533l-45 -283h-987z" />
    <glyph glyph-name="braceleft" unicode="{" horiz-adv-x="557" 
d="M680 1624h33l-39 -252h-12q-47 0 -75 -41.5t-37.5 -105.5t-20.5 -143t-22.5 -150t-44 -130.5t-83.5 -82.5q35 -26 45 -87t-1 -133t-22 -150.5t-18.5 -142t9.5 -104.5t63 -41h12l-41 -251h-33q-80 0 -136 22t-84 60t-41.5 88.5t-10 107.5t11 117t20.5 117t19.5 107.5
t7 88.5t-15.5 60t-49 22h-37l37 236h39q45 0 74.5 27t43.5 72.5t21.5 104.5t14.5 124.5t17.5 131t35 124.5t62 104.5t103 72.5t154.5 27z" />
    <glyph glyph-name="bar" unicode="|" horiz-adv-x="495" 
d="M-41 -410l324 2048h288l-323 -2048h-289z" />
    <glyph glyph-name="braceright" unicode="}" horiz-adv-x="555" 
d="M506 836h39l-37 -236h-37q-36 0 -59.5 -27t-35 -72.5t-19.5 -105t-17 -125t-22.5 -131t-41.5 -125t-68.5 -105t-108 -72.5t-156.5 -27h-33l39 251h12q40 0 66.5 31t39.5 82t21.5 113.5t17.5 129.5t23 126.5t42.5 108t70.5 69.5q-41 24 -53 84t-0.5 131t25 149t23.5 141.5
t-5.5 104.5t-61.5 41h-12l39 252h32q89 0 146 -27t80.5 -72.5t29 -104.5t-4.5 -124.5t-23.5 -131t-24.5 -124.5t-11.5 -104.5t20 -72.5t65.5 -27z" />
    <glyph glyph-name="asciitilde" unicode="~" horiz-adv-x="1388" 
d="M252 383l-199 176q56 119 186.5 199t260.5 80q61 0 125 -19t109 -41.5t103.5 -41.5t110.5 -19q68 0 119.5 38.5t106.5 123.5l198 -183q-64 -122 -189.5 -201t-264.5 -79q-71 0 -134.5 18.5t-104 41t-96.5 41t-114 18.5q-132 0 -217 -152z" />
    <glyph glyph-name="uni00A0" unicode="&#xa0;" horiz-adv-x="620" 
 />
    <glyph glyph-name="exclamdown" unicode="&#xa1;" horiz-adv-x="491" 
d="M272 682q-73 0 -119.5 53.5t-35.5 122.5q12 77 75.5 131.5t139.5 54.5q75 0 120 -54t33 -132q-9 -69 -73.5 -122.5t-139.5 -53.5zM-74 -414l154 967h348l-154 -967h-348z" />
    <glyph glyph-name="cent" unicode="&#xa2;" horiz-adv-x="1232" 
d="M457 -158l24 146q-184 31 -287.5 178t-74.5 342q32 196 182 343.5t344 176.5l27 172h159l-26 -170q119 -17 209.5 -87t132.5 -175l-305 -156q-10 31 -34.5 52.5t-55.5 29.5l-60 -372q74 15 123 88l260 -146q-76 -111 -191 -185t-245 -93l-25 -144h-157zM535 332l55 354
q-56 -17 -98 -66.5t-52 -111.5q-9 -63 17.5 -111t77.5 -65z" />
    <glyph glyph-name="sterling" unicode="&#xa3;" horiz-adv-x="1122" 
d="M-37 0l45 285q188 155 230 297h-154l39 233h133q-7 94 -2 191q5 96 40 178.5t95 144.5t151 97.5t203 35.5q140 0 243.5 -75t133.5 -191l-313 -143q-3 46 -32.5 76t-78.5 30q-61 0 -99 -41t-42 -123l-6 -180h409l-38 -233h-424q-55 -167 -191 -297h717l-45 -285h-1014z
" />
    <glyph glyph-name="currency" unicode="&#xa4;" horiz-adv-x="1261" 
d="M203 225l-140 168l175 150q-46 105 -27 231.5t98 231.5l-125 149l195 166l125 -147q116 63 242 63t221 -63l172 147l143 -164l-174 -151q48 -105 27.5 -232.5t-101.5 -232.5l127 -148l-194 -168l-127 150q-116 -63 -241 -63t-220 63zM502 627q52 -61 138 -61.5t157 61.5
q69 62 83.5 147.5t-36.5 147.5t-137.5 62t-157.5 -62q-71 -63 -85 -148t38 -147z" />
    <glyph glyph-name="yen" unicode="&#xa5;" horiz-adv-x="1478" 
d="M483 0l49 305h-272l25 150h270l14 86h-272l25 149h198l-307 744h381l201 -502l350 502h416l-543 -744h190l-24 -149h-271l-14 -86h272l-24 -150h-270l-50 -305h-344z" />
    <glyph glyph-name="brokenbar" unicode="&#xa6;" horiz-adv-x="495" 
d="M150 791l133 847h288l-133 -847h-288zM-41 -410l133 848h289l-133 -848h-289z" />
    <glyph glyph-name="section" unicode="&#xa7;" horiz-adv-x="729" 
d="M514 492l-152 120q123 91 115 181q-3 37 -25.5 76t-48.5 69.5t-52 79t-36 100.5q-19 93 35 197t150 164l162 -117q-110 -93 -101 -182q4 -37 38 -87t69.5 -112t42.5 -127q13 -92 -46.5 -197.5t-150.5 -164.5zM291 -47l-160 117q113 86 102 178q-3 37 -24 75.5t-46 68.5
t-48.5 78.5t-30.5 102.5q-12 95 44.5 202.5t147.5 168.5l158 -121q-131 -108 -123 -190q4 -36 39.5 -85.5t75.5 -111.5t51 -127q18 -90 -37.5 -194t-148.5 -162z" />
    <glyph glyph-name="dieresis" unicode="&#xa8;" horiz-adv-x="665" 
d="M248 1196q-57 0 -91.5 40.5t-25.5 98.5q9 53 55.5 92t102.5 39t89.5 -39t24.5 -92q-9 -58 -54 -98.5t-101 -40.5zM641 1196q-59 0 -93.5 40t-25.5 97q9 55 56 94t106 39q54 0 88 -39t25 -94q-9 -57 -54.5 -97t-101.5 -40z" />
    <glyph glyph-name="copyright" unicode="&#xa9;" horiz-adv-x="1474" 
d="M631 -168q-134 0 -250 53.5t-193.5 143.5t-113 215.5t-13.5 263.5q22 139 93 263.5t174 215.5t237.5 144t278.5 53q180 0 321 -88.5t209 -245t39 -342.5t-141 -340.5t-281.5 -245t-359.5 -90.5zM666 61q187 0 338 130.5t180 316.5t-81 316t-296 130q-122 0 -234 -59.5
t-187.5 -162t-94.5 -224.5q-29 -186 80 -316.5t295 -130.5zM668 143q-143 0 -235 106.5t-68 254.5q23 154 143.5 260t275.5 106q96 0 174.5 -51t112.5 -135l-201 -102q-12 37 -44 58.5t-76 21.5q-63 0 -115 -46t-62 -112q-10 -64 27 -109t100 -45q44 0 84.5 23t65.5 61
l172 -96q-61 -91 -151.5 -143t-202.5 -52z" />
    <glyph glyph-name="ordfeminine" unicode="&#xaa;" horiz-adv-x="1292" 
d="M451 -18q-127 0 -223.5 68.5t-140.5 190t-21 267.5q36 226 189.5 375t358.5 149q191 0 289 -141l19 123h331l-159 -1014h-332l18 115q-127 -133 -329 -133zM575 266q98 0 174 68t93 174q19 103 -36 172.5t-153 69.5q-95 0 -170 -69t-94 -173q-17 -103 37 -172.5
t149 -69.5z" />
    <glyph glyph-name="guillemotleft" unicode="&#xab;" horiz-adv-x="1091" 
d="M414 209l-322 366l438 367l136 -160l-254 -207l178 -198zM840 209l-322 366l436 367l138 -160l-254 -207l178 -198z" />
    <glyph glyph-name="logicalnot" unicode="&#xac;" horiz-adv-x="987" 
d="M608 330l35 217h-543l37 227h799l-74 -444h-254z" />
    <glyph glyph-name="uni00AD" unicode="&#xad;" horiz-adv-x="892" 
d="M45 408l49 301h768l-47 -301h-770z" />
    <glyph glyph-name="registered" unicode="&#xae;" horiz-adv-x="739" 
d="M453 1022q-124 0 -202 90.5t-58 216.5q20 130 122 219.5t236 89.5q126 0 203 -90t55 -219q-21 -129 -122 -218t-234 -89zM465 1102q95 0 173 66.5t91 160.5q17 100 -39 165t-151 65q-97 0 -174.5 -65t-92.5 -165q-15 -94 41.5 -160.5t151.5 -66.5zM362 1169l52 336h129
q49 0 75.5 -30.5t18.5 -77.5q-6 -36 -27.5 -62t-54.5 -37l37 -129h-70l-30 121h-48l-18 -121h-64zM455 1348h57q55 0 66 49q3 27 -10.5 38t-39.5 11h-57z" />
    <glyph glyph-name="macron" unicode="&#xaf;" horiz-adv-x="542" 
d="M115 1233l32 197h541l-31 -197h-542z" />
    <glyph glyph-name="degree" unicode="&#xb0;" horiz-adv-x="522" 
d="M362 1130q-81 0 -131.5 58.5t-37.5 142.5q14 85 78.5 142t152.5 57q81 0 131 -58t37 -141q-14 -86 -78.5 -143.5t-151.5 -57.5zM383 1268q26 0 47 17.5t25 45.5q5 25 -10.5 43.5t-41.5 18.5t-47 -18.5t-26 -43.5q-4 -27 11 -45t42 -18z" />
    <glyph glyph-name="plusminus" unicode="&#xb1;" horiz-adv-x="1017" 
d="M362 498l41 262h-260l45 284h263l41 263h288l-41 -263h262l-45 -284h-264l-41 -262h-289zM45 145l45 285h811l-45 -285h-811z" />
    <glyph glyph-name="uni00B2" unicode="&#xb2;" horiz-adv-x="577" 
d="M74 809l22 133l234 180q108 83 131 107q33 35 39 71q6 39 -13.5 61.5t-54.5 22.5q-37 0 -66.5 -22.5t-39.5 -63.5l-164 21q32 105 112 164t185 59q108 0 167 -60t42 -165q-13 -78 -63.5 -140t-147.5 -130l-115 -89h272l-22 -147z" />
    <glyph glyph-name="uni00B3" unicode="&#xb3;" horiz-adv-x="593" 
d="M336 793q-108 0 -173 57t-63 147l176 23q-2 -33 21.5 -54.5t62.5 -21.5t69 23t36 63q5 36 -16.5 60t-83.5 24h-23l20 121h21q99 0 113 82q6 32 -12.5 53t-49.5 21q-68 0 -92 -66l-166 21q28 82 103 138t176 56q111 0 170 -59.5t45 -145.5q-9 -55 -46.5 -93.5t-91.5 -57.5
q53 -11 85.5 -56t23.5 -106q-15 -99 -102 -164t-203 -65z" />
    <glyph glyph-name="acute" unicode="&#xb4;" horiz-adv-x="395" 
d="M106 1182l189 299h254l-225 -299h-218z" />
    <glyph glyph-name="uni00B5" unicode="&#xb5;" horiz-adv-x="1363" 
d="M-63 -512l239 1526h332l-76 -490q-20 -122 21.5 -190t132.5 -68q97 0 160 67t83 191l78 490h330l-12 -82l-68 -434q-7 -46 -8 -82t3.5 -60t14.5 -41.5t24 -26.5t32 -14.5t38.5 -5.5h43.5l-43 -270q-58 -4 -80 -4q-258 0 -330 172q-57 -84 -142 -130t-182 -46
q-130 0 -190 84l-92 -586h-309z" />
    <glyph glyph-name="paragraph" unicode="&#xb6;" horiz-adv-x="1306" 
d="M389 -410l143 902q-148 1 -244.5 63.5t-132.5 167.5t-14 242q36 221 182.5 345t356.5 124h706l-290 -1844h-271l248 1584h-164l-247 -1584h-273z" />
    <glyph glyph-name="periodcentered" unicode="&#xb7;" horiz-adv-x="491" 
d="M225 371q-75 0 -121 54t-34 132q11 71 74.5 123.5t138.5 52.5q74 0 120.5 -53t34.5 -123q-12 -77 -74.5 -131.5t-138.5 -54.5z" />
    <glyph glyph-name="cedilla" unicode="&#xb8;" horiz-adv-x="448" 
d="M74 -436q-78 -1 -131.5 32t-73.5 87l108 67q28 -60 99 -57q41 0 68.5 22.5t33.5 55.5q7 50 -49.5 70.5t-134.5 -1.5l72 195h133l-35 -84q83 2 131.5 -50t36.5 -130q-14 -90 -83.5 -148.5t-174.5 -58.5z" />
    <glyph glyph-name="uni00B9" unicode="&#xb9;" horiz-adv-x="378" 
d="M170 809l80 508q-45 -21 -103 -21l23 152q90 0 113 78h174l-113 -717h-174z" />
    <glyph glyph-name="ordmasculine" unicode="&#xba;" horiz-adv-x="1236" 
d="M532 -29q-105 0 -198 40.5t-157.5 110.5t-94.5 171.5t-12 214.5q38 240 217 391.5t418 151.5q155 0 270 -75.5t164.5 -199.5t27.5 -268q-38 -239 -214 -388t-421 -149zM580 272q92 -1 166.5 66.5t91.5 167.5q15 102 -38 168.5t-145 66.5q-92 2 -166.5 -65.5t-89.5 -169.5
q-15 -99 37.5 -166.5t143.5 -67.5z" />
    <glyph glyph-name="guillemotright" unicode="&#xbb;" horiz-adv-x="1093" 
d="M160 209l-137 160l253 206l-178 199l176 168l322 -367zM584 209l-135 160l253 206l-178 199l176 168l322 -367z" />
    <glyph glyph-name="onequarter" unicode="&#xbc;" horiz-adv-x="1437" 
d="M-125 -164l1417 1864h172l-1417 -1864h-172zM158 727l82 508q-46 -21 -105 -21l23 152q91 0 114 78h174l-112 -717h-176zM1087 -10l19 121h-340l22 139l232 457h180l-231 -457h159l41 268h166l-41 -268h86l-22 -139h-86l-19 -121h-166z" />
    <glyph glyph-name="onehalf" unicode="&#xbd;" horiz-adv-x="1390" 
d="M-125 -164l1417 1864h172l-1417 -1864h-172zM158 727l82 508q-46 -21 -105 -21l23 152q91 0 114 78h174l-112 -717h-176zM756 -10l22 133l234 180q108 83 131 107q33 35 39 71q6 39 -13.5 61.5t-54.5 22.5q-37 0 -66.5 -22.5t-39.5 -63.5l-164 21q32 105 112 164t185 59
q108 0 167 -60t42 -165q-13 -78 -63.5 -140.5t-147.5 -130.5l-115 -88h272l-22 -147z" />
    <glyph glyph-name="threequarters" unicode="&#xbe;" horiz-adv-x="1611" 
d="M47 -164l1417 1864h172l-1417 -1864h-172zM324 711q-108 0 -173 57t-63 147l176 23q-2 -33 21.5 -54.5t62.5 -21.5t69 23t36 63q5 36 -17 60t-84 24h-22l20 121h21q98 0 112 82q6 32 -12 53t-49 21q-68 0 -92 -66l-166 21q28 83 102.5 138.5t175.5 55.5q111 0 170 -59.5
t45 -145.5q-9 -55 -46.5 -93.5t-90.5 -57.5q53 -11 85.5 -56t23.5 -106q-15 -99 -102 -164t-203 -65zM1262 -10l18 121h-340l23 139l231 457h180l-231 -457h160l40 268h166l-41 -268h86l-22 -139h-86l-19 -121h-165z" />
    <glyph glyph-name="questiondown" unicode="&#xbf;" horiz-adv-x="1171" 
d="M668 705q-73 0 -120 52.5t-36 123.5q12 77 75.5 131.5t137.5 54.5q75 0 121.5 -54t36.5 -132q-12 -71 -76 -123.5t-139 -52.5zM446 -414q-143 0 -254.5 53.5t-168.5 155t-37 230.5q11 69 42 127t72.5 97.5t89.5 73.5t95 63.5t87.5 59t69 68.5t35.5 84h344
q-14 -85 -46 -151t-72 -105.5t-86 -70t-91 -53.5t-82.5 -46t-64 -57.5t-33.5 -79.5q-8 -62 32 -105t126 -43q67 0 122 38.5t83 101.5l311 -97q-74 -155 -226 -249.5t-348 -94.5z" />
    <glyph glyph-name="Agrave" unicode="&#xc0;" horiz-adv-x="1527" 
d="M829 1602l-155 299h260l110 -299h-215zM-72 0l799 1434h360l355 -1434h-365l-47 215h-596l-115 -215h-391zM594 528h373l-109 506h-6z" />
    <glyph glyph-name="Aacute" unicode="&#xc1;" horiz-adv-x="1527" 
d="M825 1602l189 299h254l-226 -299h-217zM-72 0l799 1434h360l355 -1434h-365l-47 215h-596l-115 -215h-391zM594 528h373l-109 506h-6z" />
    <glyph glyph-name="Acircumflex" unicode="&#xc2;" horiz-adv-x="1527" 
d="M600 1606l264 292h236l168 -292h-232l-78 147l-127 -147h-231zM-72 0l799 1434h360l355 -1434h-365l-47 215h-596l-115 -215h-391zM594 528h373l-109 506h-6z" />
    <glyph glyph-name="Atilde" unicode="&#xc3;" horiz-adv-x="1527" 
d="M823 1634q-51 0 -99.5 30t-70.5 67l111 118q40 -43 92 -43q42 0 115.5 32t122.5 32q105 0 170 -101l-111 -118q-32 47 -96 47q-37 0 -111.5 -32t-122.5 -32zM-72 0l799 1434h360l355 -1434h-365l-47 215h-596l-115 -215h-391zM594 528h373l-109 506h-6z" />
    <glyph glyph-name="Adieresis" unicode="&#xc4;" horiz-adv-x="1527" 
d="M743 1616q-57 0 -91 40.5t-25 98.5q9 53 55 92t102 39q57 0 90.5 -39t24.5 -92q-9 -58 -54.5 -98.5t-101.5 -40.5zM1137 1616q-59 0 -93.5 40t-25.5 97q9 55 56 94t106 39q54 0 87.5 -39t24.5 -94q-9 -57 -54.5 -97t-100.5 -40zM-72 0l799 1434h360l355 -1434h-365
l-47 215h-596l-115 -215h-391zM594 528h373l-109 506h-6z" />
    <glyph glyph-name="Aring" unicode="&#xc5;" horiz-adv-x="1527" 
d="M932 1583q-70 0 -111 50t-30 120q11 68 66.5 117t127.5 49q67 0 108.5 -50t30.5 -116q-11 -70 -65.5 -120t-126.5 -50zM950 1698q22 0 39.5 15.5t20.5 37.5q4 21 -9 37t-34 16q-23 0 -41 -15.5t-21 -37.5q-5 -22 8.5 -37.5t36.5 -15.5zM-72 0l799 1434h360l355 -1434
h-365l-47 215h-596l-115 -215h-391zM594 528h373l-109 506h-6z" />
    <glyph glyph-name="AE" unicode="&#xc6;" horiz-adv-x="2078" 
d="M-72 0l975 1434h1256l-48 -312h-690l-39 -248h666l-47 -311h-668l-41 -252h690l-49 -311h-1038l35 225h-424l-150 -225h-428zM707 539h274l84 540z" />
    <glyph glyph-name="Ccedilla" unicode="&#xc7;" horiz-adv-x="1501" 
d="M770 328q109 0 207 53.5t160 144.5l286 -157q-121 -178 -280.5 -278t-378.5 -109l-12 -31q83 2 131.5 -50t36.5 -130q-14 -90 -83.5 -148.5t-174.5 -58.5q-78 -1 -131.5 32t-73.5 87l108 67q28 -60 99 -57q41 0 68.5 22.5t33.5 55.5q7 50 -49.5 70.5t-134.5 -1.5l53 144
q-128 16 -238 80t-183.5 160t-105.5 225t-10 268q25 153 100.5 288.5t186.5 234.5t258 156.5t307 57.5q198 0 357.5 -105.5t224.5 -277.5l-336 -158q-36 88 -116 140.5t-187 52.5q-161 0 -289 -113.5t-153 -275.5q-26 -162 66 -275.5t253 -113.5z" />
    <glyph glyph-name="Egrave" unicode="&#xc8;" horiz-adv-x="1230" 
d="M723 1602l-156 299h260l111 -299h-215zM51 0l225 1434h1037l-49 -306h-689l-40 -260h673l-45 -297h-674l-43 -266h691l-50 -305h-1036z" />
    <glyph glyph-name="Eacute" unicode="&#xc9;" horiz-adv-x="1230" 
d="M719 1602l188 299h254l-225 -299h-217zM51 0l225 1434h1037l-49 -306h-689l-40 -260h673l-45 -297h-674l-43 -266h691l-50 -305h-1036z" />
    <glyph glyph-name="Ecircumflex" unicode="&#xca;" horiz-adv-x="1230" 
d="M496 1606l264 292h235l168 -292h-231l-78 147l-127 -147h-231zM51 0l225 1434h1037l-49 -306h-689l-40 -260h673l-45 -297h-674l-43 -266h691l-50 -305h-1036z" />
    <glyph glyph-name="Edieresis" unicode="&#xcb;" horiz-adv-x="1230" 
d="M637 1616q-57 0 -91.5 40.5t-25.5 98.5q9 53 55.5 92t102.5 39q57 0 90.5 -39t24.5 -92q-9 -58 -54.5 -98.5t-101.5 -40.5zM1030 1616q-59 0 -93.5 40t-25.5 97q9 55 56 94t106 39q54 0 88 -39t25 -94q-9 -57 -54.5 -97t-101.5 -40zM51 0l225 1434h1037l-49 -306h-689
l-40 -260h673l-45 -297h-674l-43 -266h691l-50 -305h-1036z" />
    <glyph glyph-name="Igrave" unicode="&#xcc;" horiz-adv-x="606" 
d="M369 1602l-156 299h260l111 -299h-215zM51 0l225 1434h349l-226 -1434h-348z" />
    <glyph glyph-name="Iacute" unicode="&#xcd;" horiz-adv-x="606" 
d="M365 1602l188 299h254l-225 -299h-217zM51 0l225 1434h349l-226 -1434h-348z" />
    <glyph glyph-name="Icircumflex" unicode="&#xce;" horiz-adv-x="606" 
d="M139 1606l264 292h236l168 -292h-232l-77 147l-127 -147h-232zM51 0l225 1434h349l-226 -1434h-348z" />
    <glyph glyph-name="Idieresis" unicode="&#xcf;" horiz-adv-x="606" 
d="M283 1616q-57 0 -91.5 40.5t-25.5 98.5q9 53 55.5 92t102.5 39t89.5 -39t24.5 -92q-9 -58 -54 -98.5t-101 -40.5zM676 1616q-59 0 -93.5 40t-25.5 97q9 55 56 94t106 39q54 0 87.5 -39t24.5 -94q-9 -57 -54.5 -97t-100.5 -40zM51 0l225 1434h349l-226 -1434h-348z" />
    <glyph glyph-name="Eth" unicode="&#xd0;" horiz-adv-x="1501" 
d="M850 1436q106 0 205 -29.5t183.5 -89.5t143 -144t82 -201.5t2.5 -252.5q-27 -171 -100.5 -308t-180.5 -226.5t-242 -137t-288 -47.5h-606l96 602h-118l34 229h119l96 603zM1122 719q15 98 -4.5 173t-68 119.5t-115 66.5t-150.5 22l-213 -2l-43 -267h310l-35 -229h-309
l-43 -266h229q172 0 291.5 95t150.5 288z" />
    <glyph glyph-name="Ntilde" unicode="&#xd1;" horiz-adv-x="1562" 
d="M827 1634q-50 0 -98 29.5t-72 67.5l113 118q34 -43 92 -43q41 0 114.5 32t121.5 32q107 0 172 -101l-111 -118q-32 47 -96 47q-37 0 -112 -32t-124 -32zM51 0l225 1434h363l453 -908l139 908h348l-225 -1434h-363l-452 907l-140 -907h-348z" />
    <glyph glyph-name="Ograve" unicode="&#xd2;" horiz-adv-x="1603" 
d="M868 1602l-155 299h260l110 -299h-215zM717 -20q-97 0 -187 26.5t-163 74t-132 115t-93.5 149t-48 176t4.5 196.5q25 152 100 287t185.5 234.5t258 157.5t308.5 58q97 0 187 -26.5t163 -74t132 -115t93.5 -149t48 -176t-4.5 -196.5q-25 -153 -97 -287t-180.5 -234.5
t-257 -158t-317.5 -57.5zM770 319q164 0 293.5 115t157.5 283q26 168 -67 282.5t-257 114.5q-165 0 -294 -114.5t-157 -282.5t65.5 -283t258.5 -115z" />
    <glyph glyph-name="Oacute" unicode="&#xd3;" horiz-adv-x="1603" 
d="M864 1602l189 299h254l-226 -299h-217zM717 -20q-97 0 -187 26.5t-163 74t-132 115t-93.5 149t-48 176t4.5 196.5q25 152 100 287t185.5 234.5t258 157.5t308.5 58q97 0 187 -26.5t163 -74t132 -115t93.5 -149t48 -176t-4.5 -196.5q-25 -153 -97 -287t-180.5 -234.5
t-257 -158t-317.5 -57.5zM770 319q164 0 293.5 115t157.5 283q26 168 -67 282.5t-257 114.5q-165 0 -294 -114.5t-157 -282.5t65.5 -283t258.5 -115z" />
    <glyph glyph-name="Ocircumflex" unicode="&#xd4;" horiz-adv-x="1603" 
d="M639 1606l264 292h236l168 -292h-232l-78 147l-127 -147h-231zM717 -20q-97 0 -187 26.5t-163 74t-132 115t-93.5 149t-48 176t4.5 196.5q25 152 100 287t185.5 234.5t258 157.5t308.5 58q97 0 187 -26.5t163 -74t132 -115t93.5 -149t48 -176t-4.5 -196.5
q-25 -153 -97 -287t-180.5 -234.5t-257 -158t-317.5 -57.5zM770 319q164 0 293.5 115t157.5 283q26 168 -67 282.5t-257 114.5q-165 0 -294 -114.5t-157 -282.5t65.5 -283t258.5 -115z" />
    <glyph glyph-name="Otilde" unicode="&#xd5;" horiz-adv-x="1603" 
d="M862 1634q-51 0 -99.5 30t-70.5 67l111 118q40 -43 92 -43q42 0 115.5 32t122.5 32q105 0 170 -101l-111 -118q-32 47 -96 47q-37 0 -111.5 -32t-122.5 -32zM717 -20q-97 0 -187 26.5t-163 74t-132 115t-93.5 149t-48 176t4.5 196.5q25 152 100 287t185.5 234.5
t258 157.5t308.5 58q97 0 187 -26.5t163 -74t132 -115t93.5 -149t48 -176t-4.5 -196.5q-25 -153 -97 -287t-180.5 -234.5t-257 -158t-317.5 -57.5zM770 319q164 0 293.5 115t157.5 283q26 168 -67 282.5t-257 114.5q-165 0 -294 -114.5t-157 -282.5t65.5 -283t258.5 -115z
" />
    <glyph glyph-name="Odieresis" unicode="&#xd6;" horiz-adv-x="1603" 
d="M782 1616q-57 0 -91 40.5t-25 98.5q9 53 55 92t102 39q57 0 90.5 -39t24.5 -92q-9 -58 -54.5 -98.5t-101.5 -40.5zM1176 1616q-59 0 -93.5 40t-25.5 97q9 55 56 94t106 39q54 0 87.5 -39t24.5 -94q-9 -57 -54.5 -97t-100.5 -40zM717 -20q-97 0 -187 26.5t-163 74
t-132 115t-93.5 149t-48 176t4.5 196.5q25 152 100 287t185.5 234.5t258 157.5t308.5 58q97 0 187 -26.5t163 -74t132 -115t93.5 -149t48 -176t-4.5 -196.5q-25 -153 -97 -287t-180.5 -234.5t-257 -158t-317.5 -57.5zM770 319q164 0 293.5 115t157.5 283q26 168 -67 282.5
t-257 114.5q-165 0 -294 -114.5t-157 -282.5t65.5 -283t258.5 -115z" />
    <glyph glyph-name="multiply" unicode="&#xd7;" horiz-adv-x="952" 
d="M262 291l-176 211l215 186l-151 176l227 195l149 -176l224 190l174 -209l-224 -190l158 -187l-225 -196l-156 186z" />
    <glyph glyph-name="Oslash" unicode="&#xd8;" horiz-adv-x="1603" 
d="M1339 1325q134 -102 197 -262.5t33 -345.5q-25 -153 -97 -287t-180.5 -234.5t-257 -158t-317.5 -57.5q-114 0 -215 34l-78 -123h-236l140 218q-134 102 -197 262.5t-33 345.5q25 152 100 287t185.5 234.5t258 157.5t308.5 58q112 0 215 -35l78 123h236zM446 717
q-29 -178 78 -299l443 690q-35 6 -70 6q-165 0 -294 -114.5t-157 -282.5zM1221 717q13 89 -8 166t-72 131l-441 -688q40 -7 70 -7q164 0 293.5 115t157.5 283z" />
    <glyph glyph-name="Ugrave" unicode="&#xd9;" horiz-adv-x="1501" 
d="M805 1602l-156 299h260l111 -299h-215zM670 -20q-131 0 -242 47.5t-184.5 128.5t-106 195t-12.5 241l133 842h348l-121 -775q-14 -69 -5 -131.5t33.5 -109.5t78.5 -75t131 -28q145 0 232.5 97.5t109.5 246.5l123 775h348l-133 -842q-44 -287 -240.5 -449.5t-492.5 -162.5
z" />
    <glyph glyph-name="Uacute" unicode="&#xda;" horiz-adv-x="1501" 
d="M801 1602l188 299h254l-225 -299h-217zM670 -20q-131 0 -242 47.5t-184.5 128.5t-106 195t-12.5 241l133 842h348l-121 -775q-14 -69 -5 -131.5t33.5 -109.5t78.5 -75t131 -28q145 0 232.5 97.5t109.5 246.5l123 775h348l-133 -842q-44 -287 -240.5 -449.5t-492.5 -162.5
z" />
    <glyph glyph-name="Ucircumflex" unicode="&#xdb;" horiz-adv-x="1501" 
d="M575 1606l265 292h235l168 -292h-231l-78 147l-127 -147h-232zM670 -20q-131 0 -242 47.5t-184.5 128.5t-106 195t-12.5 241l133 842h348l-121 -775q-14 -69 -5 -131.5t33.5 -109.5t78.5 -75t131 -28q145 0 232.5 97.5t109.5 246.5l123 775h348l-133 -842
q-44 -287 -240.5 -449.5t-492.5 -162.5z" />
    <glyph glyph-name="Udieresis" unicode="&#xdc;" horiz-adv-x="1501" 
d="M719 1616q-57 0 -91.5 40.5t-25.5 98.5q9 53 55.5 92t102.5 39t89.5 -39t24.5 -92q-9 -58 -54 -98.5t-101 -40.5zM1112 1616q-59 0 -93.5 40t-25.5 97q9 55 56 94t106 39q54 0 88 -39t25 -94q-9 -57 -54.5 -97t-101.5 -40zM670 -20q-131 0 -242 47.5t-184.5 128.5
t-106 195t-12.5 241l133 842h348l-121 -775q-14 -69 -5 -131.5t33.5 -109.5t78.5 -75t131 -28q145 0 232.5 97.5t109.5 246.5l123 775h348l-133 -842q-44 -287 -240.5 -449.5t-492.5 -162.5z" />
    <glyph glyph-name="Yacute" unicode="&#xdd;" horiz-adv-x="1380" 
d="M721 1602l188 299h254l-225 -299h-217zM438 0l86 567l-368 867h376l207 -535l348 535h433l-648 -867l-86 -567h-348z" />
    <glyph glyph-name="Thorn" unicode="&#xde;" horiz-adv-x="1265" 
d="M51 0l225 1434h349l-37 -238h241q95 0 178 -32.5t143 -91.5t87.5 -151.5t9.5 -203.5q-17 -112 -69.5 -203.5t-129 -151.5t-171.5 -92t-199 -32h-244l-35 -238h-348zM485 549h213q82 0 137.5 44t67.5 124t-29 124t-122 44h-215z" />
    <glyph glyph-name="germandbls" unicode="&#xdf;" horiz-adv-x="1552" 
d="M969 -20q-156 3 -268 77t-138 217l293 80q5 -50 40 -82t97 -32q69 0 109 30t45 82q3 31 -24 56.5t-72 45.5t-99.5 41t-107 49t-94 63.5t-62.5 91.5t-10 126q8 52 35 107.5t56 95.5t55.5 89.5t33.5 90.5q6 40 -18 67.5t-72 27.5q-47 0 -80.5 -30.5t-42.5 -86.5l-186 -1186
h-332l115 729h-166l45 285h166l24 157q28 183 163 294.5t337 111.5q199 0 298 -102t75 -256q-10 -61 -30.5 -111.5t-43.5 -83t-45.5 -60t-40.5 -58t-23 -62.5q-7 -42 18.5 -73t70 -50.5t100 -38t109.5 -45t96.5 -62t63.5 -97t9 -142.5q-19 -121 -96 -204t-180 -118.5
t-223 -33.5z" />
    <glyph glyph-name="agrave" unicode="&#xe0;" horiz-adv-x="1292" 
d="M657 1182l-155 299h260l110 -299h-215zM451 -18q-127 0 -223.5 68.5t-140.5 190t-21 267.5q36 226 189.5 375t358.5 149q191 0 289 -141l19 123h331l-159 -1014h-332l18 115q-127 -133 -329 -133zM575 266q98 0 174 68t93 174q19 103 -36 172.5t-153 69.5q-95 0 -170 -69
t-94 -173q-17 -103 37 -172.5t149 -69.5z" />
    <glyph glyph-name="aacute" unicode="&#xe1;" horiz-adv-x="1292" 
d="M653 1182l189 299h254l-226 -299h-217zM451 -18q-127 0 -223.5 68.5t-140.5 190t-21 267.5q36 226 189.5 375t358.5 149q191 0 289 -141l19 123h331l-159 -1014h-332l18 115q-127 -133 -329 -133zM575 266q98 0 174 68t93 174q19 103 -36 172.5t-153 69.5q-95 0 -170 -69
t-94 -173q-17 -103 37 -172.5t149 -69.5z" />
    <glyph glyph-name="acircumflex" unicode="&#xe2;" horiz-adv-x="1292" 
d="M428 1186l264 293h236l168 -293h-232l-78 147l-127 -147h-231zM451 -18q-127 0 -223.5 68.5t-140.5 190t-21 267.5q36 226 189.5 375t358.5 149q191 0 289 -141l19 123h331l-159 -1014h-332l18 115q-127 -133 -329 -133zM575 266q98 0 174 68t93 174q19 103 -36 172.5
t-153 69.5q-95 0 -170 -69t-94 -173q-17 -103 37 -172.5t149 -69.5z" />
    <glyph glyph-name="atilde" unicode="&#xe3;" horiz-adv-x="1292" 
d="M653 1214q-51 0 -99.5 30t-70.5 67l111 119q40 -44 92 -44q42 0 115.5 32t122.5 32q105 0 170 -100l-111 -119q-32 47 -96 47q-37 0 -111.5 -32t-122.5 -32zM451 -18q-127 0 -223.5 68.5t-140.5 190t-21 267.5q36 226 189.5 375t358.5 149q191 0 289 -141l19 123h331
l-159 -1014h-332l18 115q-127 -133 -329 -133zM575 266q98 0 174 68t93 174q19 103 -36 172.5t-153 69.5q-95 0 -170 -69t-94 -173q-17 -103 37 -172.5t149 -69.5z" />
    <glyph glyph-name="adieresis" unicode="&#xe4;" horiz-adv-x="1292" 
d="M571 1196q-57 0 -91 40.5t-25 98.5q9 53 55 92t102 39q57 0 90.5 -39t24.5 -92q-9 -58 -54.5 -98.5t-101.5 -40.5zM965 1196q-59 0 -93.5 40t-25.5 97q9 55 56 94t106 39q54 0 87.5 -39t24.5 -94q-9 -57 -54.5 -97t-100.5 -40zM451 -18q-127 0 -223.5 68.5t-140.5 190
t-21 267.5q36 226 189.5 375t358.5 149q191 0 289 -141l19 123h331l-159 -1014h-332l18 115q-127 -133 -329 -133zM575 266q98 0 174 68t93 174q19 103 -36 172.5t-153 69.5q-95 0 -170 -69t-94 -173q-17 -103 37 -172.5t149 -69.5z" />
    <glyph glyph-name="aring" unicode="&#xe5;" horiz-adv-x="1292" 
d="M762 1163q-70 0 -111 50t-30 120q11 68 66.5 117t127.5 49q67 0 108.5 -50t30.5 -116q-11 -70 -65.5 -120t-126.5 -50zM780 1278q22 0 39.5 15.5t20.5 37.5q4 21 -9 37t-34 16q-23 0 -41 -15.5t-21 -37.5q-5 -22 8.5 -37.5t36.5 -15.5zM451 -18q-127 0 -223.5 68.5
t-140.5 190t-21 267.5q36 226 189.5 375t358.5 149q191 0 289 -141l19 123h331l-159 -1014h-332l18 115q-127 -133 -329 -133zM575 266q98 0 174 68t93 174q19 103 -36 172.5t-153 69.5q-95 0 -170 -69t-94 -173q-17 -103 37 -172.5t149 -69.5z" />
    <glyph glyph-name="ae" unicode="&#xe6;" horiz-adv-x="2111" 
d="M471 -12q-205 0 -323 145.5t-82 374.5q24 153 108.5 271.5t205 181.5t255.5 63q93 0 166 -32t117 -89l16 111h328l-17 -111q134 123 377 123q69 0 136 -20.5t126.5 -63.5t101 -103t58.5 -146.5t2 -186.5q-8 -56 -16 -90h-740q7 -85 63.5 -130.5t139.5 -45.5
q70 0 138 28.5t112 75.5l172 -166q-84 -95 -206.5 -142.5t-252.5 -47.5q-231 0 -336 131l-20 -119h-328l21 113q-131 -125 -322 -125zM1337 637h422q-8 74 -54.5 117t-121.5 43q-79 0 -145 -43t-101 -117zM592 281q94 0 169.5 65.5t92.5 163.5q13 94 -41.5 158.5
t-146.5 64.5q-96 0 -173 -65.5t-92 -159.5q-15 -96 40 -161.5t151 -65.5z" />
    <glyph glyph-name="ccedilla" unicode="&#xe7;" horiz-adv-x="1073" 
d="M567 274q59 -2 116.5 27t90.5 78l227 -189q-83 -90 -190.5 -147t-226.5 -70l-19 -43q83 2 131.5 -50t36.5 -130q-14 -90 -83.5 -148.5t-174.5 -58.5q-78 -1 -131.5 32t-73.5 87l109 68q28 -61 98 -58q41 0 69 22.5t34 55.5q7 50 -50 71t-135 -1l58 155q-127 18 -224 92.5
t-143 191t-25 249.5q17 111 73.5 211t139.5 173t193 116t229 43q133 0 240.5 -60.5t167.5 -163.5l-289 -190q-22 48 -66 75.5t-102 28.5q-96 1 -170.5 -65.5t-91.5 -169.5q-15 -100 36 -165.5t146 -66.5z" />
    <glyph glyph-name="egrave" unicode="&#xe8;" horiz-adv-x="1206" 
d="M821 1212h-215l-155 299h260zM694 1051q215 0 339.5 -148t107.5 -389q-2 -37 -17 -98h-762q12 -83 70 -129.5t137 -46.5q71 0 136 26.5t110 71.5l195 -168q-90 -96 -216 -147.5t-266 -49.5q-109 1 -202.5 44.5t-156 117.5t-89.5 178.5t-8 221.5q15 100 67 192.5
t130.5 164.5t189.5 115.5t235 43.5zM397 625h459q-16 86 -72 129t-131 43q-78 0 -147.5 -43.5t-108.5 -128.5z" />
    <glyph glyph-name="eacute" unicode="&#xe9;" horiz-adv-x="1206" 
d="M1044 1511l-225 -299h-217l189 299h253zM694 1051q215 0 339.5 -148t107.5 -389q-2 -37 -17 -98h-762q12 -83 70 -129.5t137 -46.5q71 0 136 26.5t110 71.5l195 -168q-90 -96 -216 -147.5t-266 -49.5q-109 1 -202.5 44.5t-156 117.5t-89.5 178.5t-8 221.5
q15 100 67 192.5t130.5 164.5t189.5 115.5t235 43.5zM397 625h459q-16 86 -72 129t-131 43q-78 0 -147.5 -43.5t-108.5 -128.5z" />
    <glyph glyph-name="ecircumflex" unicode="&#xea;" horiz-adv-x="1206" 
d="M735 1364l-127 -147h-231l264 292h236l167 -292h-231zM694 1051q215 0 339.5 -148t107.5 -389q-2 -37 -17 -98h-762q12 -83 70 -129.5t137 -46.5q71 0 136 26.5t110 71.5l195 -168q-90 -96 -216 -147.5t-266 -49.5q-109 1 -202.5 44.5t-156 117.5t-89.5 178.5t-8 221.5
q15 100 67 192.5t130.5 164.5t189.5 115.5t235 43.5zM397 625h459q-16 86 -72 129t-131 43q-78 0 -147.5 -43.5t-108.5 -128.5z" />
    <glyph glyph-name="edieresis" unicode="&#xeb;" horiz-adv-x="1206" 
d="M520 1227q-57 0 -91.5 40.5t-25.5 98.5q9 53 55.5 92t102.5 39q57 0 90.5 -39t24.5 -92q-9 -58 -54.5 -98.5t-101.5 -40.5zM913 1227q-58 0 -92.5 40t-25.5 97q9 56 56 94.5t105 38.5q54 0 88 -39t25 -94q-9 -57 -54.5 -97t-101.5 -40zM694 1051q215 0 339.5 -148
t107.5 -389q-2 -37 -17 -98h-762q12 -83 70 -129.5t137 -46.5q71 0 136 26.5t110 71.5l195 -168q-90 -96 -216 -147.5t-266 -49.5q-109 1 -202.5 44.5t-156 117.5t-89.5 178.5t-8 221.5q15 100 67 192.5t130.5 164.5t189.5 115.5t235 43.5zM397 625h459q-16 86 -72 129
t-131 43q-78 0 -147.5 -43.5t-108.5 -128.5z" />
    <glyph glyph-name="igrave" unicode="&#xec;" horiz-adv-x="532" 
d="M268 1182l-155 299h260l110 -299h-215zM25 0l159 1014h324l-160 -1014h-323z" />
    <glyph glyph-name="iacute" unicode="&#xed;" horiz-adv-x="532" 
d="M264 1182l189 299h254l-226 -299h-217zM25 0l159 1014h324l-160 -1014h-323z" />
    <glyph glyph-name="icircumflex" unicode="&#xee;" horiz-adv-x="532" 
d="M39 1186l264 293h236l168 -293h-232l-78 147l-127 -147h-231zM25 0l159 1014h324l-160 -1014h-323z" />
    <glyph glyph-name="idieresis" unicode="&#xef;" horiz-adv-x="532" 
d="M182 1196q-57 0 -91 40.5t-25 98.5q9 53 55 92t102 39q57 0 90.5 -39t24.5 -92q-9 -58 -54.5 -98.5t-101.5 -40.5zM575 1196q-58 0 -92.5 40t-25.5 97q9 56 56 94.5t105 38.5q54 0 88 -39t25 -94q-9 -57 -54.5 -97t-101.5 -40zM25 0l159 1014h324l-160 -1014h-323z" />
    <glyph glyph-name="eth" unicode="&#xf0;" horiz-adv-x="1179" 
d="M498 -18q-98 0 -185.5 40t-147 106.5t-87.5 160.5t-12 196q34 211 206.5 358.5t384.5 147.5q43 0 85 -15t67 -40q-12 76 -80.5 150.5t-173.5 117.5l-104 -162l-205 82l84 129q-117 16 -236 13l43 270q181 0 352 -29l93 142l202 -76l-96 -152q259 -119 369 -349t63 -523
q-19 -118 -59.5 -212.5t-97.5 -160.5t-131 -110t-157 -64t-177 -20zM545 285q90 0 162 62.5t86 150.5q14 89 -38 151t-141 62t-161.5 -62t-85.5 -151q-14 -88 37.5 -150.5t140.5 -62.5z" />
    <glyph glyph-name="ntilde" unicode="&#xf1;" horiz-adv-x="1275" 
d="M651 1214q-51 0 -99.5 30t-70.5 67l111 119q40 -44 92 -44q42 0 115.5 32t122.5 32q105 0 170 -100l-111 -119q-32 47 -96 47q-37 0 -111.5 -32t-122.5 -32zM37 0l162 1014h331l-18 -113q134 131 305 131q91 0 166.5 -35t126.5 -99t71.5 -160t2.5 -210l-84 -528h-332
l78 500q19 120 -22.5 187t-133.5 67q-94 0 -159.5 -70.5t-84.5 -187.5l-77 -496h-332z" />
    <glyph glyph-name="ograve" unicode="&#xf2;" horiz-adv-x="1236" 
d="M618 1182l-155 299h260l111 -299h-216zM532 -29q-105 0 -198 40.5t-157.5 110.5t-94.5 171.5t-12 214.5q38 240 217 391.5t418 151.5q155 0 270 -75.5t164.5 -199.5t27.5 -268q-38 -239 -214 -388t-421 -149zM580 272q92 -1 166.5 66.5t91.5 167.5q15 102 -38 168.5
t-145 66.5q-92 2 -166.5 -65.5t-89.5 -169.5q-15 -99 37.5 -166.5t143.5 -67.5z" />
    <glyph glyph-name="oacute" unicode="&#xf3;" horiz-adv-x="1236" 
d="M614 1182l189 299h254l-226 -299h-217zM532 -29q-105 0 -198 40.5t-157.5 110.5t-94.5 171.5t-12 214.5q38 240 217 391.5t418 151.5q155 0 270 -75.5t164.5 -199.5t27.5 -268q-38 -239 -214 -388t-421 -149zM580 272q92 -1 166.5 66.5t91.5 167.5q15 102 -38 168.5
t-145 66.5q-92 2 -166.5 -65.5t-89.5 -169.5q-15 -99 37.5 -166.5t143.5 -67.5z" />
    <glyph glyph-name="ocircumflex" unicode="&#xf4;" horiz-adv-x="1236" 
d="M391 1186l264 293h236l168 -293h-232l-77 147l-127 -147h-232zM532 -29q-105 0 -198 40.5t-157.5 110.5t-94.5 171.5t-12 214.5q38 240 217 391.5t418 151.5q155 0 270 -75.5t164.5 -199.5t27.5 -268q-38 -239 -214 -388t-421 -149zM580 272q92 -1 166.5 66.5t91.5 167.5
q15 102 -38 168.5t-145 66.5q-92 2 -166.5 -65.5t-89.5 -169.5q-15 -99 37.5 -166.5t143.5 -67.5z" />
    <glyph glyph-name="otilde" unicode="&#xf5;" horiz-adv-x="1236" 
d="M614 1214q-51 0 -99.5 30t-70.5 67l111 119q40 -44 92 -44q42 0 115.5 32t122.5 32q105 0 170 -100l-111 -119q-32 47 -96 47q-37 0 -111.5 -32t-122.5 -32zM532 -29q-105 0 -198 40.5t-157.5 110.5t-94.5 171.5t-12 214.5q38 240 217 391.5t418 151.5q155 0 270 -75.5
t164.5 -199.5t27.5 -268q-38 -239 -214 -388t-421 -149zM580 272q92 -1 166.5 66.5t91.5 167.5q15 102 -38 168.5t-145 66.5q-92 2 -166.5 -65.5t-89.5 -169.5q-15 -99 37.5 -166.5t143.5 -67.5z" />
    <glyph glyph-name="odieresis" unicode="&#xf6;" horiz-adv-x="1236" 
d="M532 1196q-57 0 -91 40.5t-25 98.5q9 53 55 92t102 39q57 0 90.5 -39t24.5 -92q-9 -58 -54.5 -98.5t-101.5 -40.5zM926 1196q-59 0 -93.5 40t-25.5 97q9 55 56 94t106 39q54 0 87.5 -39t24.5 -94q-9 -57 -54.5 -97t-100.5 -40zM532 -29q-105 0 -198 40.5t-157.5 110.5
t-94.5 171.5t-12 214.5q38 240 217 391.5t418 151.5q155 0 270 -75.5t164.5 -199.5t27.5 -268q-38 -239 -214 -388t-421 -149zM580 272q92 -1 166.5 66.5t91.5 167.5q15 102 -38 168.5t-145 66.5q-92 2 -166.5 -65.5t-89.5 -169.5q-15 -99 37.5 -166.5t143.5 -67.5z" />
    <glyph glyph-name="divide" unicode="&#xf7;" horiz-adv-x="1073" 
d="M600 905q-65 0 -103 46t-28 112q11 63 63.5 108.5t116.5 45.5t103 -45.5t28 -108.5q-10 -66 -62.5 -112t-117.5 -46zM88 549l45 285h909l-45 -285h-909zM483 164q-66 0 -104 45t-27 110q9 65 61.5 110.5t118.5 45.5q64 0 102.5 -45.5t29.5 -110.5q-10 -64 -63 -109.5
t-118 -45.5z" />
    <glyph glyph-name="oslash" unicode="&#xf8;" horiz-adv-x="1218" 
d="M973 977q113 -72 165 -197.5t29 -271.5q-38 -239 -214 -388t-421 -149q-91 0 -182 33l-84 -129h-135l119 184q-103 71 -153 189t-27 260q38 240 217 391.5t418 151.5q86 0 163 -25l64 98h135zM399 506q-15 -92 33 -162l252 395q-8 2 -29 2q-92 2 -166.5 -65.5
t-89.5 -169.5zM838 506q18 114 -50 182l-262 -407q24 -9 54 -9q92 -1 166.5 66.5t91.5 167.5z" />
    <glyph glyph-name="ugrave" unicode="&#xf9;" horiz-adv-x="1275" 
d="M633 1182l-156 299h260l111 -299h-215zM451 -12q-87 0 -160 33.5t-124.5 95.5t-72.5 157.5t-2 210.5l84 529h332l-80 -492q-20 -121 22.5 -188.5t135.5 -67.5q96 0 159 69t82 189l80 490h332l-162 -1014h-327l20 119h-4q-124 -131 -315 -131z" />
    <glyph glyph-name="uacute" unicode="&#xfa;" horiz-adv-x="1275" 
d="M629 1182l188 299h254l-225 -299h-217zM451 -12q-87 0 -160 33.5t-124.5 95.5t-72.5 157.5t-2 210.5l84 529h332l-80 -492q-20 -121 22.5 -188.5t135.5 -67.5q96 0 159 69t82 189l80 490h332l-162 -1014h-327l20 119h-4q-124 -131 -315 -131z" />
    <glyph glyph-name="ucircumflex" unicode="&#xfb;" horiz-adv-x="1275" 
d="M403 1186l265 293h235l168 -293h-231l-78 147l-127 -147h-232zM451 -12q-87 0 -160 33.5t-124.5 95.5t-72.5 157.5t-2 210.5l84 529h332l-80 -492q-20 -121 22.5 -188.5t135.5 -67.5q96 0 159 69t82 189l80 490h332l-162 -1014h-327l20 119h-4q-124 -131 -315 -131z" />
    <glyph glyph-name="udieresis" unicode="&#xfc;" horiz-adv-x="1275" 
d="M547 1196q-57 0 -91.5 40.5t-25.5 98.5q9 53 55.5 92t102.5 39t89.5 -39t24.5 -92q-9 -58 -54 -98.5t-101 -40.5zM940 1196q-59 0 -93.5 40t-25.5 97q9 55 56 94t106 39q54 0 88 -39t25 -94q-9 -57 -54.5 -97t-101.5 -40zM451 -12q-87 0 -160 33.5t-124.5 95.5
t-72.5 157.5t-2 210.5l84 529h332l-80 -492q-20 -121 22.5 -188.5t135.5 -67.5q96 0 159 69t82 189l80 490h332l-162 -1014h-327l20 119h-4q-124 -131 -315 -131z" />
    <glyph glyph-name="yacute" unicode="&#xfd;" horiz-adv-x="1179" 
d="M555 1188l188 299h254l-225 -299h-217zM-63 -512l53 324q123 0 200 33.5t125 113.5l33 57l-262 998h328l139 -680l332 680h368l-643 -1157q-79 -140 -179.5 -222.5t-217.5 -114.5t-276 -32z" />
    <glyph glyph-name="thorn" unicode="&#xfe;" horiz-adv-x="1294" 
d="M-41 -512l326 2048h329l-102 -643q142 139 326 139q130 0 227.5 -68t142 -188.5t21.5 -267.5q-36 -232 -183 -379t-366 -147q-192 0 -289 139l-102 -633h-330zM639 266q96 0 168.5 68.5t87.5 173.5q17 105 -33 173.5t-145 68.5q-97 0 -174 -69t-92 -173
q-17 -105 37.5 -173.5t150.5 -68.5z" />
    <glyph glyph-name="ydieresis" unicode="&#xff;" horiz-adv-x="1179" 
d="M473 1202q-57 0 -91.5 40.5t-25.5 98.5q9 53 55.5 92.5t102.5 39.5t90 -39.5t25 -92.5q-9 -58 -54.5 -98.5t-101.5 -40.5zM866 1202q-58 0 -92.5 40t-25.5 97q9 56 56 95t105 39q54 0 88 -39.5t25 -94.5q-9 -57 -54.5 -97t-101.5 -40zM-63 -512l53 324q123 0 200 33.5
t125 113.5l33 57l-262 998h328l139 -680l332 680h368l-643 -1157q-79 -140 -179.5 -222.5t-217.5 -114.5t-276 -32z" />
    <glyph glyph-name="Amacron" unicode="&#x100;" horiz-adv-x="1527" 
d="M672 1653l33 196h540l-31 -196h-542zM-72 0l799 1434h360l355 -1434h-365l-47 215h-596l-115 -215h-391zM594 528h373l-109 506h-6z" />
    <glyph glyph-name="amacron" unicode="&#x101;" horiz-adv-x="1292" 
d="M500 1233l32 197h541l-31 -197h-542zM451 -18q-127 0 -223.5 68.5t-140.5 190t-21 267.5q36 226 189.5 375t358.5 149q191 0 289 -141l19 123h331l-159 -1014h-332l18 115q-127 -133 -329 -133zM575 266q98 0 174 68t93 174q19 103 -36 172.5t-153 69.5q-95 0 -170 -69
t-94 -173q-17 -103 37 -172.5t149 -69.5z" />
    <glyph glyph-name="Abreve" unicode="&#x102;" horiz-adv-x="1527" 
d="M934 1604q-133 0 -207.5 86t-58.5 200h170q-5 -50 23 -89.5t100 -39.5q68 0 109 40t50 89h172q-8 -46 -24 -86t-44.5 -77.5t-67.5 -64t-96 -42.5t-126 -16zM-72 0l799 1434h360l355 -1434h-365l-47 215h-596l-115 -215h-391zM594 528h373l-109 506h-6z" />
    <glyph glyph-name="abreve" unicode="&#x103;" horiz-adv-x="1292" 
d="M764 1184q-133 0 -207.5 86t-58.5 200h170q-5 -50 23 -89.5t100 -39.5q68 0 109 40t50 89h172q-8 -46 -24 -86t-44.5 -77.5t-67.5 -64t-96 -42.5t-126 -16zM451 -18q-127 0 -223.5 68.5t-140.5 190t-21 267.5q36 226 189.5 375t358.5 149q191 0 289 -141l19 123h331
l-159 -1014h-332l18 115q-127 -133 -329 -133zM575 266q98 0 174 68t93 174q19 103 -36 172.5t-153 69.5q-95 0 -170 -69t-94 -173q-17 -103 37 -172.5t149 -69.5z" />
    <glyph glyph-name="Aogonek" unicode="&#x104;" horiz-adv-x="1527" 
d="M1087 -129q-8 -55 31.5 -83t100.5 -28l-39 -241q-158 -8 -244 59t-64 209q13 78 68.5 137.5t132.5 95.5l-43 195h-596l-115 -215h-391l799 1434h360l355 -1434h-234q-105 -43 -121 -129zM594 528h373l-109 506h-6z" />
    <glyph glyph-name="aogonek" unicode="&#x105;" horiz-adv-x="1292" 
d="M881 0q-105 -43 -121 -129q-8 -55 31 -83t100 -28l-39 -241q-158 -8 -243.5 59t-63.5 209q14 83 76.5 146.5t144.5 97.5l14 84q-127 -133 -329 -133q-127 0 -223.5 68.5t-140.5 190t-21 267.5q36 226 189.5 375t358.5 149q191 0 289 -141l19 123h331l-159 -1014h-213z
M575 266q98 0 174 68t93 174q19 103 -36 172.5t-153 69.5q-95 0 -170 -69t-94 -173q-17 -103 37 -172.5t149 -69.5z" />
    <glyph glyph-name="Cacute" unicode="&#x106;" horiz-adv-x="1501" 
d="M854 1602l188 299h254l-225 -299h-217zM717 -20q-143 0 -269 58.5t-211 156.5t-124 235.5t-15 286.5q25 153 100.5 288.5t186.5 234.5t258 156.5t307 57.5q198 0 357.5 -105.5t224.5 -277.5l-336 -158q-36 88 -116 140.5t-187 52.5q-161 0 -289 -113.5t-153 -275.5
q-26 -162 66 -275.5t253 -113.5q109 0 207 53.5t160 144.5l286 -157q-127 -186 -297.5 -287.5t-408.5 -101.5z" />
    <glyph glyph-name="cacute" unicode="&#x107;" horiz-adv-x="1073" 
d="M612 1182l189 299h254l-226 -299h-217zM524 -29q-108 0 -202 42.5t-157 114t-92 171.5t-12 209q17 111 73.5 211t139.5 173t193 116t229 43q133 0 240.5 -60.5t167.5 -163.5l-289 -190q-22 48 -66 75.5t-102 28.5q-96 1 -170.5 -65.5t-91.5 -169.5q-15 -100 36 -165.5
t146 -66.5q59 -2 116.5 27t90.5 78l227 -189q-92 -101 -218 -160t-259 -59z" />
    <glyph glyph-name="Cdotaccent" unicode="&#x10a;" horiz-adv-x="1501" 
d="M969 1602q-65 0 -103.5 44.5t-29.5 108.5q9 60 61 104t115 44t101.5 -44t27.5 -104q-9 -64 -59.5 -108.5t-112.5 -44.5zM717 -20q-143 0 -269 58.5t-211 156.5t-124 235.5t-15 286.5q25 153 100.5 288.5t186.5 234.5t258 156.5t307 57.5q198 0 357.5 -105.5t224.5 -277.5
l-336 -158q-36 88 -116 140.5t-187 52.5q-161 0 -289 -113.5t-153 -275.5q-26 -162 66 -275.5t253 -113.5q109 0 207 53.5t160 144.5l286 -157q-127 -186 -297.5 -287.5t-408.5 -101.5z" />
    <glyph glyph-name="cdotaccent" unicode="&#x10b;" horiz-adv-x="1073" 
d="M725 1182q-65 0 -103.5 44.5t-29.5 108.5q9 60 61 104t115 44t101.5 -44t27.5 -104q-9 -64 -59.5 -108.5t-112.5 -44.5zM524 -29q-108 0 -202 42.5t-157 114t-92 171.5t-12 209q17 111 73.5 211t139.5 173t193 116t229 43q133 0 240.5 -60.5t167.5 -163.5l-289 -190
q-22 48 -66 75.5t-102 28.5q-96 1 -170.5 -65.5t-91.5 -169.5q-15 -100 36 -165.5t146 -66.5q59 -2 116.5 27t90.5 78l227 -189q-92 -101 -218 -160t-259 -59z" />
    <glyph glyph-name="Ccaron" unicode="&#x10c;" horiz-adv-x="1501" 
d="M864 1595l-166 299h203l84 -157l133 157h205l-260 -299h-199zM717 -20q-143 0 -269 58.5t-211 156.5t-124 235.5t-15 286.5q25 153 100.5 288.5t186.5 234.5t258 156.5t307 57.5q198 0 357.5 -105.5t224.5 -277.5l-336 -158q-36 88 -116 140.5t-187 52.5
q-161 0 -289 -113.5t-153 -275.5q-26 -162 66 -275.5t253 -113.5q109 0 207 53.5t160 144.5l286 -157q-127 -186 -297.5 -287.5t-408.5 -101.5z" />
    <glyph glyph-name="ccaron" unicode="&#x10d;" horiz-adv-x="1073" 
d="M621 1176l-166 299h202l84 -158l133 158h205l-260 -299h-198zM524 -29q-108 0 -202 42.5t-157 114t-92 171.5t-12 209q17 111 73.5 211t139.5 173t193 116t229 43q133 0 240.5 -60.5t167.5 -163.5l-289 -190q-22 48 -66 75.5t-102 28.5q-96 1 -170.5 -65.5t-91.5 -169.5
q-15 -100 36 -165.5t146 -66.5q59 -2 116.5 27t90.5 78l227 -189q-92 -101 -218 -160t-259 -59z" />
    <glyph glyph-name="Dcaron" unicode="&#x10e;" horiz-adv-x="1501" 
d="M735 1595l-166 299h203l84 -157l133 157h205l-260 -299h-199zM49 0l227 1434l574 2q106 0 205 -29.5t183.5 -89.5t143 -144t82 -201.5t2.5 -252.5q-27 -171 -100.5 -308t-180.5 -226.5t-242 -137t-288 -47.5h-606zM451 336h229q172 0 291.5 95t150.5 288q15 98 -4.5 173
t-68 119.5t-115 66.5t-150.5 22l-213 -2z" />
    <glyph glyph-name="dcaron" unicode="&#x10f;" horiz-adv-x="1529" 
d="M455 -18q-129 0 -226.5 68.5t-141.5 189.5t-21 268q37 226 191 375t357 149q188 0 289 -141l103 645h331l-243 -1536h-332l20 121q-136 -139 -327 -139zM1372 1217l105 319h235l-127 -319h-213zM578 266q96 0 172.5 69.5t91.5 172.5q19 103 -36 172.5t-151 69.5
q-97 0 -172 -69t-92 -173t37 -173t150 -69z" />
    <glyph glyph-name="Dcroat" unicode="&#x110;" horiz-adv-x="1501" 
d="M850 1436q106 0 205 -29.5t183.5 -89.5t143 -144t82 -201.5t2.5 -252.5q-27 -171 -100.5 -308t-180.5 -226.5t-242 -137t-288 -47.5h-606l96 602h-118l34 229h119l96 603zM1122 719q15 98 -4.5 173t-68 119.5t-115 66.5t-150.5 22l-213 -2l-43 -267h310l-35 -229h-309
l-43 -266h229q172 0 291.5 95t150.5 288z" />
    <glyph glyph-name="dcroat" unicode="&#x111;" horiz-adv-x="1292" 
d="M1479 1331l-35 -229h-176l-174 -1102h-332l20 121q-136 -139 -327 -139q-129 0 -226.5 68.5t-141.5 189.5t-21 268q37 226 191 375t357 149q188 0 289 -141l33 211h-268l34 229h271l33 205h331l-32 -205h174zM842 508q19 103 -36 172.5t-151 69.5q-97 0 -172 -69
t-92 -173t37 -173t150 -69t172.5 69.5t91.5 172.5z" />
    <glyph glyph-name="Emacron" unicode="&#x112;" horiz-adv-x="1230" 
d="M567 1653l33 196h541l-31 -196h-543zM51 0l225 1434h1037l-49 -306h-689l-40 -260h673l-45 -297h-674l-43 -266h691l-50 -305h-1036z" />
    <glyph glyph-name="emacron" unicode="&#x113;" horiz-adv-x="1206" 
d="M1022 1460l-31 -196h-542l32 196h541zM694 1051q215 0 339.5 -148t107.5 -389q-2 -37 -17 -98h-762q12 -83 70 -129.5t137 -46.5q71 0 136 26.5t110 71.5l195 -168q-90 -96 -216 -147.5t-266 -49.5q-109 1 -202.5 44.5t-156 117.5t-89.5 178.5t-8 221.5q15 100 67 192.5
t130.5 164.5t189.5 115.5t235 43.5zM397 625h459q-16 86 -72 129t-131 43q-78 0 -147.5 -43.5t-108.5 -128.5z" />
    <glyph glyph-name="Edotaccent" unicode="&#x116;" horiz-adv-x="1230" 
d="M834 1602q-65 0 -104 44.5t-30 108.5q9 60 61.5 104t115.5 44t101.5 -44t27.5 -104q-9 -64 -59.5 -108.5t-112.5 -44.5zM51 0l225 1434h1037l-49 -306h-689l-40 -260h673l-45 -297h-674l-43 -266h691l-50 -305h-1036z" />
    <glyph glyph-name="edotaccent" unicode="&#x117;" horiz-adv-x="1206" 
d="M715 1212q-65 0 -103.5 45t-29.5 109q9 60 61 103.5t115 43.5t101 -43.5t28 -103.5q-9 -64 -59.5 -109t-112.5 -45zM694 1051q215 0 339.5 -148t107.5 -389q-2 -37 -17 -98h-762q12 -83 70 -129.5t137 -46.5q71 0 136 26.5t110 71.5l195 -168q-90 -96 -216 -147.5
t-266 -49.5q-109 1 -202.5 44.5t-156 117.5t-89.5 178.5t-8 221.5q15 100 67 192.5t130.5 164.5t189.5 115.5t235 43.5zM397 625h459q-16 86 -72 129t-131 43q-78 0 -147.5 -43.5t-108.5 -128.5z" />
    <glyph glyph-name="Eogonek" unicode="&#x118;" horiz-adv-x="1230" 
d="M1264 1128h-689l-40 -260h673l-45 -297h-674l-43 -266h691l-50 -305h-22q-105 -43 -121 -129q-8 -55 31 -83t100 -28l-39 -241q-158 -8 -243.5 59t-63.5 209q22 129 162 213h-840l225 1434h1037z" />
    <glyph glyph-name="eogonek" unicode="&#x119;" horiz-adv-x="1206" 
d="M694 1051q215 0 339.5 -148t107.5 -389q-2 -37 -17 -98h-762q12 -83 70 -129.5t137 -46.5q71 0 136 26.5t110 71.5l195 -168q-131 -139 -334 -182q-79 -43 -92 -117q-8 -55 31 -83t100 -28l-39 -241q-158 -8 -243.5 59t-63.5 209q16 103 123 188q-137 10 -241.5 84.5
t-154 200t-24.5 275.5q15 100 67 192.5t130.5 164.5t189.5 115.5t235 43.5zM397 625h459q-16 86 -72 129t-131 43q-78 0 -147.5 -43.5t-108.5 -128.5z" />
    <glyph glyph-name="Ecaron" unicode="&#x11a;" horiz-adv-x="1230" 
d="M729 1595l-166 299h203l84 -157l133 157h205l-260 -299h-199zM51 0l225 1434h1037l-49 -306h-689l-40 -260h673l-45 -297h-674l-43 -266h691l-50 -305h-1036z" />
    <glyph glyph-name="ecaron" unicode="&#x11b;" horiz-adv-x="1206" 
d="M809 1206h-199l-166 299h203l84 -157l133 157h205zM694 1051q215 0 339.5 -148t107.5 -389q-2 -37 -17 -98h-762q12 -83 70 -129.5t137 -46.5q71 0 136 26.5t110 71.5l195 -168q-90 -96 -216 -147.5t-266 -49.5q-109 1 -202.5 44.5t-156 117.5t-89.5 178.5t-8 221.5
q15 100 67 192.5t130.5 164.5t189.5 115.5t235 43.5zM397 625h459q-16 86 -72 129t-131 43q-78 0 -147.5 -43.5t-108.5 -128.5z" />
    <glyph glyph-name="Gbreve" unicode="&#x11e;" horiz-adv-x="1558" 
d="M967 1604q-133 0 -208 86t-59 200h170q-5 -50 23 -89.5t100 -39.5q68 0 109.5 40t50.5 89h172q-8 -46 -24 -86t-44.5 -77.5t-67.5 -64t-96 -42.5t-126 -16zM1530 782l-37 -252l-12 -77q-97 -226 -300 -349.5t-462 -123.5q-152 0 -279.5 58t-210.5 157t-119 235.5
t-12 286.5q33 203 151.5 371t303.5 267t399 99q212 0 356.5 -97.5t209.5 -266.5l-334 -164q-84 186 -289 186q-165 0 -294.5 -114.5t-154.5 -280.5q-26 -177 67 -294.5t259 -117.5q215 0 350 150l11 75h-271l37 252h631z" />
    <glyph glyph-name="gbreve" unicode="&#x11f;" horiz-adv-x="1294" 
d="M700 1184q-133 0 -207.5 86t-58.5 200h170q-5 -50 23 -89.5t100 -39.5q68 0 109.5 40t50.5 89h172q-10 -58 -34 -106.5t-65 -90.5t-107.5 -65.5t-152.5 -23.5zM444 -512q-165 0 -298.5 65t-194.5 171l250 188q100 -135 264 -135q47 0 94.5 16.5t91.5 49t77 87.5t44 125
l10 62q-132 -135 -321 -135q-100 0 -182.5 40.5t-135 110t-73.5 167.5t-4 208q37 228 194 376t365 148q91 0 163 -36.5t117 -102.5l19 121h331l-149 -936q-19 -122 -65.5 -221.5t-110.5 -167t-144 -113.5t-165.5 -67t-176.5 -21zM571 266q100 0 178 69t93 173
q19 103 -36 172.5t-151 69.5q-97 0 -172 -69t-92 -173q-15 -104 37 -173t143 -69z" />
    <glyph glyph-name="Gdotaccent" unicode="&#x120;" horiz-adv-x="1558" 
d="M971 1602q-65 0 -103.5 44.5t-29.5 108.5q9 60 61 104t115 44t101.5 -44t27.5 -104q-9 -64 -59.5 -108.5t-112.5 -44.5zM1530 782l-37 -252l-12 -77q-97 -226 -300 -349.5t-462 -123.5q-152 0 -279.5 58t-210.5 157t-119 235.5t-12 286.5q33 203 151.5 371t303.5 267
t399 99q212 0 356.5 -97.5t209.5 -266.5l-334 -164q-84 186 -289 186q-165 0 -294.5 -114.5t-154.5 -280.5q-26 -177 67 -294.5t259 -117.5q215 0 350 150l11 75h-271l37 252h631z" />
    <glyph glyph-name="gdotaccent" unicode="&#x121;" horiz-adv-x="1294" 
d="M702 1182q-65 0 -103.5 44.5t-29.5 108.5q9 60 61 104t115 44t101.5 -44t27.5 -104q-9 -64 -59.5 -108.5t-112.5 -44.5zM444 -512q-165 0 -298.5 65t-194.5 171l250 188q100 -135 264 -135q47 0 94.5 16.5t91.5 49t77 87.5t44 125l10 62q-132 -135 -321 -135
q-100 0 -182.5 40.5t-135 110t-73.5 167.5t-4 208q37 228 194 376t365 148q91 0 163 -36.5t117 -102.5l19 121h331l-149 -936q-19 -122 -65.5 -221.5t-110.5 -167t-144 -113.5t-165.5 -67t-176.5 -21zM571 266q100 0 178 69t93 173q19 103 -36 172.5t-151 69.5
q-97 0 -172 -69t-92 -173q-15 -104 37 -173t143 -69z" />
    <glyph glyph-name="uni0122" unicode="&#x122;" horiz-adv-x="1558" 
d="M1530 782l-37 -252l-12 -77q-97 -226 -300 -349.5t-462 -123.5q-152 0 -279.5 58t-210.5 157t-119 235.5t-12 286.5q33 203 151.5 371t303.5 267t399 99q212 0 356.5 -97.5t209.5 -266.5l-334 -164q-84 186 -289 186q-165 0 -294.5 -114.5t-154.5 -280.5
q-26 -177 67 -294.5t259 -117.5q215 0 350 150l11 75h-271l37 252h631zM446 -455l162 349h219l-182 -349h-199z" />
    <glyph glyph-name="uni0123" unicode="&#x123;" horiz-adv-x="1294" 
d="M582 1157l184 348h197l-162 -348h-219zM444 -512q-165 0 -298.5 65t-194.5 171l250 188q100 -135 264 -135q47 0 94.5 16.5t91.5 49t77 87.5t44 125l10 62q-132 -135 -321 -135q-100 0 -182.5 40.5t-135 110t-73.5 167.5t-4 208q37 228 194 376t365 148q91 0 163 -36.5
t117 -102.5l19 121h331l-149 -936q-19 -122 -65.5 -221.5t-110.5 -167t-144 -113.5t-165.5 -67t-176.5 -21zM571 266q100 0 178 69t93 173q19 103 -36 172.5t-151 69.5q-97 0 -172 -69t-92 -173q-15 -104 37 -173t143 -69z" />
    <glyph glyph-name="Hbar" unicode="&#x126;" horiz-adv-x="1554" 
d="M1671 1235l-29 -176h-131l-165 -1059h-351l88 549h-598l-86 -549h-348l166 1059h-129l27 176h131l30 199h349l-31 -199h596l31 199h350l-31 -199h131zM1135 877l28 182h-598l-28 -182h598z" />
    <glyph glyph-name="hbar" unicode="&#x127;" horiz-adv-x="1275" 
d="M815 1026q189 0 297 -138t72 -360l-84 -528h-332l80 502q19 118 -23 182t-135 64q-91 0 -154.5 -64.5t-84.5 -173.5l-82 -510h-330l182 1147h-135l31 211h137l29 178h329l-28 -178h245l-32 -211h-246l-39 -242q124 121 303 121z" />
    <glyph glyph-name="Itilde" unicode="&#x128;" horiz-adv-x="606" 
d="M365 1634q-51 0 -99.5 30t-70.5 67l110 118q40 -43 92 -43q42 0 115.5 32t122.5 32q105 0 170 -101l-111 -118q-32 47 -96 47q-37 0 -111 -32t-122 -32zM51 0l225 1434h349l-226 -1434h-348z" />
    <glyph glyph-name="itilde" unicode="&#x129;" horiz-adv-x="532" 
d="M262 1214q-51 0 -99.5 30t-70.5 67l111 119q40 -44 92 -44q42 0 115 32t122 32q105 0 170 -100l-110 -119q-32 47 -96 47q-37 0 -111.5 -32t-122.5 -32zM25 0l159 1014h324l-160 -1014h-323z" />
    <glyph glyph-name="Imacron" unicode="&#x12a;" horiz-adv-x="606" 
d="M211 1653l33 196h540l-30 -196h-543zM51 0l225 1434h349l-226 -1434h-348z" />
    <glyph glyph-name="imacron" unicode="&#x12b;" horiz-adv-x="532" 
d="M111 1233l32 197h541l-31 -197h-542zM25 0l159 1014h324l-160 -1014h-323z" />
    <glyph glyph-name="Iogonek" unicode="&#x12e;" horiz-adv-x="606" 
d="M330 0q-109 -44 -125 -131q-8 -55 31 -83t100 -28l-39 -241q-158 -8 -243.5 59t-63.5 209q22 129 164 215h-103l225 1434h349l-226 -1434h-69z" />
    <glyph glyph-name="iogonek" unicode="&#x12f;" horiz-adv-x="532" 
d="M420 1483q63 0 101.5 -44t27.5 -104q-9 -64 -59.5 -108.5t-112.5 -44.5q-65 0 -103.5 44.5t-29.5 108.5q9 60 61 104t115 44zM25 0l159 1014h324l-160 -1014h-76q-104 -43 -120 -129q-8 -55 31 -83t100 -28l-39 -241q-158 -8 -243.5 59t-63.5 209q22 129 161 213h-73z
" />
    <glyph glyph-name="Idotaccent" unicode="&#x130;" horiz-adv-x="606" 
d="M477 1602q-65 0 -103.5 44.5t-29.5 108.5q9 60 61 104t115 44t101.5 -44t27.5 -104q-9 -64 -59.5 -108.5t-112.5 -44.5zM51 0l225 1434h349l-226 -1434h-348z" />
    <glyph glyph-name="dotlessi" unicode="&#x131;" horiz-adv-x="532" 
d="M25 0l159 1014h324l-160 -1014h-323z" />
    <glyph glyph-name="uni0136" unicode="&#x136;" horiz-adv-x="1462" 
d="M51 0l225 1434h349l-88 -553h149l467 553h449l-633 -713l409 -721h-397l-317 553h-179l-86 -553h-348zM383 -455l162 349h219l-182 -349h-199z" />
    <glyph glyph-name="uni0137" unicode="&#x137;" horiz-adv-x="1259" 
d="M41 0l242 1536h327l-137 -858h123l311 336h412l-483 -494l333 -520h-385l-221 367h-137l-57 -367h-328zM291 -455l162 349h219l-183 -349h-198z" />
    <glyph glyph-name="Lacute" unicode="&#x139;" horiz-adv-x="1185" 
d="M383 1602l188 299h254l-225 -299h-217zM51 0l225 1434h345l-177 -1117h686l-49 -317h-1030z" />
    <glyph glyph-name="lacute" unicode="&#x13a;" horiz-adv-x="698" 
d="M369 1704l188 299h254l-225 -299h-217zM424 -8q-183 0 -269.5 99t-56.5 284l185 1161h331l-176 -1098q-9 -71 25.5 -109t107.5 -38q44 0 76 14l-47 -287q-102 -26 -176 -26z" />
    <glyph glyph-name="uni013B" unicode="&#x13b;" horiz-adv-x="1185" 
d="M51 0l225 1434h345l-177 -1117h686l-49 -317h-1030zM293 -455l162 349h219l-182 -349h-199z" />
    <glyph glyph-name="uni013C" unicode="&#x13c;" horiz-adv-x="698" 
d="M424 -8q-183 0 -269.5 99t-56.5 284l185 1161h331l-176 -1098q-9 -71 25.5 -109t107.5 -38q44 0 76 14l-47 -287q-102 -26 -176 -26zM127 -455l162 349h219l-182 -349h-199z" />
    <glyph glyph-name="Lcaron" unicode="&#x13d;" horiz-adv-x="1185" 
d="M51 0l225 1434h345l-177 -1117h686l-49 -317h-1030zM694 1114l107 320h233l-127 -320h-213z" />
    <glyph glyph-name="lcaron" unicode="&#x13e;" horiz-adv-x="778" 
d="M424 -8q-183 0 -269.5 99t-56.5 284l185 1161h331l-176 -1098q-9 -71 25.5 -109t107.5 -38q44 0 76 14l-47 -287q-102 -26 -176 -26zM631 1217l106 319h234l-125 -319h-215z" />
    <glyph glyph-name="Lslash" unicode="&#x141;" horiz-adv-x="1185" 
d="M444 317h686l-49 -317h-1030l64 406l-103 -54l-82 223l230 117l116 742h345l-86 -551l167 86l80 -224l-295 -149z" />
    <glyph glyph-name="lslash" unicode="&#x142;" horiz-adv-x="698" 
d="M438 438q-9 -71 25.5 -109t107.5 -38q44 0 76 14l-47 -287q-102 -26 -176 -26q-183 0 -269.5 99t-56.5 284l11 69l-129 -65l-82 223l258 131l127 803h331l-100 -618l156 77l80 -223l-281 -143z" />
    <glyph glyph-name="Nacute" unicode="&#x143;" horiz-adv-x="1562" 
d="M823 1602l187 299h256l-226 -299h-217zM51 0l225 1434h363l453 -908l139 908h348l-225 -1434h-363l-452 907l-140 -907h-348z" />
    <glyph glyph-name="nacute" unicode="&#x144;" horiz-adv-x="1275" 
d="M651 1182l189 299h254l-226 -299h-217zM37 0l162 1014h331l-18 -113q134 131 305 131q91 0 166.5 -35t126.5 -99t71.5 -160t2.5 -210l-84 -528h-332l78 500q19 120 -22.5 187t-133.5 67q-94 0 -159.5 -70.5t-84.5 -187.5l-77 -496h-332z" />
    <glyph glyph-name="uni0145" unicode="&#x145;" horiz-adv-x="1562" 
d="M51 0l225 1434h363l453 -908l139 908h348l-225 -1434h-363l-452 907l-140 -907h-348zM410 -455l161 349h220l-185 -349h-196z" />
    <glyph glyph-name="uni0146" unicode="&#x146;" horiz-adv-x="1275" 
d="M37 0l162 1014h331l-18 -113q134 131 305 131q91 0 166.5 -35t126.5 -99t71.5 -160t2.5 -210l-84 -528h-332l78 500q19 120 -22.5 187t-133.5 67q-94 0 -159.5 -70.5t-84.5 -187.5l-77 -496h-332zM303 -455l162 349h219l-182 -349h-199z" />
    <glyph glyph-name="Ncaron" unicode="&#x147;" horiz-adv-x="1562" 
d="M831 1597l-163 299h200l84 -159l135 159h205l-260 -299h-201zM51 0l225 1434h363l453 -908l139 908h348l-225 -1434h-363l-452 907l-140 -907h-348z" />
    <glyph glyph-name="ncaron" unicode="&#x148;" horiz-adv-x="1275" 
d="M662 1176l-166 299h202l84 -158l133 158h205l-260 -299h-198zM37 0l162 1014h331l-18 -113q134 131 305 131q91 0 166.5 -35t126.5 -99t71.5 -160t2.5 -210l-84 -528h-332l78 500q19 120 -22.5 187t-133.5 67q-94 0 -159.5 -70.5t-84.5 -187.5l-77 -496h-332z" />
    <glyph glyph-name="Eng" unicode="&#x14a;" horiz-adv-x="1558" 
d="M1227 1434h350l-223 -1414q-50 -255 -218 -374t-458 -119l51 323q95 0 164 40.5t102 117.5l-454 901l-144 -909h-348l227 1434h388l428 -863z" />
    <glyph glyph-name="eng" unicode="&#x14b;" horiz-adv-x="1290" 
d="M487 -469l48 293q56 0 105.5 17t90 61.5t51.5 111.5l78 496q17 114 -26 178t-138 64q-98 0 -162.5 -64t-82.5 -172l-82 -516h-332l162 1020h331l-20 -129q124 139 334 139q190 0 288 -136t64 -357l-80 -508q-78 -498 -629 -498z" />
    <glyph glyph-name="Omacron" unicode="&#x14c;" horiz-adv-x="1603" 
d="M711 1653l32 196h541l-31 -196h-542zM717 -20q-97 0 -187 26.5t-163 74t-132 115t-93.5 149t-48 176t4.5 196.5q25 152 100 287t185.5 234.5t258 157.5t308.5 58q97 0 187 -26.5t163 -74t132 -115t93.5 -149t48 -176t-4.5 -196.5q-25 -153 -97 -287t-180.5 -234.5
t-257 -158t-317.5 -57.5zM770 319q164 0 293.5 115t157.5 283q26 168 -67 282.5t-257 114.5q-165 0 -294 -114.5t-157 -282.5t65.5 -283t258.5 -115z" />
    <glyph glyph-name="omacron" unicode="&#x14d;" horiz-adv-x="1236" 
d="M461 1233l33 197h540l-30 -197h-543zM532 -29q-105 0 -198 40.5t-157.5 110.5t-94.5 171.5t-12 214.5q38 240 217 391.5t418 151.5q155 0 270 -75.5t164.5 -199.5t27.5 -268q-38 -239 -214 -388t-421 -149zM580 272q92 -1 166.5 66.5t91.5 167.5q15 102 -38 168.5
t-145 66.5q-92 2 -166.5 -65.5t-89.5 -169.5q-15 -99 37.5 -166.5t143.5 -67.5z" />
    <glyph glyph-name="Ohungarumlaut" unicode="&#x150;" horiz-adv-x="1603" 
d="M733 1595l189 299h215l-226 -299h-178zM1034 1595l187 299h217l-226 -299h-178zM717 -20q-97 0 -187 26.5t-163 74t-132 115t-93.5 149t-48 176t4.5 196.5q25 152 100 287t185.5 234.5t258 157.5t308.5 58q97 0 187 -26.5t163 -74t132 -115t93.5 -149t48 -176
t-4.5 -196.5q-25 -153 -97 -287t-180.5 -234.5t-257 -158t-317.5 -57.5zM770 319q164 0 293.5 115t157.5 283q26 168 -67 282.5t-257 114.5q-165 0 -294 -114.5t-157 -282.5t65.5 -283t258.5 -115z" />
    <glyph glyph-name="ohungarumlaut" unicode="&#x151;" horiz-adv-x="1236" 
d="M483 1176l189 299h215l-225 -299h-179zM784 1176l187 299h217l-225 -299h-179zM532 -29q-105 0 -198 40.5t-157.5 110.5t-94.5 171.5t-12 214.5q38 240 217 391.5t418 151.5q155 0 270 -75.5t164.5 -199.5t27.5 -268q-38 -239 -214 -388t-421 -149zM580 272
q92 -1 166.5 66.5t91.5 167.5q15 102 -38 168.5t-145 66.5q-92 2 -166.5 -65.5t-89.5 -169.5q-15 -99 37.5 -166.5t143.5 -67.5z" />
    <glyph glyph-name="OE" unicode="&#x152;" horiz-adv-x="1955" 
d="M1989 1122h-689l-40 -248h669l-47 -311h-672l-39 -252h689l-48 -311h-1040q-222 0 -388 93.5t-242.5 258t-43.5 365.5q25 154 98 284.5t186 227t271 151t344 54.5h1041zM451 717q-27 -164 73.5 -266.5t302.5 -102.5l115 739q-200 0 -333 -103.5t-158 -266.5z" />
    <glyph glyph-name="oe" unicode="&#x153;" horiz-adv-x="1982" 
d="M1464 1034q117 0 213 -42.5t157 -122t81 -193t-14 -254.5h-760q12 -82 69.5 -127t139.5 -45q148 0 233 88l182 -162q-165 -196 -469 -196q-108 0 -198.5 41t-153.5 114q-171 -155 -424 -155q-141 0 -253.5 70t-168 192t-32.5 264q36 222 213.5 375t408.5 153
q107 0 199.5 -43t156.5 -119q177 162 420 162zM1178 612h446q-15 76 -68 117t-131 41q-77 0 -143.5 -42.5t-103.5 -115.5zM819 506q13 91 -39 153t-141 62q-91 0 -163 -62t-85 -153q-15 -89 38.5 -151t141.5 -62q92 0 163 61.5t85 151.5z" />
    <glyph glyph-name="Racute" unicode="&#x154;" horiz-adv-x="1329" 
d="M1094 1901l-226 -299h-217l189 299h254zM1335 956q-24 -155 -108 -266t-213 -166l205 -524h-371l-164 477h-213l-76 -477h-344l225 1434h631q96 0 180 -31.5t146.5 -90t91 -151t10.5 -205.5zM573 1130l-57 -358h266q79 0 137 50t70 128q12 79 -29 129.5t-120 50.5h-267z
" />
    <glyph glyph-name="racute" unicode="&#x155;" horiz-adv-x="874" 
d="M514 1212l188 299h254l-225 -299h-217zM39 0l160 1014h331l-20 -127q139 148 412 145l-56 -346q-62 41 -147 41q-105 0 -182 -77.5t-97 -205.5l-69 -444h-332z" />
    <glyph glyph-name="uni0156" unicode="&#x156;" horiz-adv-x="1329" 
d="M1335 956q-24 -155 -108 -266t-213 -166l205 -524h-371l-164 477h-213l-76 -477h-344l225 1434h631q96 0 180 -31.5t146.5 -90t91 -151t10.5 -205.5zM573 1130l-57 -358h266q79 0 137 50t70 128q12 79 -29 129.5t-120 50.5h-267zM315 -455l162 349h219l-182 -349h-199z
" />
    <glyph glyph-name="uni0157" unicode="&#x157;" horiz-adv-x="874" 
d="M39 0l160 1014h331l-20 -127q139 148 412 145l-56 -346q-62 41 -147 41q-105 0 -182 -77.5t-97 -205.5l-69 -444h-332zM-25 -455l162 349h219l-182 -349h-199z" />
    <glyph glyph-name="Rcaron" unicode="&#x158;" horiz-adv-x="1329" 
d="M858 1595h-199l-165 299h202l84 -157l133 157h205zM1335 956q-24 -155 -108 -266t-213 -166l205 -524h-371l-164 477h-213l-76 -477h-344l225 1434h631q96 0 180 -31.5t146.5 -90t91 -151t10.5 -205.5zM573 1130l-57 -358h266q79 0 137 50t70 128q12 79 -29 129.5
t-120 50.5h-267z" />
    <glyph glyph-name="rcaron" unicode="&#x159;" horiz-adv-x="874" 
d="M524 1206l-166 299h203l84 -157l133 157h205l-260 -299h-199zM39 0l160 1014h331l-20 -127q139 148 412 145l-56 -346q-62 41 -147 41q-105 0 -182 -77.5t-97 -205.5l-69 -444h-332z" />
    <glyph glyph-name="Sacute" unicode="&#x15a;" horiz-adv-x="1204" 
d="M653 1602l189 299h254l-226 -299h-217zM526 -20q-202 0 -338.5 100t-162.5 268l348 94q10 -70 65.5 -110.5t139.5 -40.5t139 35.5t63 93.5q6 32 -8.5 56.5t-47.5 41t-70 28.5t-89 26q-35 9 -53 14q-64 18 -114 38.5t-106.5 57.5t-91 81.5t-52 113.5t-3.5 151
q28 185 195.5 307.5t400.5 122.5q195 0 315 -95.5t144 -262.5l-328 -90q-29 143 -176 143q-82 0 -136 -39.5t-62 -95.5q-4 -26 6.5 -48t28 -36.5t51.5 -29.5t62.5 -24t74.5 -23q5 -1 8 -2l7.5 -2.5t8.5 -2.5q71 -20 116.5 -36t111 -51.5t101.5 -77.5t56.5 -111t6.5 -154
q-31 -201 -198 -320.5t-413 -119.5z" />
    <glyph glyph-name="sacute" unicode="&#x15b;" horiz-adv-x="1046" 
d="M514 1182l188 299h254l-225 -299h-217zM434 -39q-158 0 -279 83.5t-143 211.5l297 88q14 -57 59 -89t117 -32q62 0 105.5 26t50.5 70q5 28 -17 43t-65 21t-91 9.5t-108 14.5t-104 31q-169 79 -137 262q26 148 164.5 246t314.5 98q162 0 263 -76.5t120 -203.5l-291 -78
q-3 54 -37 84.5t-90 30.5q-55 0 -95.5 -27t-45.5 -65q-4 -32 19 -50.5t67.5 -26t93 -12t107.5 -14t100 -26.5q179 -77 149 -265q-26 -164 -166.5 -259t-357.5 -95z" />
    <glyph glyph-name="Scedilla" unicode="&#x15e;" horiz-adv-x="1204" 
d="M745 850q71 -20 116.5 -36t111 -51.5t101.5 -77.5t56.5 -111t6.5 -154q-29 -194 -186.5 -312.5t-391.5 -127.5l-12 -31q83 2 131.5 -50t36.5 -130q-14 -90 -83.5 -148.5t-174.5 -58.5q-78 -1 -131.5 32t-73.5 87l108 67q28 -60 99 -57q41 0 68.5 22.5t33.5 55.5
q7 50 -49.5 70.5t-134.5 -1.5l55 148q-167 23 -275.5 118.5t-131.5 243.5l348 94q10 -70 65.5 -110.5t139.5 -40.5t139 35.5t63 93.5q6 32 -8.5 56.5t-47.5 41t-70 28.5t-89 26q-35 9 -53 14q-64 18 -114 38.5t-106.5 57.5t-91 81.5t-52 113.5t-3.5 151q28 185 195.5 307.5
t400.5 122.5q195 0 315 -95.5t144 -262.5l-328 -90q-29 143 -176 143q-82 0 -136 -39.5t-62 -95.5q-4 -26 6.5 -48t28 -36.5t51.5 -29.5t62.5 -24t74.5 -23q5 -1 8 -2l7.5 -2.5t8.5 -2.5z" />
    <glyph glyph-name="scedilla" unicode="&#x15f;" horiz-adv-x="1046" 
d="M809 580q179 -77 149 -265q-25 -151 -144.5 -244t-307.5 -108l-6 -12q83 2 131.5 -50t36.5 -130q-14 -90 -83.5 -148.5t-174.5 -58.5q-78 -1 -131.5 32t-73.5 87l108 67q28 -60 99 -57q41 0 68.5 22.5t33.5 55.5q7 50 -49.5 70.5t-134.5 -1.5l45 125q-139 15 -241 95.5
t-122 195.5l297 88q14 -57 59 -89t117 -32q62 0 105.5 26t50.5 70q5 28 -17 43t-65 21t-91 9.5t-108 14.5t-104 31q-169 79 -137 262q26 148 164.5 246t314.5 98q162 0 263 -76.5t120 -203.5l-291 -78q-3 54 -37 84.5t-90 30.5q-55 0 -95.5 -27t-45.5 -65q-4 -32 19 -50.5
t67.5 -26t93 -12t107.5 -14t100 -26.5z" />
    <glyph glyph-name="Scaron" unicode="&#x160;" horiz-adv-x="1204" 
d="M664 1595l-166 299h202l84 -157l134 157h204l-260 -299h-198zM526 -20q-202 0 -338.5 100t-162.5 268l348 94q10 -70 65.5 -110.5t139.5 -40.5t139 35.5t63 93.5q6 32 -8.5 56.5t-47.5 41t-70 28.5t-89 26q-35 9 -53 14q-64 18 -114 38.5t-106.5 57.5t-91 81.5t-52 113.5
t-3.5 151q28 185 195.5 307.5t400.5 122.5q195 0 315 -95.5t144 -262.5l-328 -90q-29 143 -176 143q-82 0 -136 -39.5t-62 -95.5q-4 -26 6.5 -48t28 -36.5t51.5 -29.5t62.5 -24t74.5 -23q5 -1 8 -2l7.5 -2.5t8.5 -2.5q71 -20 116.5 -36t111 -51.5t101.5 -77.5t56.5 -111
t6.5 -154q-31 -201 -198 -320.5t-413 -119.5z" />
    <glyph glyph-name="scaron" unicode="&#x161;" horiz-adv-x="1046" 
d="M524 1176l-166 299h203l84 -158l133 158h205l-260 -299h-199zM434 -39q-158 0 -279 83.5t-143 211.5l297 88q14 -57 59 -89t117 -32q62 0 105.5 26t50.5 70q5 28 -17 43t-65 21t-91 9.5t-108 14.5t-104 31q-169 79 -137 262q26 148 164.5 246t314.5 98q162 0 263 -76.5
t120 -203.5l-291 -78q-3 54 -37 84.5t-90 30.5q-55 0 -95.5 -27t-45.5 -65q-4 -32 19 -50.5t67.5 -26t93 -12t107.5 -14t100 -26.5q179 -77 149 -265q-26 -164 -166.5 -259t-357.5 -95z" />
    <glyph glyph-name="uni0162" unicode="&#x162;" horiz-adv-x="1306" 
d="M170 1434h1255l-47 -304h-454l-179 -1130h-129l-20 -49q83 2 131.5 -50t36.5 -130q-14 -90 -83.5 -148.5t-174.5 -58.5q-78 -1 -131.5 32t-73.5 87l109 67q28 -60 98 -57q41 0 68.5 22.5t33.5 55.5q7 50 -49.5 70.5t-134.5 -1.5l59 160h-86l181 1130h-457z" />
    <glyph glyph-name="uni0163" unicode="&#x163;" horiz-adv-x="929" 
d="M602 729l-47 -291q-12 -78 27.5 -122t119.5 -44q52 0 113 23l-43 -264q-60 -18 -113 -27l-20 -51q83 2 131.5 -50t36.5 -130q-14 -90 -83.5 -148.5t-174.5 -58.5q-78 -1 -131.5 32t-73.5 87l109 67q28 -60 98 -57q41 0 68.5 22.5t33.5 55.5q7 50 -49.5 70.5t-134.5 -1.5
l57 156q-169 10 -252 116t-55 267l55 348h-206l47 285h204l48 295h325l-47 -295h279l-45 -285h-277z" />
    <glyph glyph-name="Tcaron" unicode="&#x164;" horiz-adv-x="1306" 
d="M725 1595l-166 299h203l84 -157l133 157h205l-260 -299h-199zM399 0l181 1130h-457l47 304h1255l-47 -304h-454l-179 -1130h-346z" />
    <glyph glyph-name="tcaron" unicode="&#x165;" horiz-adv-x="929" 
d="M449 1473l-166 299h202l84 -158l133 158h205l-260 -299h-198zM563 -4q-187 0 -280.5 107t-63.5 278l55 348h-206l47 285h204l48 295h325l-47 -295h279l-45 -285h-277l-47 -291q-12 -78 27.5 -122t119.5 -44q52 0 113 23l-43 -264q-106 -35 -209 -35z" />
    <glyph glyph-name="Tbar" unicode="&#x166;" horiz-adv-x="1306" 
d="M1378 1130h-454l-47 -299h213l-35 -229h-215l-95 -602h-346l97 602h-217l34 229h219l48 299h-457l47 304h1255z" />
    <glyph glyph-name="tbar" unicode="&#x167;" horiz-adv-x="933" 
d="M881 729h-277l-12 -82h276l-28 -164h-275l-6 -45q-13 -77 26.5 -121.5t119.5 -44.5q53 0 114 23l-43 -264q-106 -35 -211 -35q-187 0 -279.5 107t-64.5 278l17 102h-207l28 164h205l15 82h-207l45 285h207l47 295h325l-47 -295h277z" />
    <glyph glyph-name="Utilde" unicode="&#x168;" horiz-adv-x="1501" 
d="M799 1634q-51 0 -99.5 30t-70.5 67l110 118q40 -43 92 -43q42 0 115.5 32t122.5 32q105 0 170 -101l-111 -118q-32 47 -96 47q-37 0 -111 -32t-122 -32zM670 -20q-131 0 -242 47.5t-184.5 128.5t-106 195t-12.5 241l133 842h348l-121 -775q-14 -69 -5 -131.5t33.5 -109.5
t78.5 -75t131 -28q145 0 232.5 97.5t109.5 246.5l123 775h348l-133 -842q-44 -287 -240.5 -449.5t-492.5 -162.5z" />
    <glyph glyph-name="utilde" unicode="&#x169;" horiz-adv-x="1275" 
d="M627 1214q-51 0 -99.5 30t-70.5 67l110 119q40 -44 92 -44q42 0 115.5 32t122.5 32q105 0 170 -100l-111 -119q-32 47 -96 47q-37 0 -111 -32t-122 -32zM451 -12q-87 0 -160 33.5t-124.5 95.5t-72.5 157.5t-2 210.5l84 529h332l-80 -492q-20 -121 22.5 -188.5
t135.5 -67.5q96 0 159 69t82 189l80 490h332l-162 -1014h-327l20 119h-4q-124 -131 -315 -131z" />
    <glyph glyph-name="Umacron" unicode="&#x16a;" horiz-adv-x="1501" 
d="M647 1653l33 196h541l-31 -196h-543zM670 -20q-131 0 -242 47.5t-184.5 128.5t-106 195t-12.5 241l133 842h348l-121 -775q-14 -69 -5 -131.5t33.5 -109.5t78.5 -75t131 -28q145 0 232.5 97.5t109.5 246.5l123 775h348l-133 -842q-44 -287 -240.5 -449.5t-492.5 -162.5z
" />
    <glyph glyph-name="umacron" unicode="&#x16b;" horiz-adv-x="1275" 
d="M475 1233l33 197h541l-31 -197h-543zM451 -12q-87 0 -160 33.5t-124.5 95.5t-72.5 157.5t-2 210.5l84 529h332l-80 -492q-20 -121 22.5 -188.5t135.5 -67.5q96 0 159 69t82 189l80 490h332l-162 -1014h-327l20 119h-4q-124 -131 -315 -131z" />
    <glyph glyph-name="Uring" unicode="&#x16e;" horiz-adv-x="1501" 
d="M907 1583q-70 0 -111 50t-30 120q11 67 67 116.5t128 49.5q67 0 108.5 -50t30.5 -116q-11 -70 -66 -120t-127 -50zM926 1698q22 0 39 15.5t20 37.5q4 21 -9 37t-34 16q-23 0 -40.5 -15.5t-20.5 -37.5q-5 -22 8.5 -37.5t36.5 -15.5zM670 -20q-131 0 -242 47.5
t-184.5 128.5t-106 195t-12.5 241l133 842h348l-121 -775q-14 -69 -5 -131.5t33.5 -109.5t78.5 -75t131 -28q145 0 232.5 97.5t109.5 246.5l123 775h348l-133 -842q-44 -287 -240.5 -449.5t-492.5 -162.5z" />
    <glyph glyph-name="uring" unicode="&#x16f;" horiz-adv-x="1275" 
d="M735 1163q-70 0 -111 50t-30 120q11 68 66.5 117t127.5 49q67 0 109 -50t31 -116q-11 -70 -66 -120t-127 -50zM754 1278q22 0 39 15.5t20 37.5q4 21 -9 37t-34 16q-23 0 -40.5 -15.5t-20.5 -37.5q-5 -22 8.5 -37.5t36.5 -15.5zM451 -12q-87 0 -160 33.5t-124.5 95.5
t-72.5 157.5t-2 210.5l84 529h332l-80 -492q-20 -121 22.5 -188.5t135.5 -67.5q96 0 159 69t82 189l80 490h332l-162 -1014h-327l20 119h-4q-124 -131 -315 -131z" />
    <glyph glyph-name="Uhungarumlaut" unicode="&#x170;" horiz-adv-x="1501" 
d="M670 1595l188 299h215l-225 -299h-178zM971 1595l186 299h217l-225 -299h-178zM670 -20q-131 0 -242 47.5t-184.5 128.5t-106 195t-12.5 241l133 842h348l-121 -775q-14 -69 -5 -131.5t33.5 -109.5t78.5 -75t131 -28q145 0 232.5 97.5t109.5 246.5l123 775h348l-133 -842
q-44 -287 -240.5 -449.5t-492.5 -162.5z" />
    <glyph glyph-name="uhungarumlaut" unicode="&#x171;" horiz-adv-x="1275" 
d="M498 1176l188 299h215l-225 -299h-178zM799 1176l186 299h217l-225 -299h-178zM451 -12q-87 0 -160 33.5t-124.5 95.5t-72.5 157.5t-2 210.5l84 529h332l-80 -492q-20 -121 22.5 -188.5t135.5 -67.5q96 0 159 69t82 189l80 490h332l-162 -1014h-327l20 119h-4
q-124 -131 -315 -131z" />
    <glyph glyph-name="Uogonek" unicode="&#x172;" horiz-adv-x="1501" 
d="M1188 1434h348l-133 -842q-38 -248 -192.5 -404.5t-391.5 -195.5q-92 -43 -108 -125q-8 -55 31 -83t100 -28l-39 -241q-158 -8 -243.5 59t-63.5 209q20 120 137 197q-165 9 -290.5 91t-184.5 219.5t-33 301.5l133 842h348l-121 -775q-14 -69 -5 -131.5t33.5 -109.5
t78.5 -75t131 -28q145 0 232.5 97.5t109.5 246.5z" />
    <glyph glyph-name="uogonek" unicode="&#x173;" horiz-adv-x="1275" 
d="M879 0q-99 -44 -115 -127q-8 -55 31 -83t100 -28l-39 -241q-158 -8 -243.5 59t-63.5 209q13 78 70 139.5t135 98.5l16 92h-4q-124 -131 -315 -131q-87 0 -160 33.5t-124.5 95.5t-72.5 157.5t-2 210.5l84 529h332l-80 -492q-20 -121 22.5 -188.5t135.5 -67.5q96 0 159 69
t82 189l80 490h332l-162 -1014h-198z" />
    <glyph glyph-name="Wcircumflex" unicode="&#x174;" horiz-adv-x="2181" 
d="M909 1606l265 292h235l168 -292h-231l-78 147l-127 -147h-232zM369 0l-209 1434h352l115 -955l434 955h305l174 -953l391 953h381l-649 -1434h-342l-170 901l-422 -901h-360z" />
    <glyph glyph-name="wcircumflex" unicode="&#x175;" horiz-adv-x="1863" 
d="M692 1186l264 293h236l168 -293h-232l-77 147l-127 -147h-232zM291 0l-197 1014h328l90 -649l315 649h344l113 -649l279 649h364l-508 -1014h-332l-131 633l-319 -633h-346z" />
    <glyph glyph-name="Ycircumflex" unicode="&#x176;" horiz-adv-x="1380" 
d="M496 1606l264 292h235l168 -292h-231l-78 147l-127 -147h-231zM438 0l86 567l-368 867h376l207 -535l348 535h433l-648 -867l-86 -567h-348z" />
    <glyph glyph-name="ycircumflex" unicode="&#x177;" horiz-adv-x="1179" 
d="M330 1192l264 293h235l168 -293h-231l-78 147l-127 -147h-231zM-63 -512l53 324q123 0 200 33.5t125 113.5l33 57l-262 998h328l139 -680l332 680h368l-643 -1157q-79 -140 -179.5 -222.5t-217.5 -114.5t-276 -32z" />
    <glyph glyph-name="Ydieresis" unicode="&#x178;" horiz-adv-x="1380" 
d="M637 1616q-57 0 -91.5 40.5t-25.5 98.5q9 53 55.5 92t102.5 39q57 0 90.5 -39t24.5 -92q-9 -58 -54.5 -98.5t-101.5 -40.5zM1030 1616q-59 0 -93.5 40t-25.5 97q9 55 56 94t106 39q54 0 88 -39t25 -94q-9 -57 -54.5 -97t-101.5 -40zM438 0l86 567l-368 867h376l207 -535
l348 535h433l-648 -867l-86 -567h-348z" />
    <glyph glyph-name="Zacute" unicode="&#x179;" horiz-adv-x="1218" 
d="M643 1602l188 299h254l-225 -299h-217zM-2 0l49 297l741 825h-612l47 312h1061l-49 -297l-741 -826h641l-48 -311h-1089z" />
    <glyph glyph-name="zacute" unicode="&#x17a;" horiz-adv-x="1110" 
d="M555 1182l188 299h254l-225 -299h-217zM-10 0l47 303l579 428h-485l45 283h940l-45 -289l-582 -442h533l-45 -283h-987z" />
    <glyph glyph-name="Zdotaccent" unicode="&#x17b;" horiz-adv-x="1218" 
d="M756 1602q-65 0 -103.5 44.5t-29.5 108.5q9 60 61 104t115 44t101.5 -44t27.5 -104q-9 -64 -59.5 -108.5t-112.5 -44.5zM-2 0l49 297l741 825h-612l47 312h1061l-49 -297l-741 -826h641l-48 -311h-1089z" />
    <glyph glyph-name="zdotaccent" unicode="&#x17c;" horiz-adv-x="1110" 
d="M670 1182q-65 0 -103.5 44.5t-29.5 108.5q9 60 61 104t115 44t101.5 -44t27.5 -104q-9 -64 -59.5 -108.5t-112.5 -44.5zM-10 0l47 303l579 428h-485l45 283h940l-45 -289l-582 -442h533l-45 -283h-987z" />
    <glyph glyph-name="Zcaron" unicode="&#x17d;" horiz-adv-x="1218" 
d="M653 1595l-166 299h203l84 -157l133 157h205l-260 -299h-199zM-2 0l49 297l741 825h-612l47 312h1061l-49 -297l-741 -826h641l-48 -311h-1089z" />
    <glyph glyph-name="zcaron" unicode="&#x17e;" horiz-adv-x="1110" 
d="M565 1176l-166 299h203l84 -158l133 158h205l-260 -299h-199zM-10 0l47 303l579 428h-485l45 283h940l-45 -289l-582 -442h533l-45 -283h-987z" />
    <glyph glyph-name="uni0189" unicode="&#x189;" horiz-adv-x="1501" 
d="M850 1436q106 0 205 -29.5t183.5 -89.5t143 -144t82 -201.5t2.5 -252.5q-27 -171 -100.5 -308t-180.5 -226.5t-242 -137t-288 -47.5h-606l96 602h-118l34 229h119l96 603zM1122 719q15 98 -4.5 173t-68 119.5t-115 66.5t-150.5 22l-213 -2l-43 -267h310l-35 -229h-309
l-43 -266h229q172 0 291.5 95t150.5 288z" />
    <glyph glyph-name="uni018E" unicode="&#x18e;" horiz-adv-x="1230" 
d="M1247 1434l-225 -1434h-1036l49 305h688l41 260h-674l45 297h674l43 266h-690l49 306h1036z" />
    <glyph glyph-name="uni018F" unicode="&#x18f;" horiz-adv-x="1583" 
d="M932 1454q193 0 346.5 -102t226.5 -272.5t43 -362.5q-25 -152 -98.5 -287t-183 -234.5t-257 -157.5t-311.5 -58q-102 0 -193 28t-160.5 78t-124.5 119t-85 151t-42 173.5t5 187.5l19 121h1091q-12 139 -101.5 221t-221.5 82q-231 0 -377 -187l-211 201q123 139 288.5 219
t346.5 80zM748 283q135 0 243.5 70t165.5 204h-733q15 -133 101.5 -203.5t222.5 -70.5z" />
    <glyph glyph-name="florin" unicode="&#x192;" horiz-adv-x="944" 
d="M-78 -512l51 322q74 0 127.5 43t69.5 145l117 731h-207l45 285h207l22 149q28 171 162.5 279t319.5 108q103 0 200 -32l-82 -297q-43 16 -94 16q-71 0 -124.5 -39.5t-67.5 -122.5l-9 -61h275l-45 -285h-275l-125 -774q-75 -458 -567 -467z" />
    <glyph glyph-name="Ohorn" unicode="&#x1a0;" horiz-adv-x="1603" 
d="M1628 1446q-3 -80 -47.5 -143.5t-120.5 -100.5q154 -212 109 -485q-25 -153 -97 -287t-180.5 -234.5t-257 -158t-317.5 -57.5q-97 0 -187 26.5t-163 74t-132 115t-93.5 149t-48 176t4.5 196.5q25 152 100 287t185.5 234.5t258 157.5t308.5 58q237 0 410 -143
q74 31 80 106q3 79 -92 158l194 78q91 -105 86 -207zM1221 717q26 168 -67 282.5t-257 114.5q-165 0 -294 -114.5t-157 -282.5t65.5 -283t258.5 -115q164 0 293.5 115t157.5 283z" />
    <glyph glyph-name="ohorn" unicode="&#x1a1;" horiz-adv-x="1236" 
d="M1219 1047q-6 -130 -111 -209q87 -145 59 -330q-38 -239 -214 -388t-421 -149q-105 0 -198 40.5t-157.5 110.5t-94.5 171.5t-12 214.5q38 240 217 391.5t418 151.5q174 0 301 -99q21 27 24 66q3 79 -92 158l195 77q91 -105 86 -206zM838 506q15 102 -38 168.5t-145 66.5
q-92 2 -166.5 -65.5t-89.5 -169.5q-15 -99 37.5 -166.5t143.5 -67.5q92 -1 166.5 66.5t91.5 167.5z" />
    <glyph glyph-name="Uhorn" unicode="&#x1af;" horiz-adv-x="1501" 
d="M1614 1780q91 -105 86 -207q-3 -84 -50.5 -149t-129.5 -99l-117 -733q-44 -287 -240.5 -449.5t-492.5 -162.5q-131 0 -242 47.5t-184.5 128.5t-106 195t-12.5 241l133 842h348l-121 -775q-14 -69 -5 -131.5t33.5 -109.5t78.5 -75t131 -28q145 0 232.5 97.5t109.5 246.5
l123 775h235q37 12 61 41.5t27 68.5q3 79 -92 158z" />
    <glyph glyph-name="uhorn" unicode="&#x1b0;" horiz-adv-x="1275" 
d="M1327 1356q91 -105 86 -207q-3 -87 -54 -153.5t-138 -100.5l-144 -895h-327l20 119h-4q-124 -131 -315 -131q-87 0 -160 33.5t-124.5 95.5t-72.5 157.5t-2 210.5l84 529h332l-80 -492q-20 -121 22.5 -188.5t135.5 -67.5q96 0 159 69t82 189l80 490h240q33 14 54 42t24 64
q3 79 -92 158z" />
    <glyph glyph-name="uni01CD" unicode="&#x1cd;" horiz-adv-x="1527" 
d="M834 1595l-166 299h202l84 -157l133 157h205l-260 -299h-198zM-72 0l799 1434h360l355 -1434h-365l-47 215h-596l-115 -215h-391zM594 528h373l-109 506h-6z" />
    <glyph glyph-name="uni01CE" unicode="&#x1ce;" horiz-adv-x="1292" 
d="M664 1176l-166 299h202l84 -158l134 158h204l-260 -299h-198zM451 -18q-127 0 -223.5 68.5t-140.5 190t-21 267.5q36 226 189.5 375t358.5 149q191 0 289 -141l19 123h331l-159 -1014h-332l18 115q-127 -133 -329 -133zM575 266q98 0 174 68t93 174q19 103 -36 172.5
t-153 69.5q-95 0 -170 -69t-94 -173q-17 -103 37 -172.5t149 -69.5z" />
    <glyph glyph-name="uni01CF" unicode="&#x1cf;" horiz-adv-x="606" 
d="M375 1595l-166 299h203l84 -157l133 157h205l-261 -299h-198zM51 0l225 1434h349l-226 -1434h-348z" />
    <glyph glyph-name="uni01D0" unicode="&#x1d0;" horiz-adv-x="532" 
d="M272 1176l-166 299h203l84 -158l133 158h205l-260 -299h-199zM25 0l159 1014h324l-160 -1014h-323z" />
    <glyph glyph-name="uni01D1" unicode="&#x1d1;" horiz-adv-x="1603" 
d="M874 1595l-165 299h202l84 -157l133 157h205l-260 -299h-199zM717 -20q-97 0 -187 26.5t-163 74t-132 115t-93.5 149t-48 176t4.5 196.5q25 152 100 287t185.5 234.5t258 157.5t308.5 58q97 0 187 -26.5t163 -74t132 -115t93.5 -149t48 -176t-4.5 -196.5
q-25 -153 -97 -287t-180.5 -234.5t-257 -158t-317.5 -57.5zM770 319q164 0 293.5 115t157.5 283q26 168 -67 282.5t-257 114.5q-165 0 -294 -114.5t-157 -282.5t65.5 -283t258.5 -115z" />
    <glyph glyph-name="uni01D2" unicode="&#x1d2;" horiz-adv-x="1236" 
d="M625 1176l-166 299h203l83 -158l134 158h204l-260 -299h-198zM532 -29q-105 0 -198 40.5t-157.5 110.5t-94.5 171.5t-12 214.5q38 240 217 391.5t418 151.5q155 0 270 -75.5t164.5 -199.5t27.5 -268q-38 -239 -214 -388t-421 -149zM580 272q92 -1 166.5 66.5t91.5 167.5
q15 102 -38 168.5t-145 66.5q-92 2 -166.5 -65.5t-89.5 -169.5q-15 -99 37.5 -166.5t143.5 -67.5z" />
    <glyph glyph-name="uni01D3" unicode="&#x1d3;" horiz-adv-x="1501" 
d="M809 1595l-166 299h203l84 -157l133 157h205l-260 -299h-199zM670 -20q-131 0 -242 47.5t-184.5 128.5t-106 195t-12.5 241l133 842h348l-121 -775q-14 -69 -5 -131.5t33.5 -109.5t78.5 -75t131 -28q145 0 232.5 97.5t109.5 246.5l123 775h348l-133 -842
q-44 -287 -240.5 -449.5t-492.5 -162.5z" />
    <glyph glyph-name="uni01D4" unicode="&#x1d4;" horiz-adv-x="1275" 
d="M637 1176l-166 299h203l84 -158l133 158h205l-260 -299h-199zM451 -12q-87 0 -160 33.5t-124.5 95.5t-72.5 157.5t-2 210.5l84 529h332l-80 -492q-20 -121 22.5 -188.5t135.5 -67.5q96 0 159 69t82 189l80 490h332l-162 -1014h-327l20 119h-4q-124 -131 -315 -131z" />
    <glyph glyph-name="uni01D5" unicode="&#x1d5;" horiz-adv-x="1501" 
d="M719 2105l33 197h540l-30 -197h-543zM719 1616q-57 0 -91.5 40.5t-25.5 98.5q9 53 55.5 92t102.5 39t89.5 -39t24.5 -92q-9 -58 -54 -98.5t-101 -40.5zM1112 1616q-59 0 -93.5 40t-25.5 97q9 55 56 94t106 39q54 0 88 -39t25 -94q-9 -57 -54.5 -97t-101.5 -40zM670 -20
q-131 0 -242 47.5t-184.5 128.5t-106 195t-12.5 241l133 842h348l-121 -775q-14 -69 -5 -131.5t33.5 -109.5t78.5 -75t131 -28q145 0 232.5 97.5t109.5 246.5l123 775h348l-133 -842q-44 -287 -240.5 -449.5t-492.5 -162.5z" />
    <glyph glyph-name="uni01D6" unicode="&#x1d6;" horiz-adv-x="1275" 
d="M547 1686l33 196h540l-30 -196h-543zM547 1196q-57 0 -91.5 40.5t-25.5 98.5q9 53 55.5 92t102.5 39t89.5 -39t24.5 -92q-9 -58 -54 -98.5t-101 -40.5zM940 1196q-59 0 -93.5 40t-25.5 97q9 55 56 94t106 39q54 0 88 -39t25 -94q-9 -57 -54.5 -97t-101.5 -40zM451 -12
q-87 0 -160 33.5t-124.5 95.5t-72.5 157.5t-2 210.5l84 529h332l-80 -492q-20 -121 22.5 -188.5t135.5 -67.5q96 0 159 69t82 189l80 490h332l-162 -1014h-327l20 119h-4q-124 -131 -315 -131z" />
    <glyph glyph-name="uni01D7" unicode="&#x1d7;" horiz-adv-x="1501" 
d="M872 2054l189 299h254l-225 -299h-218zM719 1616q-57 0 -91.5 40.5t-25.5 98.5q9 53 55.5 92t102.5 39t89.5 -39t24.5 -92q-9 -58 -54 -98.5t-101 -40.5zM1112 1616q-59 0 -93.5 40t-25.5 97q9 55 56 94t106 39q54 0 88 -39t25 -94q-9 -57 -54.5 -97t-101.5 -40zM670 -20
q-131 0 -242 47.5t-184.5 128.5t-106 195t-12.5 241l133 842h348l-121 -775q-14 -69 -5 -131.5t33.5 -109.5t78.5 -75t131 -28q145 0 232.5 97.5t109.5 246.5l123 775h348l-133 -842q-44 -287 -240.5 -449.5t-492.5 -162.5z" />
    <glyph glyph-name="uni01D8" unicode="&#x1d8;" horiz-adv-x="1275" 
d="M700 1634l189 299h254l-225 -299h-218zM547 1196q-57 0 -91.5 40.5t-25.5 98.5q9 53 55.5 92t102.5 39t89.5 -39t24.5 -92q-9 -58 -54 -98.5t-101 -40.5zM940 1196q-59 0 -93.5 40t-25.5 97q9 55 56 94t106 39q54 0 88 -39t25 -94q-9 -57 -54.5 -97t-101.5 -40zM451 -12
q-87 0 -160 33.5t-124.5 95.5t-72.5 157.5t-2 210.5l84 529h332l-80 -492q-20 -121 22.5 -188.5t135.5 -67.5q96 0 159 69t82 189l80 490h332l-162 -1014h-327l20 119h-4q-124 -131 -315 -131z" />
    <glyph glyph-name="uni01D9" unicode="&#x1d9;" horiz-adv-x="1501" 
d="M883 2050l-166 299h203l84 -158l133 158h204l-260 -299h-198zM719 1616q-57 0 -91.5 40.5t-25.5 98.5q9 53 55.5 92t102.5 39t89.5 -39t24.5 -92q-9 -58 -54 -98.5t-101 -40.5zM1112 1616q-59 0 -93.5 40t-25.5 97q9 55 56 94t106 39q54 0 88 -39t25 -94
q-9 -57 -54.5 -97t-101.5 -40zM670 -20q-131 0 -242 47.5t-184.5 128.5t-106 195t-12.5 241l133 842h348l-121 -775q-14 -69 -5 -131.5t33.5 -109.5t78.5 -75t131 -28q145 0 232.5 97.5t109.5 246.5l123 775h348l-133 -842q-44 -287 -240.5 -449.5t-492.5 -162.5z" />
    <glyph glyph-name="uni01DA" unicode="&#x1da;" horiz-adv-x="1275" 
d="M711 1630l-166 299h203l83 -157l134 157h204l-260 -299h-198zM547 1196q-57 0 -91.5 40.5t-25.5 98.5q9 53 55.5 92t102.5 39t89.5 -39t24.5 -92q-9 -58 -54 -98.5t-101 -40.5zM940 1196q-59 0 -93.5 40t-25.5 97q9 55 56 94t106 39q54 0 88 -39t25 -94q-9 -57 -54.5 -97
t-101.5 -40zM451 -12q-87 0 -160 33.5t-124.5 95.5t-72.5 157.5t-2 210.5l84 529h332l-80 -492q-20 -121 22.5 -188.5t135.5 -67.5q96 0 159 69t82 189l80 490h332l-162 -1014h-327l20 119h-4q-124 -131 -315 -131z" />
    <glyph glyph-name="uni01DB" unicode="&#x1db;" horiz-adv-x="1501" 
d="M877 2054l-156 299h260l111 -299h-215zM719 1616q-57 0 -91.5 40.5t-25.5 98.5q9 53 55.5 92t102.5 39t89.5 -39t24.5 -92q-9 -58 -54 -98.5t-101 -40.5zM1112 1616q-59 0 -93.5 40t-25.5 97q9 55 56 94t106 39q54 0 88 -39t25 -94q-9 -57 -54.5 -97t-101.5 -40zM670 -20
q-131 0 -242 47.5t-184.5 128.5t-106 195t-12.5 241l133 842h348l-121 -775q-14 -69 -5 -131.5t33.5 -109.5t78.5 -75t131 -28q145 0 232.5 97.5t109.5 246.5l123 775h348l-133 -842q-44 -287 -240.5 -449.5t-492.5 -162.5z" />
    <glyph glyph-name="uni01DC" unicode="&#x1dc;" horiz-adv-x="1275" 
d="M705 1634l-156 299h260l111 -299h-215zM547 1196q-57 0 -91.5 40.5t-25.5 98.5q9 53 55.5 92t102.5 39t89.5 -39t24.5 -92q-9 -58 -54 -98.5t-101 -40.5zM940 1196q-59 0 -93.5 40t-25.5 97q9 55 56 94t106 39q54 0 88 -39t25 -94q-9 -57 -54.5 -97t-101.5 -40zM451 -12
q-87 0 -160 33.5t-124.5 95.5t-72.5 157.5t-2 210.5l84 529h332l-80 -492q-20 -121 22.5 -188.5t135.5 -67.5q96 0 159 69t82 189l80 490h332l-162 -1014h-327l20 119h-4q-124 -131 -315 -131z" />
    <glyph glyph-name="uni01DE" unicode="&#x1de;" horiz-adv-x="1527" 
d="M731 2046l31 195h543l-31 -195h-543zM743 1616q-57 0 -91 40.5t-25 98.5q9 53 55 92t102 39q57 0 90.5 -39t24.5 -92q-9 -58 -54.5 -98.5t-101.5 -40.5zM1137 1616q-59 0 -93.5 40t-25.5 97q9 55 56 94t106 39q54 0 87.5 -39t24.5 -94q-9 -57 -54.5 -97t-100.5 -40z
M-72 0l799 1434h360l355 -1434h-365l-47 215h-596l-115 -215h-391zM594 528h373l-109 506h-6z" />
    <glyph glyph-name="uni01DF" unicode="&#x1df;" horiz-adv-x="1292" 
d="M565 1626l31 195h543l-33 -195h-541zM571 1196q-57 0 -91 40.5t-25 98.5q9 53 55 92t102 39q57 0 90.5 -39t24.5 -92q-9 -58 -54.5 -98.5t-101.5 -40.5zM965 1196q-59 0 -93.5 40t-25.5 97q9 55 56 94t106 39q54 0 87.5 -39t24.5 -94q-9 -57 -54.5 -97t-100.5 -40z
M451 -18q-127 0 -223.5 68.5t-140.5 190t-21 267.5q36 226 189.5 375t358.5 149q191 0 289 -141l19 123h331l-159 -1014h-332l18 115q-127 -133 -329 -133zM575 266q98 0 174 68t93 174q19 103 -36 172.5t-153 69.5q-95 0 -170 -69t-94 -173q-17 -103 37 -172.5t149 -69.5z
" />
    <glyph glyph-name="Gcaron" unicode="&#x1e6;" horiz-adv-x="1558" 
d="M1065 1595h-199l-166 299h203l84 -157l133 157h205zM1530 782l-37 -252l-12 -77q-97 -226 -300 -349.5t-462 -123.5q-152 0 -279.5 58t-210.5 157t-119 235.5t-12 286.5q33 203 151.5 371t303.5 267t399 99q212 0 356.5 -97.5t209.5 -266.5l-334 -164q-84 186 -289 186
q-165 0 -294.5 -114.5t-154.5 -280.5q-26 -177 67 -294.5t259 -117.5q215 0 350 150l11 75h-271l37 252h631z" />
    <glyph glyph-name="gcaron" unicode="&#x1e7;" horiz-adv-x="1294" 
d="M600 1176l-166 299h203l84 -158l133 158h205l-260 -299h-199zM444 -512q-165 0 -298.5 65t-194.5 171l250 188q100 -135 264 -135q47 0 94.5 16.5t91.5 49t77 87.5t44 125l10 62q-132 -135 -321 -135q-100 0 -182.5 40.5t-135 110t-73.5 167.5t-4 208q37 228 194 376
t365 148q91 0 163 -36.5t117 -102.5l19 121h331l-149 -936q-19 -122 -65.5 -221.5t-110.5 -167t-144 -113.5t-165.5 -67t-176.5 -21zM571 266q100 0 178 69t93 173q19 103 -36 172.5t-151 69.5q-97 0 -172 -69t-92 -173q-15 -104 37 -173t143 -69z" />
    <glyph glyph-name="Oslashacute" unicode="&#x1fe;" horiz-adv-x="1603" 
d="M1307 1901l-226 -299h-217l189 299h254zM1339 1325q134 -102 197 -262.5t33 -345.5q-25 -153 -97 -287t-180.5 -234.5t-257 -158t-317.5 -57.5q-114 0 -215 34l-78 -123h-236l140 218q-134 102 -197 262.5t-33 345.5q25 152 100 287t185.5 234.5t258 157.5t308.5 58
q112 0 215 -35l78 123h236zM446 717q-29 -178 78 -299l443 690q-35 6 -70 6q-165 0 -294 -114.5t-157 -282.5zM1221 717q13 89 -8 166t-72 131l-441 -688q40 -7 70 -7q164 0 293.5 115t157.5 283z" />
    <glyph glyph-name="oslashacute" unicode="&#x1ff;" horiz-adv-x="1218" 
d="M1057 1481l-226 -299h-217l189 299h254zM973 977q113 -72 165 -197.5t29 -271.5q-38 -239 -214 -388t-421 -149q-91 0 -182 33l-84 -129h-135l119 184q-103 71 -153 189t-27 260q38 240 217 391.5t418 151.5q86 0 163 -25l64 98h135zM399 506q-15 -92 33 -162l252 395
q-8 2 -29 2q-92 2 -166.5 -65.5t-89.5 -169.5zM838 506q18 114 -50 182l-262 -407q24 -9 54 -9q92 -1 166.5 66.5t91.5 167.5z" />
    <glyph glyph-name="uni0218" unicode="&#x218;" horiz-adv-x="1204" 
d="M526 -20q-202 0 -338.5 100t-162.5 268l348 94q10 -70 65.5 -110.5t139.5 -40.5t139 35.5t63 93.5q6 32 -8.5 56.5t-47.5 41t-70 28.5t-89 26q-35 9 -53 14q-64 18 -114 38.5t-106.5 57.5t-91 81.5t-52 113.5t-3.5 151q28 185 195.5 307.5t400.5 122.5q195 0 315 -95.5
t144 -262.5l-328 -90q-29 143 -176 143q-82 0 -136 -39.5t-62 -95.5q-4 -26 6.5 -48t28 -36.5t51.5 -29.5t62.5 -24t74.5 -23q5 -1 8 -2l7.5 -2.5t8.5 -2.5q71 -20 116.5 -36t111 -51.5t101.5 -77.5t56.5 -111t6.5 -154q-31 -201 -198 -320.5t-413 -119.5zM240 -457l161 348
h220l-183 -348h-198z" />
    <glyph glyph-name="uni0219" unicode="&#x219;" horiz-adv-x="1046" 
d="M434 -39q-158 0 -279 83.5t-143 211.5l297 88q14 -57 59 -89t117 -32q62 0 105.5 26t50.5 70q5 28 -17 43t-65 21t-91 9.5t-108 14.5t-104 31q-169 79 -137 262q26 148 164.5 246t314.5 98q162 0 263 -76.5t120 -203.5l-291 -78q-3 54 -37 84.5t-90 30.5q-55 0 -95.5 -27
t-45.5 -65q-4 -32 19 -50.5t67.5 -26t93 -12t107.5 -14t100 -26.5q179 -77 149 -265q-26 -164 -166.5 -259t-357.5 -95zM190 -457l162 348h219l-182 -348h-199z" />
    <glyph glyph-name="uni021A" unicode="&#x21a;" horiz-adv-x="1306" 
d="M399 0l181 1130h-457l47 304h1255l-47 -304h-454l-179 -1130h-346zM289 -455l162 349h219l-183 -349h-198z" />
    <glyph glyph-name="uni021B" unicode="&#x21b;" horiz-adv-x="929" 
d="M563 -4q-187 0 -280.5 107t-63.5 278l55 348h-206l47 285h204l48 295h325l-47 -295h279l-45 -285h-277l-47 -291q-12 -78 27.5 -122t119.5 -44q52 0 113 23l-43 -264q-106 -35 -209 -35zM330 -455l162 349h219l-183 -349h-198z" />
    <glyph glyph-name="uni0228" unicode="&#x228;" horiz-adv-x="1230" 
d="M1264 1128h-689l-40 -260h673l-45 -297h-674l-43 -266h691l-50 -305h-442l-20 -49q83 2 131.5 -50t36.5 -130q-14 -90 -83.5 -148.5t-174.5 -58.5q-78 -1 -131.5 32t-73.5 87l108 67q28 -60 99 -57q41 0 68.5 22.5t33.5 55.5q7 50 -49.5 70.5t-134.5 -1.5l59 160h-463
l225 1434h1037z" />
    <glyph glyph-name="uni0229" unicode="&#x229;" horiz-adv-x="1206" 
d="M694 1051q215 0 339.5 -148t107.5 -389q-2 -37 -17 -98h-762q12 -83 70 -129.5t137 -46.5q71 0 136 26.5t110 71.5l195 -168q-84 -90 -198.5 -140.5t-244.5 -56.5l-10 -22q83 2 131.5 -50t36.5 -130q-14 -90 -83.5 -148.5t-174.5 -58.5q-78 -1 -131.5 32t-73.5 87l109 67
q28 -60 98 -57q41 0 68.5 22.5t33.5 55.5q7 50 -49.5 70.5t-134.5 -1.5l51 142q-123 23 -214 98.5t-133 195t-19 259.5q15 100 67 192.5t130.5 164.5t189.5 115.5t235 43.5zM397 625h459q-16 86 -72 129t-131 43q-78 0 -147.5 -43.5t-108.5 -128.5z" />
    <glyph glyph-name="uni0243" unicode="&#x243;" horiz-adv-x="1304" 
d="M1292 1024q-28 -185 -180 -289q72 -55 106.5 -139t20.5 -188q-32 -195 -181 -301.5t-378 -106.5h-631l53 332h-90l35 229h90l139 873h584q221 0 341.5 -111t90.5 -299zM958 995q10 68 -27.5 107t-109.5 39h-248l-45 -291h248q73 0 122.5 38.5t59.5 106.5zM905 438
q10 69 -29.5 109.5t-111.5 40.5h-277l-45 -295h277q74 0 125.5 39t60.5 106z" />
    <glyph glyph-name="uni0259" unicode="&#x259;" horiz-adv-x="1206" 
d="M680 1051q146 -1 259.5 -74t167.5 -202.5t28 -285.5q-15 -100 -67 -192.5t-131 -164.5t-190 -115.5t-235 -43.5q-214 0 -337.5 147.5t-108.5 389.5q3 43 16 98h762q-12 83 -70 129.5t-137 46.5q-71 0 -136 -26.5t-108 -71.5l-196 168q90 96 216.5 147.5t266.5 49.5z
M553 227q76 0 143 41t107 121h-449q18 -81 72.5 -121.5t126.5 -40.5z" />
    <glyph glyph-name="uni0269" unicode="&#x269;" horiz-adv-x="700" 
d="M424 -8q-181 0 -268.5 98.5t-57.5 284.5l101 639h331l-92 -576q-10 -72 26.5 -109.5t108.5 -37.5q44 0 76 14l-47 -287q-102 -26 -178 -26z" />
    <glyph glyph-name="uni0275" unicode="&#x275;" horiz-adv-x="1236" 
d="M532 -29q-105 0 -198 40.5t-157.5 110.5t-94.5 171.5t-12 214.5q38 240 217 391.5t418 151.5q155 0 270 -75.5t164.5 -199.5t27.5 -268q-38 -239 -214 -388t-421 -149zM455 627h364q-20 50 -64 78.5t-102 29.5q-57 0 -110 -28.5t-88 -79.5zM582 281q58 0 111.5 28
t88.5 78h-364q19 -49 62 -76.5t102 -29.5z" />
    <glyph glyph-name="uni02BC" unicode="&#x2bc;" horiz-adv-x="425" 
d="M102 1157l201 385h289l-240 -385h-250z" />
    <glyph glyph-name="circumflex" unicode="&#x2c6;" horiz-adv-x="667" 
d="M106 1186l265 293h235l168 -293h-231l-78 147l-127 -147h-232z" />
    <glyph glyph-name="caron" unicode="&#x2c7;" horiz-adv-x="622" 
d="M319 1182l-165 299h202l84 -158l133 158h205l-260 -299h-199z" />
    <glyph glyph-name="breve" unicode="&#x2d8;" horiz-adv-x="624" 
d="M420 1190q-133 0 -207.5 86.5t-58.5 200.5h170q-3 -31 5 -58.5t38 -49t79 -21.5q68 0 109.5 40t50.5 89h172q-10 -58 -33.5 -106.5t-64.5 -90.5t-107.5 -66t-152.5 -24z" />
    <glyph glyph-name="dotaccent" unicode="&#x2d9;" horiz-adv-x="305" 
d="M264 1182q-65 0 -103.5 44.5t-29.5 108.5q9 60 61 104t115 44t101.5 -44t27.5 -104q-9 -64 -59.5 -108.5t-112.5 -44.5z" />
    <glyph glyph-name="ring" unicode="&#x2da;" horiz-adv-x="333" 
d="M272 1163q-70 0 -111 50t-30 120q11 67 67 116.5t128 49.5q67 0 108.5 -50t30.5 -116q-11 -70 -66 -120t-127 -50zM291 1278q22 0 39 15.5t20 37.5q4 21 -9 37t-34 16q-23 0 -40.5 -15.5t-20.5 -37.5q-5 -22 8.5 -37.5t36.5 -15.5z" />
    <glyph glyph-name="ogonek" unicode="&#x2db;" horiz-adv-x="348" 
d="M-119 -244q16 94 93 162t171 98l76 -45q-109 -44 -125 -131q-8 -55 31 -82.5t100 -27.5l-39 -242q-158 -8 -243.5 59t-63.5 209z" />
    <glyph glyph-name="tilde" unicode="&#x2dc;" horiz-adv-x="591" 
d="M299 1214q-51 0 -99.5 30t-70.5 67l111 119q40 -44 92 -44q42 0 115 32t122 32q105 0 170 -100l-110 -119q-32 47 -97 47q-37 0 -111 -32t-122 -32z" />
    <glyph glyph-name="hungarumlaut" unicode="&#x2dd;" horiz-adv-x="657" 
d="M106 1182l189 299h215l-225 -299h-179zM408 1182l186 299h217l-225 -299h-178z" />
    <glyph glyph-name="gravecomb" unicode="&#x300;" 
d="M-109 1182l-155 299h260l110 -299h-215z" />
    <glyph glyph-name="acutecomb" unicode="&#x301;" 
d="M-289 1182l189 299h254l-226 -299h-217z" />
    <glyph glyph-name="uni0302" unicode="&#x302;" 
d="M-561 1186l264 293h236l167 -293h-231l-78 147l-127 -147h-231z" />
    <glyph glyph-name="tildecomb" unicode="&#x303;" 
d="M-307 1214q-51 0 -99.5 30t-70.5 67l110 119q40 -44 93 -44q42 0 115 32t122 32q105 0 170 -100l-110 -119q-32 47 -97 47q-37 0 -111 -32t-122 -32z" />
    <glyph glyph-name="uni0304" unicode="&#x304;" 
d="M-428 1233l33 197h540l-30 -197h-543z" />
    <glyph glyph-name="uni0306" unicode="&#x306;" 
d="M-205 1190q-133 0 -207.5 86.5t-58.5 200.5h170q-5 -50 23 -89.5t100 -39.5q68 0 109.5 40t50.5 89h172q-10 -58 -34 -106.5t-65 -90.5t-107.5 -66t-152.5 -24z" />
    <glyph glyph-name="uni0307" unicode="&#x307;" 
d="M-41 1182q-65 0 -103.5 44.5t-29.5 108.5q9 60 61 104t115 44t101.5 -44t27.5 -104q-9 -64 -59.5 -108.5t-112.5 -44.5z" />
    <glyph glyph-name="uni0308" unicode="&#x308;" 
d="M-418 1196q-57 0 -91.5 40.5t-25.5 98.5q9 53 55.5 92t102.5 39q57 0 90.5 -39t24.5 -92q-9 -58 -54.5 -98.5t-101.5 -40.5zM-25 1196q-58 0 -92.5 40t-25.5 97q9 56 56 94.5t105 38.5q54 0 88 -39t25 -94q-9 -57 -54.5 -97t-101.5 -40z" />
    <glyph glyph-name="hookabovecomb" unicode="&#x309;" 
d="M-55 1145l-86 86q9 8 29.5 26t28 24.5t22.5 20.5t20.5 20.5t14.5 17.5t13 19t8 18t5 20q3 25 -9.5 40t-39.5 15q-25 0 -45 -15t-29 -40l-119 61q31 59 89 94t124 35q86 0 134.5 -52t35.5 -134q-12 -84 -61.5 -141.5t-134.5 -114.5z" />
    <glyph glyph-name="uni030A" unicode="&#x30a;" 
d="M-61 1163q-70 0 -111.5 50t-30.5 120q11 67 67 116.5t128 49.5q67 0 108.5 -50t30.5 -116q-11 -70 -65.5 -120t-126.5 -50zM-43 1278q22 0 39 15.5t20 37.5q4 21 -9 37t-34 16q-23 0 -40.5 -15.5t-20.5 -37.5q-5 -22 8.5 -37.5t36.5 -15.5z" />
    <glyph glyph-name="uni030B" unicode="&#x30b;" 
d="M-551 1182l189 299h215l-226 -299h-178zM-250 1182l187 299h217l-226 -299h-178z" />
    <glyph glyph-name="uni030C" unicode="&#x30c;" 
d="M-303 1182l-166 299h203l84 -158l133 158h205l-260 -299h-199z" />
    <glyph glyph-name="uni0312" unicode="&#x312;" 
d="M-221 1157l184 348h197l-162 -348h-219z" />
    <glyph glyph-name="uni031B" unicode="&#x31b;" 
d="M-246 844l-16 131q46 9 76.5 40.5t33.5 76.5q3 78 -92 157l195 78q91 -105 86 -207q-5 -108 -81 -182.5t-202 -93.5z" />
    <glyph glyph-name="dotbelowcomb" unicode="&#x323;" 
d="M-281 -408q-59 0 -93 41t-25 101q9 54 56 92.5t105 38.5q56 0 90.5 -39t24.5 -92q-9 -59 -55.5 -100.5t-102.5 -41.5z" />
    <glyph glyph-name="uni0326" unicode="&#x326;" 
d="M-477 -455l162 349h219l-183 -349h-198z" />
    <glyph glyph-name="uni0327" unicode="&#x327;" 
d="M-375 -436q-78 -1 -131.5 32t-73.5 87l109 67q28 -60 98 -57q41 0 69 22.5t34 55.5q7 50 -50 70.5t-135 -1.5l72 195h133l-35 -84q83 2 131.5 -50t36.5 -130q-14 -90 -83.5 -148.5t-174.5 -58.5z" />
    <glyph glyph-name="uni0328" unicode="&#x328;" 
d="M-469 -244q16 94 93 162t171 98l76 -45q-109 -44 -125 -131q-8 -55 31 -82.5t100 -27.5l-39 -242q-158 -8 -243.5 59t-63.5 209z" />
    <glyph glyph-name="uni0335" unicode="&#x335;" 
d="M-764 596l35 229h776l-35 -229h-776z" />
    <glyph glyph-name="uni0336" unicode="&#x336;" 
d="M-1534 645l27 176h1556l-29 -176h-1554z" />
    <glyph glyph-name="uni0337" unicode="&#x337;" 
d="M-694 584l-82 223l772 393l80 -223z" />
    <glyph glyph-name="uni0338" unicode="&#x338;" 
d="M-1128 -125l1054 1651h236l-1055 -1651h-235z" />
    <glyph glyph-name="uni0345" unicode="&#x345;" 
d="M-348 -471q-142 0 -204.5 78.5t-43.5 210.5l16 92h232l-12 -74q-20 -125 114 -129q53 0 123 25l-27 -162q-83 -41 -198 -41z" />
    <glyph glyph-name="uni0372" unicode="&#x372;" horiz-adv-x="1515" 
d="M1632 1434l-26 -177l-76 -483h-283l56 356h-283l-178 -1130h-332l180 1130h-287l-55 -356h-280l55 356l47 304h1462z" />
    <glyph glyph-name="uni0373" unicode="&#x373;" horiz-adv-x="1216" 
d="M1276 1014l-45 -279h-402l-196 -1247h-322l197 1247h-76q-101 0 -170 -11t-139 -38l-33 268q111 35 187.5 47.5t205.5 12.5h793z" />
    <glyph glyph-name="uni0374" unicode="&#x374;" horiz-adv-x="391" 
d="M100 879l140 555h258l-179 -555h-219z" />
    <glyph glyph-name="uni0375" unicode="&#x375;" horiz-adv-x="387" 
d="M-82 -268l178 555h215l-139 -555h-254z" />
    <glyph glyph-name="uni0376" unicode="&#x376;" horiz-adv-x="1556" 
d="M51 0l225 1434h349l-131 -846l708 846h371l-225 -1434h-349l134 846l-711 -846h-371z" />
    <glyph glyph-name="uni0377" unicode="&#x377;" horiz-adv-x="1296" 
d="M946 1014h311l-159 -1014h-312l88 553l-526 -553h-309l160 1014h309l-88 -555z" />
    <glyph glyph-name="uni037A" unicode="&#x37a;" horiz-adv-x="485" 
d="M137 -471q-142 0 -204.5 78.5t-43.5 210.5l17 92h231l-12 -74q-20 -125 115 -129q52 0 122 25l-26 -162q-83 -41 -199 -41z" />
    <glyph glyph-name="uni037E" unicode="&#x37e;" horiz-adv-x="495" 
d="M299 723q-71 0 -113 49.5t-32 122.5q11 65 69.5 114.5t126.5 49.5q70 0 113.5 -49.5t32.5 -114.5q-10 -72 -68.5 -122t-128.5 -50zM-115 -350l172 483h308l-195 -483h-285z" />
    <glyph glyph-name="tonos" unicode="&#x384;" horiz-adv-x="276" 
d="M281 1137l-177 26l119 377l211 -31z" />
    <glyph glyph-name="dieresistonos" unicode="&#x385;" horiz-adv-x="665" 
d="M559 1507l-162 23l111 346l194 -29zM248 1196q-57 0 -91.5 40.5t-25.5 98.5q9 53 55.5 92t102.5 39t89.5 -39t24.5 -92q-9 -58 -54 -98.5t-101 -40.5zM641 1196q-59 0 -93.5 40t-25.5 97q9 55 56 94t106 39q54 0 88 -39t25 -94q-9 -57 -54.5 -97t-101.5 -40z" />
    <glyph glyph-name="Alphatonos" unicode="&#x386;" horiz-adv-x="1527" 
d="M354 1065l-176 27l121 376l211 -32zM-72 0l799 1434h360l355 -1434h-365l-47 215h-596l-115 -215h-391zM594 528h373l-109 506h-6z" />
    <glyph glyph-name="anoteleia" unicode="&#x387;" horiz-adv-x="491" 
d="M225 371q-75 0 -121 54t-34 132q11 71 74.5 123.5t138.5 52.5q74 0 120.5 -53t34.5 -123q-12 -77 -74.5 -131.5t-138.5 -54.5z" />
    <glyph glyph-name="Epsilontonos" unicode="&#x388;" horiz-adv-x="1531" 
d="M309 1065l-176 27l121 374l211 -30zM350 0l225 1434h1037l-47 -306h-691l-38 -260h673l-47 -297h-674l-43 -266h691l-50 -305h-1036z" />
    <glyph glyph-name="Etatonos" unicode="&#x389;" horiz-adv-x="1818" 
d="M309 1065l-176 27l121 374l211 -30zM315 0l226 1434h348l-86 -557h596l88 557h350l-225 -1434h-350l86 549h-596l-88 -549h-349z" />
    <glyph glyph-name="Iotatonos" unicode="&#x38a;" horiz-adv-x="876" 
d="M309 1065l-176 27l121 374l211 -30zM319 0l226 1434h348l-225 -1434h-349z" />
    <glyph glyph-name="Omicrontonos" unicode="&#x38c;" horiz-adv-x="1824" 
d="M301 1065l-176 27l121 374l211 -30zM940 -20q-145 0 -271 58.5t-210.5 156.5t-122.5 235t-14 287q25 152 100 287t185.5 234.5t258 157.5t308.5 58q116 0 221 -37t185 -105.5t134.5 -158.5t74.5 -203t1 -233q-25 -153 -96.5 -287t-179.5 -234.5t-256.5 -158t-317.5 -57.5
zM991 319q165 0 295 115t156 283q28 168 -65.5 282.5t-258.5 114.5q-164 0 -293 -114.5t-155 -282.5q-28 -168 64.5 -283t256.5 -115z" />
    <glyph glyph-name="Upsilontonos" unicode="&#x38e;" horiz-adv-x="1712" 
d="M291 1065l-176 27l121 374l210 -30zM770 0l88 567l-371 867h377l207 -535l350 535h430l-647 -867l-86 -567h-348z" />
    <glyph glyph-name="Omegatonos" unicode="&#x38f;" horiz-adv-x="1816" 
d="M457 1436l-156 -371l-176 27l121 374zM1790 752q-22 -129 -92.5 -238t-181.5 -186h174l-54 -328h-602l31 188h-2l24 140q134 31 232 139t121 250q25 164 -67 272.5t-261 108.5q-167 0 -293.5 -109t-152.5 -272q-23 -142 40.5 -250t186.5 -139l-53 -328h-602l53 328h176
q-88 77 -124.5 187t-16.5 237q22 140 97.5 265.5t186 217t256 145.5t299.5 54q209 0 362.5 -89.5t223 -245.5t39.5 -347z" />
    <glyph glyph-name="iotadieresistonos" unicode="&#x390;" horiz-adv-x="700" 
d="M508 1507l-162 23l111 346l194 -29zM197 1196q-57 0 -91.5 40.5t-25.5 98.5q9 53 55.5 92t102.5 39t89.5 -39t24.5 -92q-9 -58 -54 -98.5t-101 -40.5zM590 1196q-59 0 -93.5 40t-25.5 97q9 55 56 94t106 39q54 0 87.5 -39t24.5 -94q-9 -57 -54.5 -97t-100.5 -40zM424 -8
q-181 0 -268.5 98.5t-57.5 284.5l101 639h331l-92 -576q-10 -72 26.5 -109.5t108.5 -37.5q44 0 76 14l-47 -287q-102 -26 -178 -26z" />
    <glyph glyph-name="Alpha" unicode="&#x391;" horiz-adv-x="1527" 
d="M-72 0l799 1434h360l355 -1434h-365l-47 215h-596l-115 -215h-391zM594 528h373l-109 506h-6z" />
    <glyph glyph-name="Beta" unicode="&#x392;" horiz-adv-x="1302" 
d="M1292 1024q-28 -185 -180 -289q72 -55 106.5 -139t20.5 -188q-32 -195 -181 -301.5t-378 -106.5h-631l227 1434h584q221 0 341.5 -111t90.5 -299zM958 995q10 68 -27.5 107t-109.5 39h-248l-45 -291h248q73 0 122.5 38.5t59.5 106.5zM905 438q10 69 -29.5 109.5
t-111.5 40.5h-277l-45 -295h277q74 0 125.5 39t60.5 106z" />
    <glyph glyph-name="Gamma" unicode="&#x393;" horiz-adv-x="1153" 
d="M51 0l225 1434h998l-49 -306h-647l-179 -1128h-348z" />
    <glyph glyph-name="uni0394" unicode="&#x394;" horiz-adv-x="1411" 
d="M-57 0l45 285l661 1149h393l312 -1147l-45 -287h-1366zM383 319h594l-180 764z" />
    <glyph glyph-name="Epsilon" unicode="&#x395;" horiz-adv-x="1230" 
d="M51 0l225 1434h1037l-49 -306h-689l-40 -260h673l-45 -297h-674l-43 -266h691l-50 -305h-1036z" />
    <glyph glyph-name="Zeta" unicode="&#x396;" horiz-adv-x="1218" 
d="M-2 0l49 297l741 825h-612l47 312h1061l-49 -297l-741 -826h641l-48 -311h-1089z" />
    <glyph glyph-name="Eta" unicode="&#x397;" horiz-adv-x="1554" 
d="M51 0l225 1434h349l-88 -557h598l86 557h350l-225 -1434h-351l88 549h-598l-86 -549h-348z" />
    <glyph glyph-name="Theta" unicode="&#x398;" horiz-adv-x="1603" 
d="M717 -20q-97 0 -187 26.5t-163 74t-132 115t-93.5 149t-48 176t4.5 196.5q25 152 100 287t185.5 234.5t258 157.5t308.5 58q97 0 187 -26.5t163 -74t132 -115t93.5 -149t48 -176t-4.5 -196.5q-25 -153 -97 -287t-180.5 -234.5t-257 -158t-317.5 -57.5zM770 319
q164 0 293.5 115t157.5 283q26 168 -67 282.5t-257 114.5q-165 0 -294 -114.5t-157 -282.5t65.5 -283t258.5 -115zM618 608l25 213h408l-25 -213h-408z" />
    <glyph glyph-name="Iota" unicode="&#x399;" horiz-adv-x="606" 
d="M51 0l225 1434h349l-226 -1434h-348z" />
    <glyph glyph-name="Kappa" unicode="&#x39a;" horiz-adv-x="1413" 
d="M1534 1434l-731 -719l518 -715h-422l-410 578l-90 -578h-348l225 1434h349l-84 -533l522 533h471z" />
    <glyph glyph-name="Lambda" unicode="&#x39b;" horiz-adv-x="1517" 
d="M-72 0l779 1434h391l334 -1434h-359l-223 1077l-531 -1077h-391z" />
    <glyph glyph-name="Mu" unicode="&#x39c;" horiz-adv-x="1908" 
d="M51 0l225 1434h375l320 -791l549 791h405l-225 -1434h-348l133 844l-443 -613h-262l-250 611l-131 -842h-348z" />
    <glyph glyph-name="Nu" unicode="&#x39d;" horiz-adv-x="1562" 
d="M51 0l225 1434h363l453 -908l139 908h348l-225 -1434h-363l-452 907l-140 -907h-348z" />
    <glyph glyph-name="Xi" unicode="&#x39e;" horiz-adv-x="1159" 
d="M164 1128l47 306h1030l-49 -306h-1028zM244 578l45 296h700l-47 -296h-698zM-14 0l49 305h1028l-47 -305h-1030z" />
    <glyph glyph-name="Omicron" unicode="&#x39f;" horiz-adv-x="1603" 
d="M717 -20q-97 0 -187 26.5t-163 74t-132 115t-93.5 149t-48 176t4.5 196.5q25 152 100 287t185.5 234.5t258 157.5t308.5 58q97 0 187 -26.5t163 -74t132 -115t93.5 -149t48 -176t-4.5 -196.5q-25 -153 -97 -287t-180.5 -234.5t-257 -158t-317.5 -57.5zM770 319
q164 0 293.5 115t157.5 283q26 168 -67 282.5t-257 114.5q-165 0 -294 -114.5t-157 -282.5t65.5 -283t258.5 -115z" />
    <glyph glyph-name="Pi" unicode="&#x3a0;" horiz-adv-x="1538" 
d="M1554 1434l-225 -1434h-348l174 1106h-582l-174 -1106h-348l225 1434h1278z" />
    <glyph glyph-name="Rho" unicode="&#x3a1;" horiz-adv-x="1294" 
d="M51 0l225 1434h617q96 0 179.5 -32.5t144 -92t88 -152t10.5 -203.5q-36 -225 -194.5 -352t-379.5 -127h-272l-74 -475h-344zM516 770h250q86 0 144.5 51t70.5 133q12 83 -30.5 135t-127.5 52h-250z" />
    <glyph glyph-name="Sigma" unicode="&#x3a3;" horiz-adv-x="1130" 
d="M1212 1434l-47 -306h-616l237 -329l-32 -181l-322 -313h604l-49 -305h-1028l49 305l422 412l-295 411l49 306h1028z" />
    <glyph glyph-name="Tau" unicode="&#x3a4;" horiz-adv-x="1306" 
d="M399 0l181 1130h-457l47 304h1255l-47 -304h-454l-179 -1130h-346z" />
    <glyph glyph-name="Upsilon" unicode="&#x3a5;" horiz-adv-x="1380" 
d="M438 0l86 567l-368 867h376l207 -535l348 535h433l-648 -867l-86 -567h-348z" />
    <glyph glyph-name="Phi" unicode="&#x3a6;" horiz-adv-x="1785" 
d="M659 0l27 170q-199 15 -342.5 83t-212 187t-43.5 271q39 236 237.5 378t528.5 162l31 183h313l-27 -183q199 -17 341.5 -85t210.5 -185.5t44 -269.5q-39 -240 -234 -382t-534 -163l-26 -166h-314zM727 426l88 567q-169 -17 -267.5 -89t-117.5 -193q-19 -123 57 -196.5
t240 -88.5zM1040 426q166 17 264.5 90t118.5 195q20 121 -56 193t-239 89z" />
    <glyph glyph-name="Chi" unicode="&#x3a7;" horiz-adv-x="1402" 
d="M-53 0l553 717l-310 717h394l192 -473l307 473h424l-532 -715l325 -719h-389l-215 457l-317 -457h-432z" />
    <glyph glyph-name="Psi" unicode="&#x3a8;" horiz-adv-x="1763" 
d="M1528 1434h332l-41 -267q-30 -188 -101.5 -338.5t-175.5 -252.5t-233 -165t-281 -85l-51 -326h-348l51 326q-144 22 -253 84t-181.5 166.5t-95 251.5t5.5 339l43 267h329l-41 -267q-68 -439 242 -528l125 795h348l-125 -797q339 90 410 530z" />
    <glyph glyph-name="uni03A9" unicode="&#x3a9;" horiz-adv-x="1593" 
d="M1567 752q-20 -129 -91 -238t-184 -186h174l-51 -328h-602l29 188l22 140q134 31 232 139t121 250q26 163 -66 272t-260 109t-295.5 -109t-153.5 -272q-22 -142 42 -250t186 -139l-52 -328h-602l52 328h178q-88 77 -125 187t-17 237q29 187 148.5 343t302.5 247.5
t389 91.5q208 0 361.5 -89.5t222.5 -245.5t39 -347z" />
    <glyph glyph-name="Iotadieresis" unicode="&#x3aa;" horiz-adv-x="606" 
d="M283 1616q-57 0 -91.5 40.5t-25.5 98.5q9 53 55.5 92t102.5 39t89.5 -39t24.5 -92q-9 -58 -54 -98.5t-101 -40.5zM676 1616q-59 0 -93.5 40t-25.5 97q9 55 56 94t106 39q54 0 87.5 -39t24.5 -94q-9 -57 -54.5 -97t-100.5 -40zM51 0l225 1434h349l-226 -1434h-348z" />
    <glyph glyph-name="Upsilondieresis" unicode="&#x3ab;" horiz-adv-x="1380" 
d="M672 1616q-57 0 -91.5 40.5t-25.5 98.5q9 53 55.5 92t102.5 39t89.5 -39t24.5 -92q-9 -58 -54 -98.5t-101 -40.5zM1065 1616q-59 0 -93.5 40t-25.5 97q9 55 56 94t106 39q54 0 88 -39t25 -94q-9 -57 -54.5 -97t-101.5 -40zM438 0l86 567l-368 867h376l207 -535l348 535
h433l-648 -867l-86 -567h-348z" />
    <glyph glyph-name="alphatonos" unicode="&#x3ac;" horiz-adv-x="1359" 
d="M803 1137l-176 26l118 377l211 -31zM485 -18q-218 0 -336 150t-83 376q35 225 191.5 374.5t358.5 149.5q88 0 165 -36t122 -101l19 119h331l-79 -516q-9 -53 -10 -92.5t6 -64.5t17.5 -40.5t30 -23t38.5 -9t47 -0.5l-43 -270q-62 -4 -80 -4q-240 0 -295 164
q-76 -84 -180.5 -130t-219.5 -46zM578 266q96 0 171.5 69t92.5 173q19 103 -36 172.5t-151 69.5q-97 0 -172 -69t-92 -173t37 -173t150 -69z" />
    <glyph glyph-name="epsilontonos" unicode="&#x3ad;" horiz-adv-x="1038" 
d="M868 1509l-153 -372l-176 26l118 377zM489 219q72 0 144.5 34.5t122.5 94.5l211 -110q-90 -126 -223.5 -192t-294.5 -66q-202 0 -319 93t-95 232q12 78 69 136.5t148 88.5q-65 28 -96 85t-21 133q22 129 155 211.5t320 82.5q250 0 396 -174l-234 -159q-78 96 -186 96
q-55 0 -99 -27t-51 -71q-8 -47 32 -74t126 -27h78l-29 -180h-76q-189 0 -205 -96q-9 -52 26 -81.5t101 -29.5z" />
    <glyph glyph-name="etatonos" unicode="&#x3ae;" horiz-adv-x="1329" 
d="M864 1137l-176 26l119 377l211 -31zM739 -512l160 1010q20 122 -21.5 190t-132.5 68q-98 0 -161 -69t-84 -189l-78 -498h-332l86 541q10 61 10.5 102t-6 65.5t-25 36t-40.5 14.5t-58 1l41 254q98 28 154 28q118 0 184 -46.5t103 -141.5q59 81 147.5 129.5t200.5 48.5
q191 0 288.5 -135t61.5 -369l-166 -1040h-332z" />
    <glyph glyph-name="iotatonos" unicode="&#x3af;" horiz-adv-x="700" 
d="M477 1137l-176 26l119 377l211 -31zM424 -8q-181 0 -268.5 98.5t-57.5 284.5l101 639h331l-92 -576q-10 -72 26.5 -109.5t108.5 -37.5q44 0 76 14l-47 -287q-102 -26 -178 -26z" />
    <glyph glyph-name="upsilondieresistonos" unicode="&#x3b0;" horiz-adv-x="1257" 
d="M815 1507l-162 23l111 346l194 -29zM504 1196q-57 0 -91.5 40.5t-25.5 98.5q9 53 55.5 92t102.5 39t89.5 -39t24.5 -92q-9 -58 -54 -98.5t-101 -40.5zM897 1196q-59 0 -93.5 40t-25.5 97q9 55 56 94t106 39q54 0 88 -39t25 -94q-9 -57 -54.5 -97t-101.5 -40zM545 -10
q-236 0 -362 132.5t-89 371.5l84 520h332l-80 -490q-19 -128 26 -193t136 -65q198 0 242 271q37 218 0 477h325q40 -273 6 -477q-41 -275 -200 -411t-420 -136z" />
    <glyph glyph-name="alpha" unicode="&#x3b1;" horiz-adv-x="1359" 
d="M485 -18q-218 0 -336 150t-83 376q35 225 191.5 374.5t358.5 149.5q88 0 165 -36t122 -101l19 119h331l-79 -516q-9 -53 -10 -92.5t6 -64.5t17.5 -40.5t30 -23t38.5 -9t47 -0.5l-43 -270q-62 -4 -80 -4q-240 0 -295 164q-76 -84 -180.5 -130t-219.5 -46zM578 266
q96 0 171.5 69t92.5 173q19 103 -36 172.5t-151 69.5q-97 0 -172 -69t-92 -173t37 -173t150 -69z" />
    <glyph glyph-name="beta" unicode="&#x3b2;" horiz-adv-x="1200" 
d="M-43 -512l252 1597q32 202 178 326.5t356 124.5q178 0 291 -98t109 -252q-3 -130 -79 -220t-192 -130q133 -31 204 -145t48 -257q-36 -225 -189.5 -342t-399.5 -117q-80 0 -138 17l47 297q46 -17 93 -17q120 0 184.5 59t79.5 152q13 89 -45.5 143.5t-167.5 57.5l41 254
q88 8 141.5 56t56.5 126q4 58 -31.5 94.5t-97.5 36.5q-68 0 -120 -46.5t-64 -119.5l-252 -1597h-305z" />
    <glyph glyph-name="gamma" unicode="&#x3b3;" horiz-adv-x="1232" 
d="M373 -563q-42 109 -34 248.5t62 255.5q-32 300 -109 536.5t-220 446.5l331 127q93 -163 147 -351.5t66 -375.5l328 690h363l-529 -967q-78 -147 -98.5 -262.5t14.5 -226.5z" />
    <glyph glyph-name="delta" unicode="&#x3b4;" horiz-adv-x="1163" 
d="M782 961q160 -43 250 -175t62 -307q-37 -224 -204 -365t-394 -141q-141 0 -248.5 64t-158.5 180.5t-28 261.5q20 124 97.5 229t191.5 175q-106 125 -82 278q27 161 155.5 268t305.5 107q98 0 181 -45.5t132 -118.5l-241 -170q-38 62 -113 62q-54 0 -89.5 -31t-43.5 -78
q-16 -104 105 -156q37 -15 122 -38zM795 459q28 178 -187 256l-20 8q-87 -20 -152.5 -84.5t-79.5 -161.5q-15 -98 38.5 -164.5t152.5 -66.5q96 0 164.5 57.5t83.5 155.5z" />
    <glyph glyph-name="epsilon" unicode="&#x3b5;" horiz-adv-x="1038" 
d="M489 219q72 0 144.5 34.5t122.5 94.5l211 -110q-90 -126 -223.5 -192t-294.5 -66q-202 0 -319 93t-95 232q12 78 69 136.5t148 88.5q-65 28 -96 85t-21 133q22 129 155 211.5t320 82.5q250 0 396 -174l-234 -159q-78 96 -186 96q-55 0 -99 -27t-51 -71q-8 -47 32 -74
t126 -27h78l-29 -180h-76q-189 0 -205 -96q-9 -52 26 -81.5t101 -29.5z" />
    <glyph glyph-name="zeta" unicode="&#x3b6;" horiz-adv-x="954" 
d="M389 -526l-113 194q104 48 155 102.5t63 123.5q7 47 -7.5 94.5t-43 87.5t-63.5 87.5t-69 95t-60.5 109t-36.5 130t3 157.5q23 144 131.5 283t298.5 295h-500l50 303h862l-47 -303q-231 -174 -334.5 -300.5t-122.5 -248.5q-10 -63 1.5 -124t38 -111.5t60.5 -100.5
t67.5 -101t60 -103t38 -115.5t0.5 -130.5q-14 -81 -55.5 -151t-102 -121.5t-128.5 -88.5t-146 -63z" />
    <glyph glyph-name="eta" unicode="&#x3b7;" horiz-adv-x="1329" 
d="M739 -512l160 1010q20 122 -21.5 190t-132.5 68q-98 0 -161 -69t-84 -189l-78 -498h-332l86 541q10 61 10.5 102t-6 65.5t-25 36t-40.5 14.5t-58 1l41 254q98 28 154 28q118 0 184 -46.5t103 -141.5q59 81 147.5 129.5t200.5 48.5q191 0 288.5 -135t61.5 -369l-166 -1040
h-332z" />
    <glyph glyph-name="theta" unicode="&#x3b8;" horiz-adv-x="1284" 
d="M559 -20q-104 0 -190 41t-143 113.5t-93 171t-41 213t12 239.5q21 129 61.5 244.5t102.5 213.5t140.5 169t180 111t216.5 40q103 0 188 -41.5t140.5 -114t91.5 -171.5t41 -213t-11 -238q-26 -164 -84 -303.5t-144 -246.5t-206.5 -167.5t-261.5 -60.5zM461 889h479
q11 162 -34.5 250t-145.5 88q-103 0 -179.5 -88t-119.5 -250zM602 289q103 0 179 88.5t118 251.5h-479q-11 -164 35 -252t147 -88z" />
    <glyph glyph-name="iota" unicode="&#x3b9;" horiz-adv-x="700" 
d="M424 -8q-181 0 -268.5 98.5t-57.5 284.5l101 639h331l-92 -576q-10 -72 26.5 -109.5t108.5 -37.5q44 0 76 14l-47 -287q-102 -26 -178 -26z" />
    <glyph glyph-name="kappa" unicode="&#x3ba;" horiz-adv-x="1259" 
d="M1325 1014l-594 -492l418 -522h-393l-324 420l-65 -420h-330l160 1014h329l-59 -383l424 383h434z" />
    <glyph glyph-name="lambda" unicode="&#x3bb;" horiz-adv-x="1290" 
d="M885 -37q-22 37 -40.5 77.5t-37 96.5t-29.5 87.5t-29 106.5t-23 95.5t-24.5 111t-21.5 99.5l-375 -637h-379l633 981q-56 111 -133.5 183.5t-202.5 103.5l226 264q77 -28 141.5 -71.5t110.5 -92.5t85 -112t65 -121.5t50 -130.5q33 -99 87.5 -306t106.5 -356.5t122 -253.5
z" />
    <glyph glyph-name="uni03BC" unicode="&#x3bc;" horiz-adv-x="1363" 
d="M-63 -512l239 1526h332l-76 -490q-20 -122 21.5 -190t132.5 -68q97 0 160 67t83 191l78 490h330l-12 -82l-68 -434q-7 -46 -8 -82t3.5 -60t14.5 -41.5t24 -26.5t32 -14.5t38.5 -5.5h43.5l-43 -270q-58 -4 -80 -4q-258 0 -330 172q-57 -84 -142 -130t-182 -46
q-130 0 -190 84l-92 -586h-309z" />
    <glyph glyph-name="nu" unicode="&#x3bd;" horiz-adv-x="1259" 
d="M397 0q-17 264 -101.5 507t-221.5 427l329 131q96 -166 161.5 -364.5t80.5 -376.5l324 690h362l-538 -1014h-396z" />
    <glyph glyph-name="xi" unicode="&#x3be;" horiz-adv-x="980" 
d="M412 -526l-113 194q103 39 150.5 79.5t56.5 94.5q6 40 -20 77.5t-71.5 69.5t-101.5 66t-110.5 75t-98 88t-64.5 114t-9 145q20 117 107 200t212 118q-92 34 -138 96.5t-34 144.5q20 146 189 221h-189l45 279h889l-45 -279h-297q-101 0 -175.5 -54.5t-86.5 -137.5
q-13 -86 47 -136t176 -50h195l-37 -228h-227q-125 0 -196 -46.5t-83 -127.5q-7 -44 17 -84t67 -72.5t96 -65.5t106 -70.5t94.5 -79t62.5 -99.5t10 -125q-12 -75 -52.5 -141.5t-101.5 -116t-127.5 -86t-142.5 -63.5z" />
    <glyph glyph-name="omicron" unicode="&#x3bf;" horiz-adv-x="1236" 
d="M532 -29q-105 0 -198 40.5t-157.5 110.5t-94.5 171.5t-12 214.5q38 240 217 391.5t418 151.5q155 0 270 -75.5t164.5 -199.5t27.5 -268q-38 -239 -214 -388t-421 -149zM580 272q92 -1 166.5 66.5t91.5 167.5q15 102 -38 168.5t-145 66.5q-92 2 -166.5 -65.5t-89.5 -169.5
q-15 -99 37.5 -166.5t143.5 -67.5z" />
    <glyph glyph-name="pi" unicode="&#x3c0;" horiz-adv-x="1443" 
d="M1233 741l-37 -241q-7 -46 -7.5 -82t6 -60t18.5 -41.5t28 -26.5t35.5 -14.5t42 -5.5h45.5l-45 -270q-58 -4 -78 -4q-204 0 -311 122t-72 339l45 284h-289l-116 -741h-332l117 741h-203l43 273h1356l-43 -273h-203z" />
    <glyph glyph-name="rho" unicode="&#x3c1;" horiz-adv-x="1271" 
d="M-41 -512l160 1020q38 228 214 384.5t415 156.5q105 0 197 -40.5t156.5 -110.5t94 -172t10.5 -218q-23 -148 -106.5 -270t-212 -193.5t-275.5 -71.5q-78 0 -143 31.5t-102 81.5l-99 -598h-309zM623 262q97 0 177 71.5t95 172.5q17 103 -40.5 174.5t-154.5 71.5t-175 -71
t-95 -175q-17 -101 40 -172.5t153 -71.5z" />
    <glyph glyph-name="uni03C2" unicode="&#x3c2;" horiz-adv-x="1079" 
d="M395 -526l-112 194q105 45 154 91.5t59 115.5q6 39 -17.5 76t-65 69t-92.5 66.5t-101 78t-88.5 95t-56 126t-3.5 161.5q35 219 214.5 360.5t407.5 141.5q130 0 237.5 -62t168.5 -168l-273 -184q-50 115 -180 115q-95 0 -168 -57.5t-86 -145.5q-8 -51 13.5 -98t62 -85
t91 -75.5t100 -79t89 -86.5t59.5 -105t9 -129q-13 -81 -54 -149.5t-103 -118.5t-126 -85t-139 -62z" />
    <glyph glyph-name="sigma" unicode="&#x3c3;" horiz-adv-x="1241" 
d="M1264 1047l-39 -238h-109q67 -134 43 -301q-38 -240 -212.5 -386.5t-422.5 -146.5q-105 0 -197.5 40t-157.5 109t-95.5 170t-12.5 214q38 239 216.5 389t416.5 150h570zM829 506q15 102 -37.5 168.5t-144.5 66.5q-91 2 -165 -65.5t-91 -169.5q-15 -100 37 -167t143 -67
q92 -2 167.5 66.5t90.5 167.5z" />
    <glyph glyph-name="tau" unicode="&#x3c4;" horiz-adv-x="1095" 
d="M768 735l-51 -311q-9 -63 22.5 -99t96.5 -36q20 0 53 4l-10 -275q-99 -22 -191 -22q-152 0 -238.5 101.5t-60.5 267.5l60 370h-43q-167 0 -281 -53l-35 272q148 60 367 60h698l-43 -279h-344z" />
    <glyph glyph-name="upsilon" unicode="&#x3c5;" horiz-adv-x="1257" 
d="M545 -10q-236 0 -362 132.5t-89 371.5l84 520h332l-80 -490q-19 -128 26 -193t136 -65q198 0 242 271q37 218 0 477h325q40 -273 6 -477q-41 -275 -200 -411t-420 -136z" />
    <glyph glyph-name="phi" unicode="&#x3c6;" horiz-adv-x="1687" 
d="M930 1051q154 0 279.5 -32.5t206.5 -87t132.5 -126t68 -149t3.5 -156.5q-10 -70 -38.5 -136t-84 -131.5t-132 -116.5t-192 -88.5t-255.5 -50.5l-78 -489h-312l78 492q-92 10 -170.5 33.5t-135.5 56.5t-102.5 74t-71.5 87t-43.5 95.5t-18 99t5.5 98.5q22 134 126 254
t296 197l73 -254q-145 -72 -168 -205q-14 -94 49 -165.5t203 -96.5l125 784q96 13 156 13zM1292 500q16 101 -44.5 170.5t-207.5 93.5l-79 -512q153 24 235 89.5t96 158.5z" />
    <glyph glyph-name="chi" unicode="&#x3c7;" horiz-adv-x="1196" 
d="M831 -555q-86 53 -156 149t-108 201l-55 146l-272 -453h-344l507 764l-34 113q-35 136 -112 259.5t-179 211.5l205 237q99 -58 168.5 -162t109.5 -215l51 -133l260 451h345l-502 -758l43 -127q86 -293 280 -446z" />
    <glyph glyph-name="psi" unicode="&#x3c8;" horiz-adv-x="1619" 
d="M473 -512l80 504q-264 13 -379.5 142t-79.5 360l82 520h332l-78 -490q-18 -103 29.5 -166.5t138.5 -81.5l117 738h323l-116 -742q113 14 184.5 80t89.5 185q36 209 -8 477h332q43 -271 6 -490q-85 -515 -649 -534l-80 -502h-324z" />
    <glyph glyph-name="omega" unicode="&#x3c9;" horiz-adv-x="1818" 
d="M485 -10q-210 0 -317 138t-70 390q20 128 54 236.5t100 259.5h326q-107 -251 -144 -477q-25 -146 10 -208.5t119 -62.5q78 0 123.5 62t67.5 196l80 490h313l-78 -490q-22 -133 5.5 -195.5t105.5 -62.5q171 0 213 271q34 225 10 477h326q16 -143 15 -257.5t-22 -246.5
q-77 -520 -555 -520q-116 0 -197.5 46.5t-115.5 121.5q-56 -77 -155 -122.5t-214 -45.5z" />
    <glyph glyph-name="iotadieresis" unicode="&#x3ca;" horiz-adv-x="700" 
d="M197 1196q-57 0 -91.5 40.5t-25.5 98.5q9 53 55.5 92t102.5 39t89.5 -39t24.5 -92q-9 -58 -54 -98.5t-101 -40.5zM590 1196q-59 0 -93.5 40t-25.5 97q9 55 56 94t106 39q54 0 87.5 -39t24.5 -94q-9 -57 -54.5 -97t-100.5 -40zM424 -8q-181 0 -268.5 98.5t-57.5 284.5
l101 639h331l-92 -576q-10 -72 26.5 -109.5t108.5 -37.5q44 0 76 14l-47 -287q-102 -26 -178 -26z" />
    <glyph glyph-name="upsilondieresis" unicode="&#x3cb;" horiz-adv-x="1257" 
d="M504 1196q-57 0 -91.5 40.5t-25.5 98.5q9 53 55.5 92t102.5 39t89.5 -39t24.5 -92q-9 -58 -54 -98.5t-101 -40.5zM897 1196q-59 0 -93.5 40t-25.5 97q9 55 56 94t106 39q54 0 88 -39t25 -94q-9 -57 -54.5 -97t-101.5 -40zM545 -10q-236 0 -362 132.5t-89 371.5l84 520
h332l-80 -490q-19 -128 26 -193t136 -65q198 0 242 271q37 218 0 477h325q40 -273 6 -477q-41 -275 -200 -411t-420 -136z" />
    <glyph glyph-name="omicrontonos" unicode="&#x3cc;" horiz-adv-x="1236" 
d="M813 1137l-176 26l119 377l211 -31zM532 -29q-105 0 -198 40.5t-157.5 110.5t-94.5 171.5t-12 214.5q38 240 217 391.5t418 151.5q155 0 270 -75.5t164.5 -199.5t27.5 -268q-38 -239 -214 -388t-421 -149zM580 272q92 -1 166.5 66.5t91.5 167.5q15 102 -38 168.5
t-145 66.5q-92 2 -166.5 -65.5t-89.5 -169.5q-15 -99 37.5 -166.5t143.5 -67.5z" />
    <glyph glyph-name="upsilontonos" unicode="&#x3cd;" horiz-adv-x="1257" 
d="M784 1137l-176 26l119 377l211 -31zM545 -10q-236 0 -362 132.5t-89 371.5l84 520h332l-80 -490q-19 -128 26 -193t136 -65q198 0 242 271q37 218 0 477h325q40 -273 6 -477q-41 -275 -200 -411t-420 -136z" />
    <glyph glyph-name="omegatonos" unicode="&#x3ce;" horiz-adv-x="1818" 
d="M1106 1137l-176 26l119 377l211 -31zM485 -10q-210 0 -317 138t-70 390q20 128 54 236.5t100 259.5h326q-107 -251 -144 -477q-25 -146 10 -208.5t119 -62.5q78 0 123.5 62t67.5 196l80 490h313l-78 -490q-22 -133 5.5 -195.5t105.5 -62.5q171 0 213 271q34 225 10 477
h326q16 -143 15 -257.5t-22 -246.5q-77 -520 -555 -520q-116 0 -197.5 46.5t-115.5 121.5q-56 -77 -155 -122.5t-214 -45.5z" />
    <glyph glyph-name="uni03D7" unicode="&#x3d7;" horiz-adv-x="1392" 
d="M733 522l299 -389h185q-44 -278 -189 -415.5t-428 -137.5l45 279q104 0 160.5 35t83.5 108l-164 -2l-293 414l-65 -414h-328l160 1014h327l-59 -383l405 383h437z" />
    <glyph glyph-name="uni03D8" unicode="&#x3d8;" horiz-adv-x="1603" 
d="M950 1454q97 0 187 -26.5t163 -74t132 -115t93.5 -149t48 -176t-4.5 -196.5q-30 -184 -125 -338.5t-249.5 -258t-344.5 -130.5l-59 -373h-281l59 379q-157 35 -274 137.5t-171 256.5t-26 327q25 152 100 287t185.5 234.5t258 157.5t308.5 58zM1221 717q26 168 -67 282.5
t-257 114.5q-165 0 -294 -114.5t-157 -282.5t65.5 -283t258.5 -115q164 0 293.5 115t157.5 283z" />
    <glyph glyph-name="uni03D9" unicode="&#x3d9;" horiz-adv-x="1218" 
d="M705 1051q155 0 270 -75.5t164.5 -199.5t27.5 -268q-34 -210 -175 -352t-345 -174l-57 -365h-242l58 371q-170 43 -268 185.5t-68 334.5q38 240 217 391.5t418 151.5zM838 506q15 102 -38 168.5t-145 66.5q-92 2 -166.5 -65.5t-89.5 -169.5q-15 -99 37.5 -166.5
t143.5 -67.5q92 -1 166.5 66.5t91.5 167.5z" />
    <glyph glyph-name="uni03F7" unicode="&#x3f7;" horiz-adv-x="1265" 
d="M51 0l225 1434h349l-37 -238h241q95 0 178 -32.5t143 -91.5t87.5 -151.5t9.5 -203.5q-17 -112 -69.5 -203.5t-129 -151.5t-171.5 -92t-199 -32h-244l-35 -238h-348zM485 549h213q82 0 137.5 44t67.5 124t-29 124t-122 44h-215z" />
    <glyph glyph-name="uni03F8" unicode="&#x3f8;" horiz-adv-x="1294" 
d="M-41 -512l326 2048h329l-102 -643q142 139 326 139q130 0 227.5 -68t142 -188.5t21.5 -267.5q-36 -232 -183 -379t-366 -147q-192 0 -289 139l-102 -633h-330zM639 266q96 0 168.5 68.5t87.5 173.5q17 105 -33 173.5t-145 68.5q-97 0 -174 -69t-92 -173
q-17 -105 37.5 -173.5t150.5 -68.5z" />
    <glyph glyph-name="uni0400" unicode="&#x400;" horiz-adv-x="1230" 
d="M723 1602l-156 299h260l111 -299h-215zM51 0l225 1434h1037l-49 -306h-689l-40 -260h673l-45 -297h-674l-43 -266h691l-50 -305h-1036z" />
    <glyph glyph-name="uni0401" unicode="&#x401;" horiz-adv-x="1230" 
d="M637 1616q-57 0 -91.5 40.5t-25.5 98.5q9 53 56 92t102 39q56 0 89.5 -39t25.5 -92q-9 -59 -54 -99t-102 -40zM1032 1616q-59 0 -93.5 40t-25.5 97q9 56 55.5 94.5t104.5 38.5q54 0 88 -39t25 -94q-9 -57 -54.5 -97t-99.5 -40zM51 0l225 1434h1037l-49 -306h-689
l-40 -260h673l-45 -297h-674l-43 -266h691l-50 -305h-1036z" />
    <glyph glyph-name="uni0402" unicode="&#x402;" horiz-adv-x="1681" 
d="M1118 -4q-78 0 -170 18l37 222q28 -7 86 -7q55 0 93.5 28.5t47.5 88.5l15 92q31 183 -172 183q-126 0 -248 -89l-84 -532h-348l178 1130h-432l49 304h1255l-47 -304h-477l-47 -303q159 66 311 66q72 0 135.5 -13.5t118.5 -44.5t91.5 -76.5t51.5 -114t1 -152.5l-29 -173
q-24 -147 -131 -235t-285 -88z" />
    <glyph glyph-name="uni0403" unicode="&#x403;" horiz-adv-x="1153" 
d="M680 1602l188 299h254l-225 -299h-217zM51 0l225 1434h998l-49 -306h-647l-179 -1128h-348z" />
    <glyph glyph-name="uni0404" unicode="&#x404;" horiz-adv-x="1511" 
d="M762 301q239 0 399 209l269 -148q-123 -178 -306.5 -280t-408.5 -102q-145 0 -270.5 58.5t-209.5 156.5t-121.5 235t-13.5 287q25 153 97 287t180 234t256 158t315 58q207 0 364.5 -107t221.5 -282l-307 -145q-39 95 -123 152.5t-211 57.5q-121 2 -239 -70.5t-181 -195.5
h537l-47 -295h-535q26 -122 119.5 -195t214.5 -73z" />
    <glyph glyph-name="uni0405" unicode="&#x405;" horiz-adv-x="1204" 
d="M526 -20q-202 0 -338.5 100t-162.5 268l348 94q10 -70 65.5 -110.5t139.5 -40.5t139 35.5t63 93.5q6 32 -8.5 56.5t-47.5 41t-70 28.5t-89 26q-35 9 -53 14q-64 18 -114 38.5t-106.5 57.5t-91 81.5t-52 113.5t-3.5 151q28 185 195.5 307.5t400.5 122.5q195 0 315 -95.5
t144 -262.5l-328 -90q-29 143 -176 143q-82 0 -136 -39.5t-62 -95.5q-4 -26 6.5 -48t28 -36.5t51.5 -29.5t62.5 -24t74.5 -23q5 -1 8 -2l7.5 -2.5t8.5 -2.5q71 -20 116.5 -36t111 -51.5t101.5 -77.5t56.5 -111t6.5 -154q-31 -201 -198 -320.5t-413 -119.5z" />
    <glyph glyph-name="uni0406" unicode="&#x406;" horiz-adv-x="606" 
d="M51 0l225 1434h349l-226 -1434h-348z" />
    <glyph glyph-name="uni0407" unicode="&#x407;" horiz-adv-x="606" 
d="M283 1616q-57 0 -91.5 40.5t-25.5 98.5q9 53 55.5 92t102.5 39t89.5 -39t24.5 -92q-9 -58 -54 -98.5t-101 -40.5zM676 1616q-59 0 -93.5 40t-25.5 97q9 55 56 94t106 39q54 0 87.5 -39t24.5 -94q-9 -57 -54.5 -97t-100.5 -40zM51 0l225 1434h349l-226 -1434h-348z" />
    <glyph glyph-name="uni0408" unicode="&#x408;" horiz-adv-x="1159" 
d="M317 -20q-183 0 -321 83l211 295q65 -43 164 -43q77 0 140.5 28.5t106 77.5t69 110.5t36.5 132.5l123 770h348l-133 -838q-45 -295 -242.5 -455.5t-501.5 -160.5z" />
    <glyph glyph-name="uni0409" unicode="&#x409;" horiz-adv-x="2236" 
d="M37 0q-39 0 -105 4l48 301q38 -6 67 -6q96 0 153.5 68.5t82.5 230.5l133 836h1163l-86 -537h281q213 0 332 -124t87 -324q-33 -207 -180.5 -328t-380.5 -121h-628l172 1090h-465l-82 -521q-23 -147 -62.5 -249t-108 -176t-172 -109t-249.5 -35zM1399 301h235
q93 0 151 38.5t70 111.5q13 75 -32.5 111t-141.5 36h-235z" />
    <glyph glyph-name="uni040A" unicode="&#x40a;" horiz-adv-x="2240" 
d="M51 0l225 1434h349l-84 -539h608l84 539h350l-84 -537h279q213 0 332.5 -124t87.5 -324q-33 -207 -181 -328t-381 -121h-628l94 598h-610l-93 -598h-348zM1403 301h235q93 0 151.5 38.5t70.5 111.5q13 75 -32.5 111t-141.5 36h-234z" />
    <glyph glyph-name="uni040B" unicode="&#x40b;" horiz-adv-x="1679" 
d="M1165 893q91 0 167 -22.5t134.5 -69t84.5 -126t10 -183.5l-78 -492h-324l68 432q13 91 -35 137.5t-139 46.5q-114 0 -244 -65l-86 -551h-348l180 1130h-432l49 304h1251l-45 -304h-477l-47 -296q162 59 311 59z" />
    <glyph glyph-name="uni040C" unicode="&#x40c;" horiz-adv-x="1462" 
d="M784 1602l189 299h254l-226 -299h-217zM51 0l225 1434h349l-88 -553h149l467 553h449l-633 -713l409 -721h-397l-317 553h-179l-86 -553h-348z" />
    <glyph glyph-name="uni040D" unicode="&#x40d;" horiz-adv-x="1556" 
d="M846 1602l-156 299h260l111 -299h-215zM51 0l225 1434h349l-131 -846l708 846h371l-225 -1434h-349l134 846l-711 -846h-371z" />
    <glyph glyph-name="uni040E" unicode="&#x40e;" horiz-adv-x="1400" 
d="M868 1610q-133 0 -207.5 86t-58.5 200h170q-5 -50 23 -89.5t100 -39.5q68 0 109.5 40t50.5 89h172q-10 -58 -34 -106.5t-65 -90.5t-107.5 -65.5t-152.5 -23.5zM1130 1434h394l-658 -1039q-66 -106 -136 -181.5t-135.5 -120.5t-143.5 -71.5t-147.5 -35t-160.5 -9.5l54 318
q115 0 201.5 33t148.5 114l-375 992h363l217 -650z" />
    <glyph glyph-name="uni040F" unicode="&#x40f;" horiz-adv-x="1538" 
d="M1556 1434l-227 -1434h-467l-51 -328h-348l51 328h-465l227 1434h349l-181 -1131h584l178 1131h350z" />
    <glyph glyph-name="uni0410" unicode="&#x410;" horiz-adv-x="1486" 
d="M-72 0l768 1434h383l322 -1434h-365l-41 215h-567l-109 -215h-391zM590 528h342l-96 506z" />
    <glyph glyph-name="uni0411" unicode="&#x411;" horiz-adv-x="1296" 
d="M1245 1130h-670l-36 -237h288q95 0 175.5 -27.5t139.5 -81t85 -140.5t8 -198q-33 -207 -177 -326.5t-372 -119.5h-635l225 1434h1018zM733 600h-239l-52 -307h242q85 0 141 41.5t66 111.5q11 71 -31 112.5t-127 41.5z" />
    <glyph glyph-name="uni0412" unicode="&#x412;" horiz-adv-x="1302" 
d="M1292 1024q-28 -185 -180 -289q72 -55 106.5 -139t20.5 -188q-32 -195 -181 -301.5t-378 -106.5h-631l227 1434h584q221 0 341.5 -111t90.5 -299zM958 995q10 68 -27.5 107t-109.5 39h-248l-45 -291h248q73 0 122.5 38.5t59.5 106.5zM905 438q10 69 -29.5 109.5
t-111.5 40.5h-277l-45 -295h277q74 0 125.5 39t60.5 106z" />
    <glyph glyph-name="uni0413" unicode="&#x413;" horiz-adv-x="1153" 
d="M51 0l225 1434h998l-49 -306h-647l-179 -1128h-348z" />
    <glyph glyph-name="uni0414" unicode="&#x414;" horiz-adv-x="1728" 
d="M-113 -328l101 631h235q135 198 191 551l92 580h1098l-179 -1131h238l-98 -631h-353l52 328h-975l-51 -328h-351zM584 303h493l125 795h-401l-39 -242q-55 -349 -178 -553z" />
    <glyph glyph-name="uni0415" unicode="&#x415;" horiz-adv-x="1230" 
d="M51 0l225 1434h1037l-49 -306h-689l-40 -260h673l-45 -297h-674l-43 -266h691l-50 -305h-1036z" />
    <glyph glyph-name="uni0416" unicode="&#x416;" horiz-adv-x="2179" 
d="M-55 0l579 709l-350 725h401l267 -564h133l88 564h348l-88 -564h113l440 564h424l-580 -727l357 -707h-408l-266 543h-133l-84 -543h-348l84 543h-127l-428 -543h-422z" />
    <glyph glyph-name="uni0417" unicode="&#x417;" horiz-adv-x="1292" 
d="M1286 1008q-15 -95 -68 -166t-131 -105q83 -42 122 -123t22 -184q-33 -208 -206 -328t-425 -120q-409 0 -577 348l342 147q83 -172 264 -172q108 0 185.5 44t88.5 110q22 145 -205 145h-135l37 244h90q244 0 266 133q10 67 -41.5 105t-146.5 38q-166 0 -311 -151
l-228 196q116 127 267.5 205t330.5 78q121 0 216 -35.5t152.5 -96.5t81.5 -141.5t9 -170.5z" />
    <glyph glyph-name="uni0418" unicode="&#x418;" horiz-adv-x="1556" 
d="M51 0l225 1434h349l-131 -846l708 846h371l-225 -1434h-349l134 846l-711 -846h-371z" />
    <glyph glyph-name="uni0419" unicode="&#x419;" horiz-adv-x="1556" 
d="M950 1604q-133 0 -207.5 87t-58.5 199h170q-5 -50 23 -89.5t100 -39.5q68 0 109.5 40t50.5 89h172q-10 -57 -34 -105.5t-65 -90.5t-107.5 -66t-152.5 -24zM51 0l225 1434h349l-131 -846l708 846h371l-225 -1434h-349l134 846l-711 -846h-371z" />
    <glyph glyph-name="uni041A" unicode="&#x41a;" horiz-adv-x="1462" 
d="M51 0l225 1434h349l-88 -553h149l467 553h449l-633 -713l409 -721h-397l-317 553h-179l-86 -553h-348z" />
    <glyph glyph-name="uni041B" unicode="&#x41b;" horiz-adv-x="1548" 
d="M1567 1434l-228 -1434h-348l172 1090h-452l-82 -521q-23 -147 -62.5 -249t-108 -176t-172 -109t-249.5 -35q-39 0 -105 4l48 301q38 -6 67 -6q96 0 153.5 68.5t82.5 230.5l133 836h1151z" />
    <glyph glyph-name="uni041C" unicode="&#x41c;" horiz-adv-x="1908" 
d="M51 0l225 1434h375l320 -791l549 791h405l-225 -1434h-348l133 844l-443 -613h-262l-250 611l-131 -842h-348z" />
    <glyph glyph-name="uni041D" unicode="&#x41d;" horiz-adv-x="1562" 
d="M51 0l225 1434h349l-90 -578h589l88 578h351l-226 -1434h-350l84 528h-588l-84 -528h-348z" />
    <glyph glyph-name="uni041E" unicode="&#x41e;" horiz-adv-x="1603" 
d="M717 -20q-97 0 -187 26.5t-163 74t-132 115t-93.5 149t-48 176t4.5 196.5q25 152 100 287t185.5 234.5t258 157.5t308.5 58q97 0 187 -26.5t163 -74t132 -115t93.5 -149t48 -176t-4.5 -196.5q-25 -153 -97 -287t-180.5 -234.5t-257 -158t-317.5 -57.5zM770 319
q162 0 290.5 115t156.5 283q28 166 -64.5 280.5t-255.5 114.5q-162 0 -291 -114.5t-155 -280.5q-28 -167 64 -282.5t255 -115.5z" />
    <glyph glyph-name="uni041F" unicode="&#x41f;" horiz-adv-x="1538" 
d="M1554 1434l-225 -1434h-348l174 1106h-582l-174 -1106h-348l225 1434h1278z" />
    <glyph glyph-name="uni0420" unicode="&#x420;" horiz-adv-x="1294" 
d="M51 0l225 1434h617q96 0 179.5 -32.5t144 -92t88 -152t10.5 -203.5q-36 -225 -194.5 -352t-379.5 -127h-268l-74 -475h-348zM520 770h240q79 0 137 51t72 133q12 82 -29.5 134.5t-120.5 52.5h-241z" />
    <glyph glyph-name="uni0421" unicode="&#x421;" horiz-adv-x="1501" 
d="M717 -20q-143 0 -269 58.5t-211 156.5t-124 235.5t-15 286.5q25 153 100.5 288.5t186.5 234.5t258 156.5t307 57.5q198 0 357.5 -105.5t224.5 -277.5l-336 -158q-36 91 -116 146t-187 55q-161 0 -288.5 -114t-153.5 -283q-17 -107 17 -198t113.5 -145.5t186.5 -54.5
t208 58t161 149l286 -157q-266 -389 -706 -389z" />
    <glyph glyph-name="uni0422" unicode="&#x422;" horiz-adv-x="1306" 
d="M399 0l181 1130h-457l47 304h1255l-47 -304h-454l-179 -1130h-346z" />
    <glyph glyph-name="uni0423" unicode="&#x423;" horiz-adv-x="1400" 
d="M1130 1434h394l-658 -1039q-66 -106 -136 -181.5t-135.5 -120.5t-143.5 -71.5t-147.5 -35t-160.5 -9.5l54 318q115 0 201.5 33t148.5 114l-375 992h363l217 -650z" />
    <glyph glyph-name="uni0424" unicode="&#x424;" horiz-adv-x="1835" 
d="M1210 1260q321 -26 478.5 -172t121.5 -377q-82 -507 -774 -551l-24 -160h-348l24 162q-319 26 -477 171.5t-121 377.5q36 235 231.5 378.5t538.5 167.5l29 177h348zM1466 711q22 127 -50.5 194t-248.5 82l-88 -555q181 15 274 82.5t113 196.5zM432 711
q-20 -129 50.5 -196.5t248.5 -82.5l88 555q-182 -15 -274 -82.5t-113 -193.5z" />
    <glyph glyph-name="uni0425" unicode="&#x425;" horiz-adv-x="1402" 
d="M-53 0l553 717l-310 717h394l192 -473l307 473h424l-532 -715l325 -719h-389l-215 457l-317 -457h-432z" />
    <glyph glyph-name="uni0426" unicode="&#x426;" horiz-adv-x="1665" 
d="M1599 303v-4l-100 -627h-330l52 328h-1172l227 1434h349l-181 -1131h582l180 1131h348l-180 -1131h225z" />
    <glyph glyph-name="uni0427" unicode="&#x427;" horiz-adv-x="1482" 
d="M1153 1434h346l-225 -1434h-346l73 465q-159 -39 -356 -39q-122 0 -216.5 27t-160 82.5t-91.5 147.5t-7 214l86 537h348l-80 -502q-16 -108 47.5 -155.5t190.5 -47.5q137 0 289 49z" />
    <glyph glyph-name="uni0428" unicode="&#x428;" horiz-adv-x="2228" 
d="M1901 1434h346l-226 -1434h-1970l225 1434h349l-179 -1131h463l178 1131h349l-179 -1131h465z" />
    <glyph glyph-name="uni0429" unicode="&#x429;" horiz-adv-x="2357" 
d="M2292 303l-43 -264l-58 -367h-331l53 328h-1866l227 1434h349l-181 -1131h465l180 1131h349l-181 -1131h463l180 1131h349l-181 -1131h226z" />
    <glyph glyph-name="uni042A" unicode="&#x42a;" horiz-adv-x="1460" 
d="M1001 903q213 0 330 -128t86 -322q-34 -219 -175 -336t-376 -117h-633l181 1141h-314l47 293h660l-84 -531h278zM1083 453q12 79 -32.5 120t-139.5 41h-233l-51 -325h233q95 0 153 41.5t70 122.5z" />
    <glyph glyph-name="uni042B" unicode="&#x42b;" horiz-adv-x="1886" 
d="M51 0l225 1434h349l-84 -531h278q213 0 330 -128t86 -322q-34 -219 -175 -336t-376 -117h-633zM1329 0l225 1434h349l-226 -1434h-348zM444 289h234q95 0 153 41.5t70 122.5q12 79 -32.5 120t-139.5 41h-233z" />
    <glyph glyph-name="uni042C" unicode="&#x42c;" horiz-adv-x="1277" 
d="M51 0l225 1434h349l-84 -531h278q213 0 330 -128t86 -322q-34 -219 -175 -336t-376 -117h-633zM444 289h234q95 0 153 41.5t70 122.5q12 79 -32.5 120t-139.5 41h-233z" />
    <glyph glyph-name="uni042D" unicode="&#x42d;" horiz-adv-x="1511" 
d="M862 1454q145 0 270.5 -58.5t209.5 -156.5t121.5 -235t13.5 -287q-25 -153 -97 -287t-180 -234t-256 -158t-315 -58q-207 0 -364.5 107t-221.5 282l307 145q39 -96 123 -153.5t211 -57.5q121 -2 239 70.5t181 195.5h-537l47 295h535q-26 122 -119.5 195.5t-214.5 73.5
q-239 0 -399 -209l-269 147q123 178 306.5 280.5t408.5 102.5z" />
    <glyph glyph-name="uni042E" unicode="&#x42e;" horiz-adv-x="2224" 
d="M1573 1454q144 0 270 -58.5t210 -156.5t122 -235t14 -287q-25 -153 -96.5 -287t-179.5 -234.5t-256.5 -158t-317.5 -57.5q-166 0 -305.5 74.5t-224 205.5t-96.5 293h-242l-86 -553h-348l225 1434h348l-86 -553h240q93 252 312 412.5t497 160.5zM1839 717
q25 162 -68 275.5t-255 113.5q-161 0 -290 -113.5t-155 -275.5q-25 -162 67.5 -275.5t254.5 -113.5t291 113.5t155 275.5z" />
    <glyph glyph-name="uni042F" unicode="&#x42f;" horiz-adv-x="1331" 
d="M705 1434h649l-226 -1434h-350l76 492h-186l-334 -492h-389l391 547q-112 58 -166.5 165.5t-32.5 250.5q33 214 191.5 342.5t376.5 128.5zM901 784l55 346h-268q-81 0 -142.5 -48.5t-74.5 -125.5q-12 -77 33.5 -124.5t128.5 -47.5h268z" />
    <glyph glyph-name="uni0430" unicode="&#x430;" horiz-adv-x="1292" 
d="M451 -18q-127 0 -223.5 68.5t-140.5 190t-21 267.5q36 226 189.5 375t358.5 149q191 0 289 -141l19 123h331l-159 -1014h-332l18 115q-127 -133 -329 -133zM575 266q98 0 174 68t93 174q19 103 -36 172.5t-153 69.5q-95 0 -170 -69t-94 -173q-17 -103 37 -172.5
t149 -69.5z" />
    <glyph glyph-name="uni0431" unicode="&#x431;" horiz-adv-x="1198" 
d="M524 -27q-109 0 -200 42t-154.5 120.5t-88.5 202t-1 276.5q73 477 414 693q73 45 180 87t189 66t270 76l69 -236q-246 -63 -361 -104.5t-210 -101.5q-133 -87 -207 -258q50 50 133 81t164 31q142 0 243.5 -63.5t144 -172.5t21.5 -243q-35 -226 -202 -361t-404 -135z
M557 252q90 0 162.5 63t89.5 154q17 94 -37 157.5t-147 63.5q-88 0 -159.5 -64t-86.5 -157q-15 -91 37 -154t141 -63z" />
    <glyph glyph-name="uni0432" unicode="&#x432;" horiz-adv-x="1157" 
d="M37 0l160 1014h587q188 0 274.5 -79.5t63.5 -211.5q-10 -70 -53 -125t-100 -76q59 -24 91 -84.5t19 -136.5q-21 -137 -135 -219t-307 -82h-600zM461 612h180q137 0 152 93q8 41 -21.5 62t-99.5 21h-183zM399 225h191q75 0 113 22.5t47 69.5q8 48 -23 74.5t-104 26.5h-193
z" />
    <glyph glyph-name="uni0433" unicode="&#x433;" horiz-adv-x="942" 
d="M1001 1014l-43 -279h-473l-116 -735h-330l160 1014h802z" />
    <glyph glyph-name="uni0434" unicode="&#x434;" horiz-adv-x="1480" 
d="M1221 272h188l-94 -600h-305l51 328h-807l-51 -328h-305l94 600h186q69 88 101.5 190t62.5 296l41 256h956zM514 272h391l76 467h-328l-16 -96q-40 -251 -123 -371z" />
    <glyph glyph-name="uni0435" unicode="&#x435;" horiz-adv-x="1206" 
d="M694 1051q215 0 339.5 -148t107.5 -389q-2 -37 -17 -98h-762q12 -83 70 -129.5t137 -46.5q71 0 136 26.5t110 71.5l195 -168q-90 -96 -216 -147.5t-266 -49.5q-109 1 -202.5 44.5t-156 117.5t-89.5 178.5t-8 221.5q15 100 67 192.5t130.5 164.5t189.5 115.5t235 43.5z
M403 635h451q-19 81 -73.5 121.5t-127.5 40.5q-76 0 -143 -41t-107 -121z" />
    <glyph glyph-name="uni0436" unicode="&#x436;" horiz-adv-x="1802" 
d="M-68 0l435 504l-275 510h359l190 -375h125l57 375h316l-60 -375h125l273 375h393l-432 -512l272 -502h-352l-197 362h-125l-57 -362h-315l57 362h-125l-279 -362h-385z" />
    <glyph glyph-name="uni0437" unicode="&#x437;" horiz-adv-x="1056" 
d="M997 743q-24 -154 -184 -213q77 -31 117 -93t28 -136q-24 -144 -162 -232.5t-352 -88.5q-157 0 -277.5 66t-180.5 196l268 114q29 -67 86 -100t129 -33q77 0 123.5 29t52.5 76q7 44 -35 71t-141 27h-41l29 180h41q170 0 188 101q7 44 -29 69t-100 25q-127 0 -225 -90
l-180 159q92 83 210 127.5t244 44.5q188 0 299.5 -87.5t91.5 -211.5z" />
    <glyph glyph-name="uni0438" unicode="&#x438;" horiz-adv-x="1296" 
d="M946 1014h311l-159 -1014h-312l88 553l-526 -553h-309l160 1014h309l-88 -555z" />
    <glyph glyph-name="uni0439" unicode="&#x439;" horiz-adv-x="1296" 
d="M756 1184q-133 0 -208 86t-59 200h170q-5 -50 23 -89.5t100 -39.5q68 0 109.5 40t50.5 89h172q-8 -46 -24 -86t-44.5 -77.5t-67.5 -64t-96 -42.5t-126 -16zM946 1014h311l-159 -1014h-312l88 553l-526 -553h-309l160 1014h309l-88 -555z" />
    <glyph glyph-name="uni043A" unicode="&#x43a;" horiz-adv-x="1259" 
d="M37 0l160 1014h329l-55 -355h115l319 355h414l-467 -494l315 -520h-385l-223 383h-131l-61 -383h-330z" />
    <glyph glyph-name="uni043B" unicode="&#x43b;" horiz-adv-x="1298" 
d="M27 -4q-26 0 -84 4l43 270q54 -1 88 6.5t66 32.5t52 75.5t33 131.5l76 498h961l-160 -1014h-326l117 739h-307l-51 -325q-61 -418 -508 -418z" />
    <glyph glyph-name="uni043C" unicode="&#x43c;" horiz-adv-x="1536" 
d="M1497 1014l-160 -1014h-309l88 561l-291 -354h-196l-193 366l-90 -573h-307l160 1014h342l229 -484l371 484h356z" />
    <glyph glyph-name="uni043D" unicode="&#x43d;" horiz-adv-x="1298" 
d="M934 1014h328l-160 -1014h-328l57 369h-409l-57 -369h-326l160 1014h325l-57 -369h410z" />
    <glyph glyph-name="uni043E" unicode="&#x43e;" horiz-adv-x="1236" 
d="M532 -29q-105 0 -198 40.5t-157.5 110.5t-94.5 171.5t-12 214.5q38 240 217 391.5t418 151.5q155 0 270 -75.5t164.5 -199.5t27.5 -268q-38 -239 -214 -388t-421 -149zM582 281q90 0 162 64t87 161q15 99 -36.5 163t-141.5 66q-89 0 -161 -65t-89 -164q-13 -97 38 -160
t141 -65z" />
    <glyph glyph-name="uni043F" unicode="&#x43f;" horiz-adv-x="1308" 
d="M1272 1014l-160 -1014h-332l117 741h-412l-116 -741h-330l160 1014h1073z" />
    <glyph glyph-name="uni0440" unicode="&#x440;" horiz-adv-x="1294" 
d="M-43 -512l242 1526h333l-20 -121q136 139 324 139q130 0 228 -68.5t143 -189.5t22 -268q-35 -227 -184.5 -375.5t-364.5 -148.5q-190 0 -291 137l-100 -631h-332zM639 266q96 0 168.5 68.5t87.5 173.5q17 103 -34 172.5t-146 69.5q-96 0 -172.5 -70t-91.5 -174
q-17 -104 37 -172t151 -68z" />
    <glyph glyph-name="uni0441" unicode="&#x441;" horiz-adv-x="1105" 
d="M537 -29q-146 0 -262 71.5t-172 196t-33 269.5q23 149 112 272.5t228 197t299 73.5q133 0 240 -60.5t167 -163.5l-289 -190q-22 48 -66 75.5t-102 28.5q-97 2 -172 -65.5t-90 -169.5q-17 -100 34.5 -165t146.5 -67q59 -2 117 27t91 78l228 -189q-92 -101 -218 -160
t-259 -59z" />
    <glyph glyph-name="uni0442" unicode="&#x442;" horiz-adv-x="1054" 
d="M1114 1014l-45 -279h-344l-117 -735h-323l116 735h-344l43 279h1014z" />
    <glyph glyph-name="uni0443" unicode="&#x443;" horiz-adv-x="1183" 
d="M-61 -512l53 324q106 -3 193.5 31t131.5 116l33 57l-262 998h328l139 -680l332 680h368l-643 -1157q-115 -205 -276.5 -288t-396.5 -81z" />
    <glyph glyph-name="uni0444" unicode="&#x444;" horiz-adv-x="1667" 
d="M1073 1018q93 -10 171 -32.5t134 -53.5t100 -70t69.5 -82.5t42 -90t17 -93t-4.5 -92.5q-11 -71 -40.5 -136t-85 -128.5t-132 -112.5t-187.5 -84.5t-246 -48.5l-80 -506h-313l80 508q-129 14 -228.5 51t-160.5 87t-97.5 113.5t-46 127t0.5 129.5q15 91 60 172t125 154
t210.5 123.5t298.5 66.5l65 414h314zM1278 502q16 95 -44 159.5t-204 86.5l-76 -486q149 22 228.5 85.5t95.5 154.5zM391 502q-14 -91 46 -154.5t204 -85.5l76 486q-152 -22 -232.5 -86.5t-93.5 -159.5z" />
    <glyph glyph-name="uni0445" unicode="&#x445;" horiz-adv-x="1163" 
d="M-70 0l449 516l-289 498h385l135 -277l215 277h408l-445 -498l285 -516h-385l-133 297l-221 -297h-404z" />
    <glyph glyph-name="uni0446" unicode="&#x446;" horiz-adv-x="1392" 
d="M952 -326l54 326h-967l162 1014h325l-118 -742h401l119 742h325l-118 -742h217l-95 -598h-305z" />
    <glyph glyph-name="uni0447" unicode="&#x447;" horiz-adv-x="1263" 
d="M901 1014h326l-160 -1014h-326l50 307q-140 -45 -269 -45q-91 0 -167.5 23t-136 69.5t-85.5 126.5t-10 185l53 348h326l-47 -305q-16 -91 34 -132.5t146 -41.5q91 0 196 43z" />
    <glyph glyph-name="uni0448" unicode="&#x448;" horiz-adv-x="1914" 
d="M39 0l160 1014h327l-118 -742h350l116 742h328l-119 -742h351l116 742h328l-162 -1014h-1677z" />
    <glyph glyph-name="uni0449" unicode="&#x449;" horiz-adv-x="2033" 
d="M39 0l162 1014h325l-118 -742h350l119 742h325l-119 -742h351l118 742h326l-119 -742h217l-94 -598h-303l53 326h-1593z" />
    <glyph glyph-name="uni044A" unicode="&#x44a;" horiz-adv-x="1247" 
d="M188 0l121 756h-260l41 258h590l-51 -330h237q171 0 257.5 -97t62.5 -245q-24 -147 -140 -244.5t-288 -97.5h-570zM557 233h156q143 0 159 109q9 53 -22 81t-102 28h-156z" />
    <glyph glyph-name="uni044B" unicode="&#x44b;" horiz-adv-x="1622" 
d="M37 0l160 1014h329l-51 -330h232q171 0 259.5 -94.5t65.5 -247.5q-24 -156 -137.5 -249t-294.5 -93h-563zM1100 0l160 1014h325l-160 -1014h-325zM403 233h158q146 0 162 109q9 53 -22.5 81t-102.5 28h-160z" />
    <glyph glyph-name="uni044C" unicode="&#x44c;" horiz-adv-x="1091" 
d="M37 0l160 1014h327l-53 -330h238q168 0 256.5 -97.5t64.5 -244.5q-26 -156 -136 -249t-292 -93h-565zM399 233h158q141 0 160 109q8 53 -22.5 81t-100.5 28h-158z" />
    <glyph glyph-name="uni044D" unicode="&#x44d;" horiz-adv-x="1058" 
d="M555 1051q110 0 204 -42.5t157 -114.5t91 -172t11 -210q-18 -113 -70.5 -211.5t-133 -172t-191 -115.5t-236.5 -42q-137 0 -246.5 60t-167.5 162l269 178q62 -100 186 -103q65 -1 121.5 28t95.5 81h-295l41 260h299q-20 54 -67.5 87t-108.5 34q-128 0 -227 -105l-211 178
q93 102 218.5 161t260.5 59z" />
    <glyph glyph-name="uni044E" unicode="&#x44e;" horiz-adv-x="1787" 
d="M1268 1051q155 0 269 -75.5t162.5 -199.5t26.5 -268q-38 -240 -212 -388.5t-418 -148.5q-179 0 -310.5 109.5t-152.5 284.5h-201l-57 -365h-344l159 1014h345l-58 -359h201q72 180 232 288t358 108zM1399 506q15 102 -37.5 168.5t-144.5 66.5q-91 2 -165 -65.5
t-91 -169.5q-15 -100 37 -167t143 -67q92 -2 167.5 66.5t90.5 167.5z" />
    <glyph glyph-name="uni044F" unicode="&#x44f;" horiz-adv-x="1140" 
d="M539 1014h565l-160 -1014h-332l56 348h-111l-240 -348h-366l287 391q-84 43 -124 119.5t-26 169.5q23 147 140.5 240.5t310.5 93.5zM702 569l35 224h-159q-66 0 -110.5 -30.5t-51.5 -82.5q-7 -54 27.5 -82.5t101.5 -28.5h157z" />
    <glyph glyph-name="uni0450" unicode="&#x450;" horiz-adv-x="1206" 
d="M821 1212h-215l-155 299h260zM694 1051q215 0 339.5 -148t107.5 -389q-2 -37 -17 -98h-762q12 -83 70 -129.5t137 -46.5q71 0 136 26.5t110 71.5l195 -168q-90 -96 -216 -147.5t-266 -49.5q-109 1 -202.5 44.5t-156 117.5t-89.5 178.5t-8 221.5q15 100 67 192.5
t130.5 164.5t189.5 115.5t235 43.5zM403 635h451q-19 81 -73.5 121.5t-127.5 40.5q-76 0 -143 -41t-107 -121z" />
    <glyph glyph-name="uni0451" unicode="&#x451;" horiz-adv-x="1206" 
d="M903 1229q-58 0 -92.5 39t-26.5 96q9 56 56.5 95.5t105.5 39.5q54 0 88 -40t25 -95q-9 -57 -54.5 -96t-101.5 -39zM510 1229q-58 0 -92.5 39.5t-24.5 97.5q9 53 56 92t102 39q56 0 89.5 -39t25.5 -92q-9 -58 -54.5 -97.5t-101.5 -39.5zM694 1051q215 0 339.5 -148
t107.5 -389q-2 -37 -17 -98h-762q12 -83 70 -129.5t137 -46.5q71 0 136 26.5t110 71.5l195 -168q-90 -96 -216 -147.5t-266 -49.5q-109 1 -202.5 44.5t-156 117.5t-89.5 178.5t-8 221.5q15 100 67 192.5t130.5 164.5t189.5 115.5t235 43.5zM403 635h451q-19 81 -73.5 121.5
t-127.5 40.5q-76 0 -143 -41t-107 -121z" />
    <glyph glyph-name="uni0452" unicode="&#x452;" horiz-adv-x="1310" 
d="M854 1024q87 0 161.5 -36.5t124.5 -100.5t71 -157.5t3 -201.5l-77 -497q-13 -85 -36.5 -153.5t-70.5 -135t-114 -111.5t-171 -72.5t-237 -27.5l47 295q99 0 165.5 45.5t82.5 144.5l76 486q20 115 -22.5 180.5t-133.5 65.5q-94 0 -156.5 -62t-83.5 -170l-82 -516h-329
l178 1137h-166l35 229h168l26 170h330l-27 -170h279l-35 -229h-280l-39 -252q120 139 313 139z" />
    <glyph glyph-name="uni0453" unicode="&#x453;" horiz-adv-x="942" 
d="M969 1481l-226 -299h-217l189 299h254zM1001 1014l-43 -279h-473l-116 -735h-330l160 1014h802z" />
    <glyph glyph-name="uni0454" unicode="&#x454;" horiz-adv-x="1058" 
d="M547 258q126 -3 225 102l211 -178q-93 -102 -218.5 -160.5t-260.5 -58.5q-146 0 -261 72t-170 196.5t-32 270.5q18 113 70.5 211.5t133 171.5t191 115t236.5 42q137 0 246 -59.5t167 -161.5l-266 -176q-65 97 -188 100q-65 1 -121.5 -27.5t-95.5 -80.5h297l-41 -260h-301
q22 -54 68.5 -86t109.5 -33z" />
    <glyph glyph-name="uni0455" unicode="&#x455;" horiz-adv-x="1046" 
d="M434 -39q-158 0 -279 83.5t-143 211.5l297 88q14 -57 59 -89t117 -32q62 0 105.5 26t50.5 70q5 28 -17 43t-65 21t-91 9.5t-108 14.5t-104 31q-169 79 -137 262q26 148 164.5 246t314.5 98q162 0 263 -76.5t120 -203.5l-291 -78q-3 54 -37 84.5t-90 30.5q-55 0 -95.5 -27
t-45.5 -65q-4 -32 19 -50.5t67.5 -26t93 -12t107.5 -14t100 -26.5q179 -77 149 -265q-26 -164 -166.5 -259t-357.5 -95z" />
    <glyph glyph-name="uni0456" unicode="&#x456;" horiz-adv-x="540" 
d="M375 1155q-74 0 -120 53t-34 129q12 71 74 122.5t137 51.5q74 0 119 -52t33 -122q-12 -76 -73.5 -129t-135.5 -53zM25 0l161 1014h330l-162 -1014h-329z" />
    <glyph glyph-name="uni0457" unicode="&#x457;" horiz-adv-x="532" 
d="M182 1196q-57 0 -91 40.5t-25 98.5q9 53 55 92t102 39q57 0 90.5 -39t24.5 -92q-9 -58 -54.5 -98.5t-101.5 -40.5zM575 1196q-58 0 -92.5 40t-25.5 97q9 56 56 94.5t105 38.5q54 0 88 -39t25 -94q-9 -57 -54.5 -97t-101.5 -40zM25 0l159 1014h324l-160 -1014h-323z" />
    <glyph glyph-name="uni0458" unicode="&#x458;" horiz-adv-x="575" 
d="M408 1155q-66 0 -110 44t-44 110q0 78 64.5 140t146.5 62q67 0 111.5 -43.5t44.5 -105.5q0 -84 -65.5 -145.5t-147.5 -61.5zM-88 -510q-76 0 -170 23l47 297q43 -15 82 -15q160 0 182 158l170 1061h330l-180 -1135q-61 -389 -461 -389z" />
    <glyph glyph-name="uni0459" unicode="&#x459;" horiz-adv-x="1835" 
d="M27 -4q-26 0 -84 4l43 270q36 -1 60 1.5t51.5 15t46 36.5t35 68.5t26.5 108.5l80 514h981l-49 -314h221q170 0 265 -99.5t69 -266.5q-25 -150 -138.5 -242t-290.5 -92h-563l117 739h-330l-43 -282q-38 -242 -163.5 -351.5t-333.5 -109.5zM1147 254h160q142 0 159 102
q7 54 -24.5 79.5t-100.5 25.5h-161z" />
    <glyph glyph-name="uni045A" unicode="&#x45a;" horiz-adv-x="1824" 
d="M39 0l160 1014h325l-53 -338h408l53 338h325l-53 -338h221q177 0 269 -93.5t67 -246.5q-24 -152 -136.5 -244t-289.5 -92h-563l66 420h-408l-65 -420h-326zM1135 238h159q67 0 109 22.5t49 67.5q7 48 -26.5 70t-100.5 22h-162z" />
    <glyph glyph-name="uni045B" unicode="&#x45b;" horiz-adv-x="1308" 
d="M854 1024q87 0 161.5 -36t125 -99.5t72 -157.5t4.5 -203l-84 -528h-332l78 502q20 116 -22 181t-134 65q-94 0 -156.5 -62t-83.5 -170l-82 -516h-329l178 1137h-166l35 229h168l26 170h330l-27 -170h279l-35 -229h-280l-39 -252q120 139 313 139z" />
    <glyph glyph-name="uni045C" unicode="&#x45c;" horiz-adv-x="1259" 
d="M623 1182l188 299h254l-225 -299h-217zM37 0l160 1014h329l-55 -355h115l319 355h414l-467 -494l315 -520h-385l-223 383h-131l-61 -383h-330z" />
    <glyph glyph-name="uni045D" unicode="&#x45d;" horiz-adv-x="1296" 
d="M864 1182h-215l-155 299h260zM946 1014h311l-159 -1014h-312l88 553l-526 -553h-309l160 1014h309l-88 -555z" />
    <glyph glyph-name="uni045E" unicode="&#x45e;" horiz-adv-x="1183" 
d="M684 1196q-133 0 -207.5 86.5t-58.5 200.5h170q-5 -50 23 -89.5t100 -39.5q68 0 109 40t50 89h172q-10 -58 -33.5 -106.5t-64.5 -90.5t-107.5 -66t-152.5 -24zM-61 -512l53 324q106 -3 193.5 31t131.5 116l33 57l-262 998h328l139 -680l332 680h368l-643 -1157
q-115 -205 -276.5 -288t-396.5 -81z" />
    <glyph glyph-name="uni045F" unicode="&#x45f;" horiz-adv-x="1292" 
d="M1253 1014l-161 -1014h-373l-51 -326h-306l52 326h-375l162 1014h325l-118 -742h401l119 742h325z" />
    <glyph glyph-name="uni0461" unicode="&#x461;" horiz-adv-x="1818" 
d="M485 -10q-210 0 -317 138t-70 390q20 128 54 236.5t100 259.5h326q-107 -251 -144 -477q-25 -146 10 -208.5t119 -62.5q78 0 123.5 62t67.5 196l80 490h313l-78 -490q-22 -133 5.5 -195.5t105.5 -62.5q171 0 213 271q34 225 10 477h326q16 -143 15 -257.5t-22 -246.5
q-77 -520 -555 -520q-116 0 -197.5 46.5t-115.5 121.5q-56 -77 -155 -122.5t-214 -45.5z" />
    <glyph glyph-name="uni0462" unicode="&#x462;" horiz-adv-x="1460" 
d="M1001 903q213 0 330 -128t86 -322q-34 -219 -175 -336t-376 -117h-633l164 1042h-309l35 230h311l25 162h348l-27 -162h320l-35 -230h-320l-22 -139h278zM1083 453q12 79 -32.5 120t-139.5 41h-233l-51 -325h233q95 0 153 41.5t70 122.5z" />
    <glyph glyph-name="uni0463" unicode="&#x463;" horiz-adv-x="1271" 
d="M889 684q167 0 255 -97.5t64 -244.5q-24 -156 -134.5 -249t-293.5 -93h-563l131 831h-287l29 183h285l47 295h328l-48 -295h304l-29 -183h-303l-23 -147h238zM895 342q9 53 -21.5 81t-101.5 28h-158l-34 -218h157q69 0 109.5 28t48.5 81z" />
    <glyph glyph-name="uni0466" unicode="&#x466;" horiz-adv-x="1619" 
d="M1534 0h-340l-98 362v-2h-176l-56 -360h-250l56 360h-170l-211 -360h-361l856 1434h361zM653 625h371l-117 430h-4z" />
    <glyph glyph-name="uni0467" unicode="&#x467;" horiz-adv-x="1232" 
d="M834 0l-74 315h-64l-51 -315h-211l51 315h-59l-178 -315h-322l588 1014h363l270 -1014h-313zM713 524l-49 213l-121 -213h170z" />
    <glyph glyph-name="uni0468" unicode="&#x468;" horiz-adv-x="2260" 
d="M51 0l225 1434h328l-127 -803h484l466 803h359l389 -1434h-330l-92 342h-178l-53 -342h-250l53 342h-180l-199 -342h-356l201 346h-359l-53 -346h-328zM1309 625h370l-116 430h-4z" />
    <glyph glyph-name="uni0469" unicode="&#x469;" horiz-adv-x="1777" 
d="M1376 0l-71 315h-66l-49 -315h-211l51 315h-61l-178 -315h-322l184 317h-262l-49 -317h-305l160 1014h305l-76 -482l352 3l279 479h364l269 -1014h-314zM1257 524l-49 213l-121 -213h170z" />
    <glyph glyph-name="uni046A" unicode="&#x46a;" horiz-adv-x="1712" 
d="M1202 805q239 -82 346 -294t60 -511h-285q33 216 -42 366.5t-257 194.5l-88 -561h-311l90 561q-198 -44 -321 -194.5t-156 -366.5h-293q47 304 228.5 518t455.5 291l-252 389l37 236h1190l-37 -236zM1221 1198h-502l196 -330z" />
    <glyph glyph-name="uni046B" unicode="&#x46b;" horiz-adv-x="1335" 
d="M963 555q157 -69 224 -217t38 -338h-291q22 139 -19 229.5t-131 128.5l-55 -358h-283l56 358q-105 -37 -180 -128t-97 -230h-274q30 191 142 340t294 217l-184 252l30 205h1033l-33 -205zM539 809l145 -201l199 201h-344z" />
    <glyph glyph-name="uni046C" unicode="&#x46c;" horiz-adv-x="2342" 
d="M1831 805q239 -79 346 -292t61 -513h-284q22 142 -2 256t-100 194.5t-199 110.5l-86 -561h-312l88 561q-197 -45 -319.5 -195t-155.5 -366h-293q56 365 297 592h-401l-92 -592h-328l225 1434h328l-88 -557h698l-206 321l36 236h1188l-34 -236zM1849 1198h-501l198 -330z
" />
    <glyph glyph-name="uni046D" unicode="&#x46d;" horiz-adv-x="1910" 
d="M1841 1014l-31 -205l-270 -254q157 -70 223.5 -218.5t36.5 -336.5h-289q21 140 -19.5 229.5t-129.5 126.5l-55 -356h-285l55 358q-105 -39 -178.5 -129t-95.5 -229h-275q37 228 177 383h-299l-60 -383h-309l160 1014h309l-60 -381l461 2l-129 174l33 205h1030zM1114 809
l146 -201l200 201h-346z" />
    <glyph glyph-name="uni0472" unicode="&#x472;" horiz-adv-x="1603" 
d="M950 1454q97 0 187 -26.5t163 -74t132 -115t93.5 -149t48 -176t-4.5 -196.5q-25 -153 -97 -287t-180.5 -234.5t-257 -158t-317.5 -57.5q-97 0 -187 26.5t-163 74t-132 115t-93.5 149t-48 176t4.5 196.5q25 152 100 287t185.5 234.5t258 157.5t308.5 58zM897 1114
q-129 0 -238 -71.5t-167 -188.5h729q-22 117 -109.5 188.5t-214.5 71.5zM770 319q127 0 237 72t169 189h-730q21 -117 108 -189t216 -72z" />
    <glyph glyph-name="uni0473" unicode="&#x473;" horiz-adv-x="1236" 
d="M532 -29q-105 0 -198 40.5t-157.5 110.5t-94.5 171.5t-12 214.5q38 240 217 391.5t418 151.5q155 0 270 -75.5t164.5 -199.5t27.5 -268q-38 -239 -214 -388t-421 -149zM455 627h364q-20 50 -64 78.5t-102 29.5q-57 0 -110 -28.5t-88 -79.5zM582 281q58 0 111.5 28
t88.5 78h-364q19 -49 62 -76.5t102 -29.5z" />
    <glyph glyph-name="uni0474" unicode="&#x474;" horiz-adv-x="1662" 
d="M475 0l-319 1434h370l197 -1037l422 811q66 131 157.5 198t196.5 67q168 0 289 -130l-158 -239q-50 33 -92 33q-78 0 -137 -113l-518 -1024h-408z" />
    <glyph glyph-name="uni0475" unicode="&#x475;" horiz-adv-x="1331" 
d="M336 0l-250 1014h340l143 -686l222 436q68 144 156.5 212t213.5 68q138 0 234 -118l-142 -199q-41 27 -71 27q-59 0 -109 -90l-364 -664h-373z" />
    <glyph glyph-name="uni0490" unicode="&#x490;" horiz-adv-x="1157" 
d="M1325 1720l-94 -583l-2 -9h-654l-178 -1128h-348l227 1434h652l47 286h350z" />
    <glyph glyph-name="uni0491" unicode="&#x491;" horiz-adv-x="944" 
d="M1049 1298l-45 -284l-43 -279h-476l-116 -735h-330l160 1014h499l45 284h306z" />
    <glyph glyph-name="uni0492" unicode="&#x492;" horiz-adv-x="1259" 
d="M1333 1128h-649l-45 -294h281l-35 -230h-283l-94 -604h-350l94 604h-236l35 230h238l94 600h997z" />
    <glyph glyph-name="uni0493" unicode="&#x493;" horiz-adv-x="970" 
d="M987 735h-473l-31 -184h240l-31 -203h-239l-56 -348h-331l55 348h-135l30 203h136l73 463h805z" />
    <glyph glyph-name="uni0496" unicode="&#x496;" horiz-adv-x="2275" 
d="M1716 707l269 -535h202l-78 -498h-348l51 326h-147l-266 543h-133l-86 -543h-349l87 543h-127l-429 -543h-423l579 709l-350 725h403l265 -564h133l88 564h348l-88 -564h113l440 564h426z" />
    <glyph glyph-name="uni0497" unicode="&#x497;" horiz-adv-x="1918" 
d="M1438 502l178 -330h225l-78 -498h-305l51 326h-151l-197 362h-125l-57 -362h-315l57 362h-125l-279 -362h-385l435 504l-275 510h359l190 -375h125l57 375h316l-60 -375h125l273 375h393z" />
    <glyph glyph-name="uni049A" unicode="&#x49a;" horiz-adv-x="1603" 
d="M969 721l311 -549h236l-78 -498h-348l51 326h-160l-317 553h-179l-86 -553h-348l225 1434h349l-88 -553h149l467 553h449z" />
    <glyph glyph-name="uni049B" unicode="&#x49b;" horiz-adv-x="1370" 
d="M852 520l211 -348h227l-78 -498h-305l51 326h-176l-223 383h-131l-61 -383h-330l160 1014h329l-55 -355h115l319 355h414z" />
    <glyph glyph-name="uni04A2" unicode="&#x4a2;" horiz-adv-x="1658" 
d="M1579 1434l-199 -1262h174l-77 -498h-349l52 326h-176l88 549h-607l-86 -549h-348l225 1434h349l-88 -557h606l86 557h350z" />
    <glyph glyph-name="uni04A3" unicode="&#x4a3;" horiz-adv-x="1382" 
d="M1143 256h153l-69 -442h-439l29 186h-43l37 229h-410l-36 -229h-326l160 1014h325l-71 -453h409l72 453h328z" />
    <glyph glyph-name="uni04AE" unicode="&#x4ae;" horiz-adv-x="1380" 
d="M438 0l86 567l-368 867h376l207 -535l348 535h433l-648 -867l-86 -567h-348z" />
    <glyph glyph-name="uni04AF" unicode="&#x4af;" horiz-adv-x="1175" 
d="M1249 1014l-598 -1086l-71 -440h-320l74 463l-248 1063h328l135 -688l338 688h362z" />
    <glyph glyph-name="uni04B0" unicode="&#x4b0;" horiz-adv-x="1380" 
d="M1520 1434l-572 -764h234l-41 -267h-293l-62 -403h-348l62 403h-291l41 267h231l-325 764h376l207 -535l348 535h433z" />
    <glyph glyph-name="uni04B1" unicode="&#x4b1;" horiz-adv-x="1175" 
d="M1249 1014l-559 -1014h230l-37 -244h-260l-43 -268h-320l43 268h-256l39 244h236l-236 1014h328l135 -688l338 688h362z" />
    <glyph glyph-name="uni04B2" unicode="&#x4b2;" horiz-adv-x="1505" 
d="M963 719l254 -547h200l-78 -498h-348l51 326h-135l-217 440l-315 -440h-430l561 717l-320 717h394l196 -441l305 441h424z" />
    <glyph glyph-name="uni04B3" unicode="&#x4b3;" horiz-adv-x="1245" 
d="M788 516l191 -344h188l-77 -498h-306l50 326h-146l-133 297l-221 -297h-404l449 516l-289 498h385l135 -277l215 277h408z" />
    <glyph glyph-name="uni04B6" unicode="&#x4b6;" horiz-adv-x="1576" 
d="M1499 1434l-199 -1262h173l-78 -498h-348l51 326h-170l73 469q-179 -43 -374 -43q-116 0 -206.5 27t-154.5 82.5t-89.5 147.5t-6.5 214l86 537h348l-80 -502q-16 -108 47.5 -155.5t190.5 -47.5q143 0 289 47l102 658h346z" />
    <glyph glyph-name="uni04B7" unicode="&#x4b7;" horiz-adv-x="1343" 
d="M1094 172h157l-77 -498h-308l52 326h-177l50 307q-140 -45 -269 -45q-91 0 -167.5 23t-136 69.5t-85.5 126.5t-10 185l53 348h326l-47 -305q-16 -92 35 -138.5t145 -46.5q88 0 196 43l70 447h326z" />
    <glyph glyph-name="uni04BA" unicode="&#x4ba;" horiz-adv-x="1454" 
d="M883 987q91 0 169.5 -19.5t141.5 -59.5t104.5 -98t57 -139.5t0.5 -178.5l-78 -492h-350l71 455q10 61 -6.5 107.5t-54 73t-86 39.5t-107.5 13q-117 0 -260 -65l-98 -623h-348l225 1434h348l-80 -510q158 63 351 63z" />
    <glyph glyph-name="uni04BB" unicode="&#x4bb;" horiz-adv-x="1275" 
d="M39 0l242 1536h329l-102 -657q120 145 323 145q193 0 291.5 -130.5t61.5 -365.5l-84 -528h-332l80 502q19 116 -23.5 181t-134.5 65q-146 0 -225 -146l-96 -602h-330z" />
    <glyph glyph-name="uni04C0" unicode="&#x4c0;" horiz-adv-x="606" 
d="M51 0l225 1434h349l-226 -1434h-348z" />
    <glyph glyph-name="uni04CF" unicode="&#x4cf;" horiz-adv-x="563" 
d="M41 0l242 1536h323l-241 -1536h-324z" />
    <glyph glyph-name="uni04D0" unicode="&#x4d0;" horiz-adv-x="1486" 
d="M913 1610q-133 0 -207.5 86t-58.5 200h170q-5 -50 23 -89.5t100 -39.5q68 0 109.5 40t50.5 89h172q-10 -58 -34 -106.5t-65 -90.5t-107.5 -65.5t-152.5 -23.5zM-72 0l768 1434h383l322 -1434h-365l-41 215h-567l-109 -215h-391zM590 528h342l-96 506z" />
    <glyph glyph-name="uni04D1" unicode="&#x4d1;" horiz-adv-x="1292" 
d="M748 1190q-133 0 -208 86.5t-59 200.5h170q-5 -50 23 -89.5t100 -39.5q68 0 109.5 40t50.5 89h172q-10 -58 -33.5 -106.5t-64.5 -90.5t-107.5 -66t-152.5 -24zM451 -18q-127 0 -223.5 68.5t-140.5 190t-21 267.5q36 226 189.5 375t358.5 149q191 0 289 -141l19 123h331
l-159 -1014h-332l18 115q-127 -133 -329 -133zM575 266q98 0 174 68t93 174q19 103 -36 172.5t-153 69.5q-95 0 -170 -69t-94 -173q-17 -103 37 -172.5t149 -69.5z" />
    <glyph glyph-name="uni04D2" unicode="&#x4d2;" horiz-adv-x="1486" 
d="M723 1616q-57 0 -91.5 40.5t-25.5 98.5q9 53 55.5 92t102.5 39q57 0 90.5 -39t24.5 -92q-9 -58 -54.5 -98.5t-101.5 -40.5zM1116 1616q-59 0 -93.5 40t-25.5 97q9 55 56 94t106 39q54 0 88 -39t25 -94q-9 -57 -54.5 -97t-101.5 -40zM-72 0l768 1434h383l322 -1434h-365
l-41 215h-567l-109 -215h-391zM590 528h342l-96 506z" />
    <glyph glyph-name="uni04D3" unicode="&#x4d3;" horiz-adv-x="1292" 
d="M555 1196q-57 0 -91.5 40.5t-25.5 98.5q9 53 55.5 92t102.5 39q57 0 90.5 -39t24.5 -92q-9 -58 -54.5 -98.5t-101.5 -40.5zM948 1196q-59 0 -93.5 40t-25.5 97q9 55 56 94t106 39q54 0 88 -39t25 -94q-9 -57 -54.5 -97t-101.5 -40zM451 -18q-127 0 -223.5 68.5
t-140.5 190t-21 267.5q36 226 189.5 375t358.5 149q191 0 289 -141l19 123h331l-159 -1014h-332l18 115q-127 -133 -329 -133zM575 266q98 0 174 68t93 174q19 103 -36 172.5t-153 69.5q-95 0 -170 -69t-94 -173q-17 -103 37 -172.5t149 -69.5z" />
    <glyph glyph-name="uni04D4" unicode="&#x4d4;" horiz-adv-x="2078" 
d="M-72 0l975 1434h1256l-48 -312h-690l-39 -248h666l-47 -311h-668l-41 -252h690l-49 -311h-1038l35 225h-424l-150 -225h-428zM707 539h274l84 540z" />
    <glyph glyph-name="uni04D5" unicode="&#x4d5;" horiz-adv-x="2111" 
d="M471 -12q-205 0 -323 145.5t-82 374.5q24 153 108.5 271.5t205 181.5t255.5 63q93 0 166 -32t117 -89l16 111h328l-17 -111q134 123 377 123q69 0 136 -20.5t126.5 -63.5t101 -103t58.5 -146.5t2 -186.5q-8 -56 -16 -90h-740q7 -85 63.5 -130.5t139.5 -45.5
q70 0 138 28.5t112 75.5l172 -166q-84 -95 -206.5 -142.5t-252.5 -47.5q-231 0 -336 131l-20 -119h-328l21 113q-131 -125 -322 -125zM1337 637h422q-8 74 -54.5 117t-121.5 43q-79 0 -145 -43t-101 -117zM592 281q94 0 169.5 65.5t92.5 163.5q13 94 -41.5 158.5
t-146.5 64.5q-96 0 -173 -65.5t-92 -159.5q-15 -96 40 -161.5t151 -65.5z" />
    <glyph glyph-name="uni04D6" unicode="&#x4d6;" horiz-adv-x="1230" 
d="M829 1610q-133 0 -207.5 86t-58.5 200h170q-5 -50 23 -89.5t100 -39.5q68 0 109.5 40t50.5 89h172q-10 -58 -34 -106.5t-65 -90.5t-107.5 -65.5t-152.5 -23.5zM51 0l225 1434h1037l-49 -306h-689l-40 -260h673l-45 -297h-674l-43 -266h691l-50 -305h-1036z" />
    <glyph glyph-name="uni04D7" unicode="&#x4d7;" horiz-adv-x="1206" 
d="M711 1221q-133 0 -208 86t-59 200h170q-5 -50 23 -89.5t100 -39.5q68 0 109.5 40t50.5 89h172q-8 -46 -24 -86t-44.5 -77.5t-67.5 -64t-96 -42.5t-126 -16zM694 1051q215 0 339.5 -148t107.5 -389q-2 -37 -17 -98h-762q12 -83 70 -129.5t137 -46.5q71 0 136 26.5
t110 71.5l195 -168q-90 -96 -216 -147.5t-266 -49.5q-109 1 -202.5 44.5t-156 117.5t-89.5 178.5t-8 221.5q15 100 67 192.5t130.5 164.5t189.5 115.5t235 43.5zM403 635h451q-19 81 -73.5 121.5t-127.5 40.5q-76 0 -143 -41t-107 -121z" />
    <glyph glyph-name="uni04D8" unicode="&#x4d8;" horiz-adv-x="1583" 
d="M932 1454q193 0 346.5 -102t226.5 -272.5t43 -362.5q-25 -152 -98.5 -287t-183 -234.5t-257 -157.5t-311.5 -58q-102 0 -193 28t-160.5 78t-124.5 119t-85 151t-42 173.5t5 187.5l19 121h1091q-12 139 -101.5 221t-221.5 82q-231 0 -377 -187l-211 201q123 139 288.5 219
t346.5 80zM748 283q135 0 243.5 70t165.5 204h-733q15 -133 101.5 -203.5t222.5 -70.5z" />
    <glyph glyph-name="uni04D9" unicode="&#x4d9;" horiz-adv-x="1206" 
d="M680 1051q146 -1 259.5 -74t167.5 -202.5t28 -285.5q-15 -100 -67 -192.5t-131 -164.5t-190 -115.5t-235 -43.5q-214 0 -337.5 147.5t-108.5 389.5q3 43 16 98h762q-12 83 -70 129.5t-137 46.5q-71 0 -136 -26.5t-108 -71.5l-196 168q90 96 216.5 147.5t266.5 49.5z
M553 227q76 0 143 41t107 121h-449q18 -81 72.5 -121.5t126.5 -40.5z" />
    <glyph glyph-name="uni04E2" unicode="&#x4e2;" horiz-adv-x="1556" 
d="M690 1653l33 196h541l-31 -196h-543zM51 0l225 1434h349l-131 -846l708 846h371l-225 -1434h-349l134 846l-711 -846h-371z" />
    <glyph glyph-name="uni04E3" unicode="&#x4e3;" horiz-adv-x="1296" 
d="M1065 1430l-31 -197h-542l32 197h541zM946 1014h311l-159 -1014h-312l88 553l-526 -553h-309l160 1014h309l-88 -555z" />
    <glyph glyph-name="uni04E4" unicode="&#x4e4;" horiz-adv-x="1556" 
d="M760 1616q-57 0 -91.5 40.5t-25.5 98.5q9 53 55.5 92t102.5 39t89.5 -39t24.5 -92q-9 -58 -54 -98.5t-101 -40.5zM1153 1616q-59 0 -93.5 40t-25.5 97q9 55 56 94t106 39q54 0 88 -39t25 -94q-9 -57 -54.5 -97t-101.5 -40zM51 0l225 1434h349l-131 -846l708 846h371
l-225 -1434h-349l134 846l-711 -846h-371z" />
    <glyph glyph-name="uni04E5" unicode="&#x4e5;" horiz-adv-x="1296" 
d="M563 1196q-57 0 -91.5 40.5t-25.5 98.5q9 53 55.5 92t102.5 39q57 0 90.5 -39t24.5 -92q-9 -58 -54.5 -98.5t-101.5 -40.5zM956 1196q-58 0 -92.5 40t-25.5 97q9 56 56 94.5t105 38.5q54 0 88 -39t25 -94q-9 -57 -54.5 -97t-101.5 -40zM946 1014h311l-159 -1014h-312
l88 553l-526 -553h-309l160 1014h309l-88 -555z" />
    <glyph glyph-name="uni04E6" unicode="&#x4e6;" horiz-adv-x="1603" 
d="M782 1616q-57 0 -91 40.5t-25 98.5q9 53 55 92t102 39q57 0 90.5 -39t24.5 -92q-9 -58 -54.5 -98.5t-101.5 -40.5zM1176 1616q-59 0 -93.5 40t-25.5 97q9 55 56 94t106 39q54 0 87.5 -39t24.5 -94q-9 -57 -54.5 -97t-100.5 -40zM717 -20q-97 0 -187 26.5t-163 74
t-132 115t-93.5 149t-48 176t4.5 196.5q25 152 100 287t185.5 234.5t258 157.5t308.5 58q97 0 187 -26.5t163 -74t132 -115t93.5 -149t48 -176t-4.5 -196.5q-25 -153 -97 -287t-180.5 -234.5t-257 -158t-317.5 -57.5zM770 319q162 0 290.5 115t156.5 283q28 166 -64.5 280.5
t-255.5 114.5q-162 0 -291 -114.5t-155 -280.5q-28 -167 64 -282.5t255 -115.5z" />
    <glyph glyph-name="uni04E7" unicode="&#x4e7;" horiz-adv-x="1236" 
d="M532 1196q-57 0 -91 40.5t-25 98.5q9 53 55 92t102 39q57 0 90.5 -39t24.5 -92q-9 -58 -54.5 -98.5t-101.5 -40.5zM926 1196q-59 0 -93.5 40t-25.5 97q9 55 56 94t106 39q54 0 87.5 -39t24.5 -94q-9 -57 -54.5 -97t-100.5 -40zM532 -29q-105 0 -198 40.5t-157.5 110.5
t-94.5 171.5t-12 214.5q38 240 217 391.5t418 151.5q155 0 270 -75.5t164.5 -199.5t27.5 -268q-38 -239 -214 -388t-421 -149zM582 281q90 0 162 64t87 161q15 99 -36.5 163t-141.5 66q-89 0 -161 -65t-89 -164q-13 -97 38 -160t141 -65z" />
    <glyph glyph-name="uni04E8" unicode="&#x4e8;" horiz-adv-x="1603" 
d="M950 1454q97 0 187 -26.5t163 -74t132 -115t93.5 -149t48 -176t-4.5 -196.5q-25 -153 -97 -287t-180.5 -234.5t-257 -158t-317.5 -57.5q-97 0 -187 26.5t-163 74t-132 115t-93.5 149t-48 176t4.5 196.5q25 152 100 287t185.5 234.5t258 157.5t308.5 58zM897 1114
q-129 0 -238 -71.5t-167 -188.5h729q-22 117 -109.5 188.5t-214.5 71.5zM770 319q127 0 237 72t169 189h-730q21 -117 108 -189t216 -72z" />
    <glyph glyph-name="uni04E9" unicode="&#x4e9;" horiz-adv-x="1236" 
d="M532 -29q-105 0 -198 40.5t-157.5 110.5t-94.5 171.5t-12 214.5q38 240 217 391.5t418 151.5q155 0 270 -75.5t164.5 -199.5t27.5 -268q-38 -239 -214 -388t-421 -149zM455 627h364q-20 50 -64 78.5t-102 29.5q-57 0 -110 -28.5t-88 -79.5zM582 281q58 0 111.5 28
t88.5 78h-364q19 -49 62 -76.5t102 -29.5z" />
    <glyph glyph-name="uni04EC" unicode="&#x4ec;" horiz-adv-x="1511" 
d="M739 1616q-57 0 -91 40.5t-25 98.5q9 53 55 92t102 39q57 0 90.5 -39t24.5 -92q-9 -58 -54.5 -98.5t-101.5 -40.5zM1133 1616q-59 0 -93.5 40t-25.5 97q9 55 56 94t106 39q54 0 87.5 -39t24.5 -94q-9 -57 -54.5 -97t-100.5 -40zM862 1454q145 0 270.5 -58.5t209.5 -156.5
t121.5 -235t13.5 -287q-25 -153 -97 -287t-180 -234t-256 -158t-315 -58q-207 0 -364.5 107t-221.5 282l307 145q39 -96 123 -153.5t211 -57.5q121 -2 239 70.5t181 195.5h-537l47 295h535q-26 122 -119.5 195.5t-214.5 73.5q-239 0 -399 -209l-269 147q123 178 306.5 280.5
t408.5 102.5z" />
    <glyph glyph-name="uni04ED" unicode="&#x4ed;" horiz-adv-x="1058" 
d="M383 1196q-57 0 -91.5 40.5t-25.5 98.5q9 53 55.5 92t102.5 39q57 0 90.5 -39t24.5 -92q-9 -58 -54.5 -98.5t-101.5 -40.5zM776 1196q-59 0 -93.5 40t-25.5 97q9 55 56 94t106 39q54 0 88 -39t25 -94q-9 -57 -54.5 -97t-101.5 -40zM555 1051q110 0 204 -42.5t157 -114.5
t91 -172t11 -210q-18 -113 -70.5 -211.5t-133 -172t-191 -115.5t-236.5 -42q-137 0 -246.5 60t-167.5 162l269 178q62 -100 186 -103q65 -1 121.5 28t95.5 81h-295l41 260h299q-20 54 -67.5 87t-108.5 34q-128 0 -227 -105l-211 178q93 102 218.5 161t260.5 59z" />
    <glyph glyph-name="uni04EE" unicode="&#x4ee;" horiz-adv-x="1400" 
d="M1178 1849l-31 -196h-543l33 196h541zM1130 1434h394l-658 -1039q-66 -106 -136 -181.5t-135.5 -120.5t-143.5 -71.5t-147.5 -35t-160.5 -9.5l54 318q115 0 201.5 33t148.5 114l-375 992h363l217 -650z" />
    <glyph glyph-name="uni04EF" unicode="&#x4ef;" horiz-adv-x="1183" 
d="M422 1239l33 197h540l-30 -197h-543zM-61 -512l53 324q106 -3 193.5 31t131.5 116l33 57l-262 998h328l139 -680l332 680h368l-643 -1157q-115 -205 -276.5 -288t-396.5 -81z" />
    <glyph glyph-name="uni04F0" unicode="&#x4f0;" horiz-adv-x="1400" 
d="M676 1616q-57 0 -91.5 40.5t-25.5 98.5q9 53 55.5 92t102.5 39t89.5 -39t24.5 -92q-9 -58 -54 -98.5t-101 -40.5zM1069 1616q-59 0 -93.5 40t-25.5 97q9 55 56 94t106 39q54 0 88 -39t25 -94q-9 -57 -54.5 -97t-101.5 -40zM1130 1434h394l-658 -1039
q-66 -106 -136 -181.5t-135.5 -120.5t-143.5 -71.5t-147.5 -35t-160.5 -9.5l54 318q115 0 201.5 33t148.5 114l-375 992h363l217 -650z" />
    <glyph glyph-name="uni04F1" unicode="&#x4f1;" horiz-adv-x="1183" 
d="M492 1202q-57 0 -91.5 40.5t-25.5 98.5q9 53 55 92.5t102 39.5t90 -39.5t25 -92.5q-9 -58 -54 -98.5t-101 -40.5zM885 1202q-59 0 -93.5 40t-25.5 97q9 56 56.5 95t105.5 39q54 0 87.5 -39.5t24.5 -94.5q-9 -57 -54.5 -97t-100.5 -40zM-61 -512l53 324q106 -3 193.5 31
t131.5 116l33 57l-262 998h328l139 -680l332 680h368l-643 -1157q-115 -205 -276.5 -288t-396.5 -81z" />
    <glyph glyph-name="uni05B0" unicode="&#x5b0;" 
d="M-12 -354q-52 0 -82.5 36t-22.5 87q7 52 50 88.5t94 36.5q52 0 83 -36t23 -89q-9 -51 -51 -87t-94 -36zM-66 -692q-53 0 -83 35.5t-21 87.5q9 54 50 90.5t93 36.5q53 0 83.5 -36.5t21.5 -90.5q-7 -52 -49 -87.5t-95 -35.5z" />
    <glyph glyph-name="uni05B1" unicode="&#x5b1;" 
d="M-12 -354q-52 0 -82.5 36t-22.5 87q7 52 49 88.5t95 36.5q52 0 82 -36t22 -89q-8 -51 -49.5 -87t-93.5 -36zM377 -354q-53 0 -83.5 36t-21.5 87q7 52 49 88.5t95 36.5q52 0 82 -36t22 -89q-8 -51 -49.5 -87t-93.5 -36zM764 -354q-51 0 -81.5 36t-23.5 87q7 52 50 88.5
t94 36.5q52 0 83 -36t23 -89q-9 -51 -51 -87t-94 -36zM127 -692q-51 0 -81 35.5t-23 87.5q9 54 50.5 90.5t92.5 36.5q53 0 83.5 -37t20.5 -90q-7 -52 -48.5 -87.5t-94.5 -35.5zM711 -692q-52 0 -82.5 35t-22.5 88q9 54 50.5 90.5t93.5 36.5q53 0 83 -36.5t21 -90.5
q-7 -52 -48.5 -87.5t-94.5 -35.5z" />
    <glyph glyph-name="uni05B2" unicode="&#x5b2;" 
d="M463 -354q-52 0 -82.5 36t-22.5 87q7 52 49 88.5t95 36.5t83 -36.5t21 -88.5q-8 -51 -49.5 -87t-93.5 -36zM-133 -336l35 225h417l-36 -225h-416zM410 -692q-53 0 -83.5 35.5t-23.5 87.5q11 54 52.5 90.5t93.5 36.5q53 0 83 -36.5t21 -90.5q-7 -52 -49 -87.5t-94 -35.5z
" />
    <glyph glyph-name="uni05B3" unicode="&#x5b3;" 
d="M-12 -358q-52 0 -82.5 36t-22.5 89q7 52 49 87t95 35q52 0 82 -34.5t22 -87.5q-7 -52 -48.5 -88.5t-94.5 -36.5zM330 -700l63 399h-196l32 190h584l-31 -190h-196l-62 -399h-194zM-68 -700q-52 0 -82 36t-22 89q9 53 50 88.5t93 35.5q53 0 84.5 -35.5t22.5 -88.5
t-51.5 -89t-94.5 -36z" />
    <glyph glyph-name="uni05B4" unicode="&#x5b4;" 
d="M-12 -354q-52 0 -82.5 36t-22.5 87q7 52 49 88.5t95 36.5q52 0 82 -36t22 -89q-8 -51 -49.5 -87t-93.5 -36z" />
    <glyph glyph-name="uni05B5" unicode="&#x5b5;" 
d="M98 -354q-52 0 -82 36t-22 87q7 52 48.5 88.5t94.5 36.5q52 0 82.5 -36t22.5 -89q-8 -51 -50 -87t-94 -36zM389 -354q-52 0 -82 36t-22 87q7 52 48.5 88.5t94.5 36.5q52 0 82 -36t22 -89q-8 -51 -49.5 -87t-93.5 -36z" />
    <glyph glyph-name="uni05B6" unicode="&#x5b6;" 
d="M-12 -354q-52 0 -82.5 36t-22.5 87q7 52 49 88.5t95 36.5q52 0 82 -36t22 -89q-8 -51 -49.5 -87t-93.5 -36zM377 -354q-53 0 -83.5 36t-21.5 87q7 52 49 88.5t95 36.5q52 0 82 -36t22 -89q-8 -51 -49.5 -87t-93.5 -36zM127 -692q-51 0 -81 35.5t-23 87.5q9 54 50.5 90.5
t92.5 36.5q53 0 83.5 -37t20.5 -90q-7 -52 -48.5 -87.5t-94.5 -35.5z" />
    <glyph glyph-name="uni05B7" unicode="&#x5b7;" 
d="M-131 -336l33 225h571l-35 -225h-569z" />
    <glyph glyph-name="uni05B8" unicode="&#x5b8;" 
d="M45 -553l41 252h-213l29 190h618l-28 -190h-213l-39 -252h-195z" />
    <glyph glyph-name="uni05B9" unicode="&#x5b9;" 
d="M264 1376q-52 0 -83 36t-23 89q7 51 49.5 87t95.5 36q51 0 81.5 -36t23.5 -87q-9 -52 -51 -88.5t-93 -36.5z" />
    <glyph glyph-name="uni05BA" unicode="&#x5ba;" 
d="M264 1376q-52 0 -83 36t-23 89q7 51 49.5 87t95.5 36q51 0 81.5 -36t23.5 -87q-9 -52 -51 -88.5t-93 -36.5z" />
    <glyph glyph-name="uni05BB" unicode="&#x5bb;" 
d="M-12 -354q-52 0 -82.5 36t-22.5 87q7 52 49 88.5t95 36.5q52 0 82 -36t22 -89q-8 -51 -49.5 -87t-93.5 -36zM199 -553q-52 0 -83.5 36t-23.5 87q9 54 51 90.5t95 36.5t83 -36.5t21 -90.5q-9 -51 -50.5 -87t-92.5 -36zM399 -760q-51 0 -81.5 36t-22.5 87q7 53 49 90t94 37
q53 0 83.5 -36.5t21.5 -90.5q-8 -51 -50 -87t-94 -36z" />
    <glyph glyph-name="uni05BC" unicode="&#x5bc;" 
d="M109 508q-46 0 -72.5 31t-20.5 77q6 45 43.5 77t83.5 32q44 0 70.5 -31.5t19.5 -77.5q-6 -45 -42.5 -76.5t-81.5 -31.5z" />
    <glyph glyph-name="uni05BE" unicode="&#x5be;" horiz-adv-x="960" 
d="M137 985l45 285h838l-45 -285h-838z" />
    <glyph glyph-name="uni05C1" unicode="&#x5c1;" 
d="M264 1376q-52 0 -83 36t-23 89q7 51 49.5 87t95.5 36q51 0 81.5 -36t23.5 -87q-9 -52 -51 -88.5t-93 -36.5z" />
    <glyph glyph-name="uni05C2" unicode="&#x5c2;" 
d="M264 1376q-52 0 -83 36t-23 89q7 51 49.5 87t95.5 36q51 0 81.5 -36t23.5 -87q-9 -52 -51 -88.5t-93 -36.5z" />
    <glyph glyph-name="uni05C7" unicode="&#x5c7;" 
d="M37 -602l49 301h-213l29 190h618l-28 -190h-213l-48 -301h-194z" />
    <glyph glyph-name="uni05D0" unicode="&#x5d0;" horiz-adv-x="1474" 
d="M1470 1270q-37 -231 -156 -404.5t-317 -316.5l326 -549h-377l-352 596q-114 -130 -166 -263.5t-84 -332.5h-344q41 256 137.5 451.5t306.5 396.5l-249 422h374l281 -473q122 104 186.5 215.5t87.5 257.5h346z" />
    <glyph glyph-name="uni05D1" unicode="&#x5d1;" horiz-adv-x="1306" 
d="M1106 311h145l-49 -311h-1218l47 311h747l64 400q20 130 -33.5 188.5t-187.5 58.5h-486l49 312h508q565 0 482 -518z" />
    <glyph glyph-name="uni05D2" unicode="&#x5d2;" horiz-adv-x="1165" 
d="M952 0h-340l-49 317q-111 -47 -170 -117.5t-80 -199.5h-329q75 485 587 584l21 127q22 129 -26 188t-171 59h-67l49 312h106q239 0 359 -137t80 -400l-50 -307z" />
    <glyph glyph-name="uni05D3" unicode="&#x5d3;" horiz-adv-x="1302" 
d="M659 0l150 958h-713l49 312h1215l-49 -312h-170l-152 -958h-330z" />
    <glyph glyph-name="uni05D4" unicode="&#x5d4;" horiz-adv-x="1382" 
d="M852 0l113 700q21 136 -33 197t-191 61h-571l47 312h617q267 0 388.5 -131.5t82.5 -386.5l-119 -752h-334zM25 0l116 729h330l-115 -729h-331z" />
    <glyph glyph-name="uni05D5" unicode="&#x5d5;" horiz-adv-x="784" 
d="M788 1270l-200 -1270h-332l152 958h-238l47 312h571z" />
    <glyph glyph-name="uni05D6" unicode="&#x5d6;" horiz-adv-x="978" 
d="M217 1270h784l-49 -312q-125 -62 -188.5 -154t-87.5 -251l-88 -553h-332l88 551q26 160 84.5 252.5t171.5 154.5h-430z" />
    <glyph glyph-name="uni05D7" unicode="&#x5d7;" horiz-adv-x="1419" 
d="M862 1270q272 0 395 -134.5t82 -400.5l-116 -735h-330l108 700q22 137 -32 197.5t-191 60.5h-282l-152 -958h-328l162 1018l39 252h645z" />
    <glyph glyph-name="uni05D8" unicode="&#x5d8;" horiz-adv-x="1437" 
d="M616 -10q-116 0 -209 30.5t-155 85.5t-101 132.5t-46 171.5t10 202l112 658h334l-115 -654q-26 -157 31.5 -236t192.5 -79q281 0 336 322l28 168q8 48 6.5 83.5t-12 56.5t-27.5 34.5t-39.5 17.5t-47.5 6t-52 0l49 277q52 10 160 10q83 0 144.5 -25t105 -81t55 -145.5
t-7.5 -217.5l-31 -195q-52 -304 -231.5 -463t-489.5 -159z" />
    <glyph glyph-name="uni05D9" unicode="&#x5d9;" horiz-adv-x="782" 
d="M786 1270l-118 -754h-328l70 442h-240l47 312h569z" />
    <glyph glyph-name="uni05DA" unicode="&#x5da;" horiz-adv-x="1153" 
d="M543 -512l192 1223q20 129 -30.5 188t-180.5 59h-428l49 312h451q265 0 391.5 -133.5t85.5 -386.5l-199 -1262h-331z" />
    <glyph glyph-name="uni05DB" unicode="&#x5db;" horiz-adv-x="1308" 
d="M33 0l47 311h416q179 0 296.5 90t139.5 234q24 147 -67.5 235t-303.5 88q-164 0 -354 -53l-29 299q235 66 443 66q178 0 313 -49.5t212.5 -136t108 -201.5t9.5 -248q-17 -108 -56.5 -201.5t-108 -174t-160 -137.5t-217.5 -89.5t-276 -32.5h-413z" />
    <glyph glyph-name="uni05DC" unicode="&#x5dc;" horiz-adv-x="1329" 
d="M496 1270h868l-39 -269q-16 -92 -50.5 -181.5t-77.5 -162.5t-91.5 -143t-96 -134.5t-88 -125t-70 -126.5t-38.5 -128h-336q17 104 59 205.5t93.5 177.5t109.5 155.5t107 143t86 136.5t47 140h-844l31 189l61 389h312z" />
    <glyph glyph-name="uni05DD" unicode="&#x5dd;" horiz-adv-x="1427" 
d="M16 0l201 1270h670q267 0 385.5 -131.5t77.5 -386.5l-119 -752h-1215zM395 311h557l64 400q20 131 -30 189t-185 58h-303z" />
    <glyph glyph-name="uni05DE" unicode="&#x5de;" horiz-adv-x="1558" 
d="M1018 1270q259 0 380 -133t83 -385l-119 -752h-705l50 311h372l64 400q20 131 -30 189t-185 58h-215l-332 -958h-348l332 958h-172l49 312h776z" />
    <glyph glyph-name="uni05DF" unicode="&#x5df;" horiz-adv-x="784" 
d="M788 1270l-282 -1782h-332l234 1470h-240l49 312h571z" />
    <glyph glyph-name="uni05E0" unicode="&#x5e0;" horiz-adv-x="923" 
d="M383 1270q267 0 385.5 -131.5t77.5 -386.5l-117 -752h-743l45 311h413l64 400q20 131 -30 189t-183 58h-109l50 312h147z" />
    <glyph glyph-name="uni05E1" unicode="&#x5e1;" horiz-adv-x="1435" 
d="M627 -10q-185 0 -312.5 76.5t-179 213t-24.5 314.5l106 676h678q261 0 382.5 -132t80.5 -386l-27 -158q-48 -294 -225.5 -449t-478.5 -155zM676 301q277 0 325 303l19 107q22 131 -29.5 189t-187.5 58h-303l-56 -362q-24 -148 36 -221.5t196 -73.5z" />
    <glyph glyph-name="uni05E2" unicode="&#x5e2;" horiz-adv-x="1470" 
d="M1143 1266h332l-107 -678q-18 -113 -53 -205.5t-88.5 -164.5t-120 -127t-156.5 -94t-188 -65.5t-224.5 -42.5t-257 -22.5t-292.5 -7.5l49 311q157 0 289 6l-60 1092l328 4l57 -1057q171 38 265.5 129t121.5 260z" />
    <glyph glyph-name="uni05E3" unicode="&#x5e3;" horiz-adv-x="1312" 
d="M702 1286q139 0 245.5 -38.5t177 -114t96 -194t0.5 -271.5l-187 -1180h-332l183 1155q26 165 -49.5 244.5t-221.5 79.5q-69 0 -202 -17l-60 -362h-313l98 616q289 82 565 82z" />
    <glyph glyph-name="uni05E4" unicode="&#x5e4;" horiz-adv-x="1357" 
d="M678 1270q170 0 302 -49.5t210.5 -136t111 -202t11.5 -247.5q-17 -107 -57 -201t-107 -174.5t-156 -137.5t-210 -89.5t-263 -32.5h-524l49 311h516q171 0 283 89.5t137 234.5q26 148 -64 235.5t-303 87.5q-92 0 -155 -8l-58 -362h-311l96 616q230 66 492 66z" />
    <glyph glyph-name="uni05E5" unicode="&#x5e5;" horiz-adv-x="1355" 
d="M1092 1270h321l-74 -269q-132 -467 -518 -585l-145 -928h-332l162 1024l-365 758h365l266 -592q185 105 254 356z" />
    <glyph glyph-name="uni05E6" unicode="&#x5e6;" horiz-adv-x="1423" 
d="M1448 1270q-72 -467 -434 -721l215 -334l-35 -215h-1161l49 311h702l-634 959h403l309 -484q104 96 159.5 210t80.5 274h346z" />
    <glyph glyph-name="uni05E7" unicode="&#x5e7;" horiz-adv-x="1398" 
d="M549 0q19 123 74 241t120.5 208.5t130 173.5t114 170t61.5 165h-881l49 312h1217l-39 -269q-16 -92 -50.5 -181.5t-77.5 -162.5t-91.5 -143t-96 -134.5t-88 -125t-70 -126.5t-38.5 -128h-334zM-55 -512l196 1241h332l-199 -1241h-329z" />
    <glyph glyph-name="uni05E8" unicode="&#x5e8;" horiz-adv-x="1167" 
d="M639 0l113 711q20 131 -29.5 189t-183.5 58h-430l47 312h454q266 0 393.5 -133t86.5 -387l-119 -750h-332z" />
    <glyph glyph-name="uni05E9" unicode="&#x5e9;" horiz-adv-x="1710" 
d="M1401 1270h313l-96 -617q-22 -136 -90 -255t-174.5 -210.5t-259 -144.5t-330.5 -53q-177 0 -312.5 53t-213 144.5t-108.5 211t-9 254.5l96 617h315l-90 -568q-15 -96 4 -172q130 53 207 150.5t103 255.5l53 334h313l-57 -365q-18 -119 -63 -213t-111.5 -159.5
t-140.5 -109t-166 -75.5q98 -55 227 -55q85 0 163.5 23t149.5 70t121 130t68 193z" />
    <glyph glyph-name="uni05EA" unicode="&#x5ea;" horiz-adv-x="1552" 
d="M1012 1270q266 0 384.5 -132t78.5 -386l-121 -752h-328l113 711q22 130 -28.5 188.5t-184.5 58.5h-293l-76 -481q-22 -137 -67 -232t-113.5 -149t-149.5 -77t-186 -23q-20 0 -78 4l45 281q185 -7 217 196l92 580h2l33 213h660z" />
    <glyph glyph-name="uni1E0C" unicode="&#x1e0c;" horiz-adv-x="1501" 
d="M49 0l227 1434l574 2q106 0 205 -29.5t183.5 -89.5t143 -144t82 -201.5t2.5 -252.5q-27 -171 -100.5 -308t-180.5 -226.5t-242 -137t-288 -47.5h-606zM451 336h229q172 0 291.5 95t150.5 288q15 98 -4.5 173t-68 119.5t-115 66.5t-150.5 22l-213 -2zM618 -408
q-59 0 -93 41t-25 101q9 54 56.5 92.5t105.5 38.5q56 0 90 -38.5t24 -92.5q-9 -59 -55.5 -100.5t-102.5 -41.5z" />
    <glyph glyph-name="uni1E0D" unicode="&#x1e0d;" horiz-adv-x="1292" 
d="M455 -18q-129 0 -226.5 68.5t-141.5 189.5t-21 268q37 226 191 375t357 149q188 0 289 -141l103 645h331l-243 -1536h-332l20 121q-136 -139 -327 -139zM578 266q96 0 172.5 69.5t91.5 172.5q19 103 -36 172.5t-151 69.5q-97 0 -172 -69t-92 -173t37 -173t150 -69z
M487 -428q-59 0 -93 40.5t-25 100.5q9 54 56 92.5t105 38.5q56 0 90.5 -39t24.5 -92q-9 -59 -55.5 -100t-102.5 -41z" />
    <glyph glyph-name="uni1E24" unicode="&#x1e24;" horiz-adv-x="1554" 
d="M51 0l225 1434h349l-88 -557h598l86 557h350l-225 -1434h-351l88 549h-598l-86 -549h-348zM633 -408q-59 0 -93.5 41t-25.5 101q9 54 56.5 92.5t105.5 38.5q56 0 90.5 -39t24.5 -92q-9 -59 -55.5 -100.5t-102.5 -41.5z" />
    <glyph glyph-name="uni1E25" unicode="&#x1e25;" horiz-adv-x="1275" 
d="M39 0l244 1536h329l-100 -631q124 121 303 121q189 0 297 -138t72 -360l-84 -528h-332l80 502q19 118 -23 182t-135 64q-91 0 -154.5 -64.5t-84.5 -173.5l-82 -510h-330zM483 -408q-59 0 -93 41t-25 101q9 54 56 92.5t105 38.5q56 0 90.5 -39t24.5 -92
q-9 -59 -55.5 -100.5t-102.5 -41.5z" />
    <glyph glyph-name="uni1E2E" unicode="&#x1e2e;" horiz-adv-x="606" 
d="M438 2054l189 299h254l-226 -299h-217zM283 1616q-57 0 -91.5 40.5t-25.5 98.5q9 53 55.5 92t102.5 39t89.5 -39t24.5 -92q-9 -58 -54 -98.5t-101 -40.5zM676 1616q-59 0 -93.5 40t-25.5 97q9 55 56 94t106 39q54 0 87.5 -39t24.5 -94q-9 -57 -54.5 -97t-100.5 -40zM51 0
l225 1434h349l-226 -1434h-348z" />
    <glyph glyph-name="uni1E2F" unicode="&#x1e2f;" horiz-adv-x="532" 
d="M336 1634l188 299h254l-225 -299h-217zM182 1196q-57 0 -91 40.5t-25 98.5q9 53 55 92t102 39q57 0 90.5 -39t24.5 -92q-9 -58 -54.5 -98.5t-101.5 -40.5zM575 1196q-58 0 -92.5 40t-25.5 97q9 56 56 94.5t105 38.5q54 0 88 -39t25 -94q-9 -57 -54.5 -97t-101.5 -40z
M25 0l159 1014h324l-160 -1014h-323z" />
    <glyph glyph-name="uni1E36" unicode="&#x1e36;" horiz-adv-x="1185" 
d="M51 0l225 1434h345l-177 -1117h686l-49 -317h-1030zM498 -408q-59 0 -93.5 41t-25.5 101q9 54 56.5 92.5t105.5 38.5q56 0 90 -38.5t24 -92.5q-9 -60 -55 -101t-102 -41z" />
    <glyph glyph-name="uni1E37" unicode="&#x1e37;" horiz-adv-x="698" 
d="M424 -8q-183 0 -269.5 99t-56.5 284l185 1161h331l-176 -1098q-9 -71 25.5 -109t107.5 -38q44 0 76 14l-47 -287q-102 -26 -176 -26zM332 -408q-59 0 -93.5 41t-25.5 101q9 54 56.5 92.5t105.5 38.5q56 0 90 -38.5t24 -92.5q-9 -60 -55 -101t-102 -41z" />
    <glyph glyph-name="uni1E3E" unicode="&#x1e3e;" horiz-adv-x="1908" 
d="M1004 1602l188 299h254l-225 -299h-217zM51 0l225 1434h375l320 -791l549 791h405l-225 -1434h-348l133 844l-443 -613h-262l-250 611l-131 -842h-348z" />
    <glyph glyph-name="uni1E3F" unicode="&#x1e3f;" horiz-adv-x="2000" 
d="M1053 1212l188 299h254l-225 -299h-217zM37 0l162 1014h331l-18 -113q138 131 319 131q190 0 304 -168q162 168 401 168q205 0 308 -133t65 -371l-84 -528h-334l80 500q19 118 -22.5 187t-133.5 69q-91 0 -156.5 -71t-82.5 -185l-80 -500h-332l80 500q17 118 -24.5 187
t-131.5 69t-155.5 -74t-83.5 -186l-80 -496h-332z" />
    <glyph glyph-name="uni1E44" unicode="&#x1e44;" horiz-adv-x="1562" 
d="M936 1602q-65 0 -103.5 44.5t-29.5 108.5q9 60 61.5 104t116.5 44q63 0 100.5 -44t28.5 -104q-10 -64 -61 -108.5t-113 -44.5zM51 0l225 1434h363l453 -908l139 908h348l-225 -1434h-363l-452 907l-140 -907h-348z" />
    </font>
</defs>
</svg>
